<svg xmlns="http://www.w3.org/2000/svg" viewBox="0 0 15 15"><path fill-rule="nonzero" d="M7.648298.0425154c.1330532.0552532.2390481.1601035.295281.2920918l1.8275158 4.289504h4.6773376c.3046224 0 .5515676.245472.5515676.548277 0 .1443015-.0572295.2827853-.1592764.3854168l-3.4601384 3.4799587 1.7674565 5.2396532c.0968439.2870953-.0587822.5978712-.3476006.6941374-.1436632.0478844-.300817.034911-.4345657-.0358745l-4.918406-2.6030265-4.7920925 2.5828838c-.2677896.1443355-.6025852.0455514-.747787-.2206405-.0732564-.1342978-.0868228-.2928875-.0374298-.4375523l1.7821246-5.2195806L.1611142 5.5596445c-.2151594-.214355-.2147685-.5615046.000873-.7753803.1034032-.1025566.2435095-.160153.3895804-.160153h4.57345L6.9267399.3370709c.1174254-.2794033.440478-.4112803.7215582-.2945555zM6.3973696 5.1524836c-.2144037.5101548-.7161503.8423202-1.272352.8423202H2.5458138L4.6284184 8.069623c.3704235.3690387.4981808.9150057.3296305 1.408665l-1.1033732 3.2316175 2.935516-1.58221c.4067187-.2192169.8969286-.2210706 1.3053135-.0049362l3.084727 1.6325668-1.1070269-3.2817991c-.1654031-.4903403-.0390809-1.0314774.3266518-1.399305l2.0675746-2.079418h-2.696337c-.5537567 0-1.053796-.3292891-1.2697455-.8361611L7.4408818 2.6695376l-1.0435123 2.482946z"/></svg>