<?xml version="1.0" standalone="no"?>
<!DOCTYPE svg PUBLIC "-//W3C//DTD SVG 20010904//EN"
 "http://www.w3.org/TR/2001/REC-SVG-20010904/DTD/svg10.dtd">
<svg version="1.0" xmlns="http://www.w3.org/2000/svg"
 width="555.000000pt" height="555.000000pt" viewBox="0 0 555.000000 555.000000"
 preserveAspectRatio="xMidYMid meet">
<metadata>
Created by potrace 1.16, written by Peter Selinger 2001-2019
</metadata>
<g transform="translate(0.000000,555.000000) scale(0.100000,-0.100000)"
fill="#000000" stroke="none">
<path d="M2205 5509 c-43 -48 -55 -77 -50 -118 2 -17 -1 -34 -8 -38 -13 -9
-37 -48 -37 -61 0 -15 39 -11 52 6 12 15 11 16 -5 3 -25 -19 -34 -5 -12 19 27
29 43 25 51 -14 6 -36 -1 -60 -16 -51 -4 3 -6 -3 -3 -13 3 -11 -7 -30 -24 -49
-66 -70 -104 -147 -70 -141 13 3 13 -5 1 -36 -5 -14 -4 -17 4 -12 7 4 12 2 12
-4 0 -6 -8 -10 -17 -8 -13 2 -17 -6 -20 -42 -1 -25 -10 -59 -19 -76 -13 -24
-15 -38 -7 -60 7 -19 7 -38 1 -54 -5 -14 -11 -45 -13 -70 -5 -69 -16 -120 -26
-120 -5 0 -15 -13 -24 -30 -17 -32 -20 -110 -5 -110 15 0 12 -33 -5 -56 -8
-10 -15 -26 -15 -35 0 -24 -29 -78 -48 -88 -14 -8 -15 -18 -5 -82 5 -41 11
-105 12 -143 2 -46 9 -83 22 -109 15 -29 21 -65 25 -150 3 -62 7 -119 9 -127
3 -9 1 -31 -5 -49 -5 -19 -6 -39 -1 -45 19 -25 38 -101 29 -116 -6 -9 -6 -25
1 -42 8 -22 15 -26 38 -22 20 3 24 2 13 -5 -8 -5 -18 -7 -24 -4 -5 4 -7 -1 -3
-11 4 -10 10 -35 13 -57 4 -22 10 -42 14 -44 5 -3 14 -52 21 -110 7 -59 17
-105 23 -105 6 0 5 -4 -2 -9 -11 -7 -11 -15 2 -45 10 -25 13 -44 7 -55 -17
-31 4 -92 27 -77 4 2 6 -50 5 -117 -1 -68 2 -126 8 -133 12 -15 38 -163 40
-229 0 -27 0 -101 -1 -163 -1 -75 2 -117 10 -127 6 -8 9 -18 6 -23 -12 -19
-16 -192 -5 -219 6 -15 12 -48 15 -73 8 -99 16 -154 24 -169 11 -21 25 -91 22
-114 -1 -10 7 -35 17 -55 10 -20 24 -63 32 -95 8 -37 19 -62 31 -68 10 -5 18
-20 18 -32 0 -13 5 -28 12 -35 7 -7 9 -12 6 -12 -9 0 22 -73 34 -81 5 -3 13
-24 18 -45 6 -25 26 -58 55 -89 25 -27 45 -56 45 -63 0 -8 10 -28 22 -45 34
-47 27 -87 -25 -154 -25 -32 -67 -98 -93 -148 -45 -87 -172 -282 -294 -454
-33 -46 -60 -88 -60 -93 0 -4 132 -8 294 -8 l294 0 7 27 c3 15 9 23 13 17 4
-5 19 -17 35 -27 25 -16 61 -17 401 -17 l373 1 29 30 c15 16 32 29 38 29 5 0
-3 -14 -19 -30 -36 -37 -19 -40 21 -3 18 17 24 28 16 31 -17 5 -15 22 5 44 21
24 25 61 6 53 -8 -3 -17 -5 -19 -5 -3 0 -2 -5 2 -12 4 -6 3 -8 -3 -5 -6 4 -17
-1 -24 -10 -12 -14 -11 -15 11 -9 24 7 24 7 -3 -12 -16 -11 -42 -36 -59 -56
-17 -20 -33 -35 -36 -32 -3 3 3 15 13 26 12 13 14 20 5 20 -7 0 -2 9 11 20
l24 20 -37 -16 c-20 -10 -39 -22 -41 -28 -2 -6 -2 0 0 14 4 24 57 80 77 80 6
0 -5 -13 -24 -30 -43 -36 -31 -40 14 -5 18 14 37 25 42 25 5 0 15 9 22 20 7
11 18 20 26 20 8 0 19 14 25 30 8 24 7 30 -5 30 -7 0 -14 4 -14 10 0 5 -6 9
-12 7 -7 -1 -12 3 -11 10 2 7 -2 24 -7 38 -12 31 8 35 30 5 21 -29 38 -25 47
11 l8 31 20 -23 c11 -12 15 -19 8 -16 -6 4 -14 3 -18 -3 -4 -6 5 -10 20 -10
15 0 24 4 20 10 -11 17 14 11 34 -9 12 -12 23 -16 32 -10 11 7 11 9 -2 9 -9 0
-19 7 -23 15 -3 8 -13 15 -23 15 -14 0 -15 2 -4 13 11 10 14 9 18 -1 3 -6 9
-10 14 -6 5 3 9 0 9 -7 0 -6 8 -9 20 -6 10 3 20 1 22 -5 2 -5 19 -11 38 -14
19 -3 40 -12 47 -21 6 -8 16 -12 22 -9 5 3 12 -2 14 -11 4 -14 5 -13 6 5 0 12
7 22 14 22 6 0 4 5 -5 11 -10 5 -18 14 -18 18 0 10 90 29 108 23 17 -5 15 -29
-3 -36 -8 -3 -15 -13 -14 -23 0 -16 1 -16 9 2 5 11 9 16 9 11 1 -5 7 -3 15 3
11 9 16 9 22 0 4 -8 3 -9 -4 -5 -7 4 -12 3 -12 -1 0 -5 26 -9 57 -10 38 -1 52
2 42 8 -8 5 -9 9 -4 9 6 -1 19 -7 29 -15 31 -23 89 -19 119 9 14 13 29 21 32
18 3 -4 3 2 -1 13 -6 14 -4 17 8 13 8 -4 21 2 28 12 8 11 17 17 22 14 4 -3 8
1 8 9 0 8 11 17 25 19 13 3 22 1 19 -3 -3 -5 -11 -9 -18 -9 -8 0 -16 -10 -18
-23 -6 -29 6 -65 15 -50 7 12 47 6 47 -6 0 -4 7 -16 16 -27 14 -18 15 -18 4 5
-9 17 -9 26 -1 34 17 17 13 31 -4 17 -19 -15 -19 -1 -1 23 9 12 16 14 21 8 8
-14 75 -14 75 -1 0 6 5 10 11 10 8 0 7 -5 -1 -15 -16 -20 -5 -32 14 -16 8 7
17 8 20 3 7 -12 -31 -43 -47 -37 -8 4 -13 -3 -14 -17 0 -13 1 -17 4 -10 3 6
16 12 29 12 17 0 24 -6 24 -20 0 -11 -5 -20 -11 -20 -6 0 -18 -8 -27 -17 -16
-16 -16 -16 3 -9 45 18 58 20 49 5 -6 -10 0 -8 19 4 15 9 27 13 27 8 0 -6 -8
-15 -17 -20 -10 -6 -15 -11 -10 -11 4 0 0 -12 -10 -26 -9 -15 -16 -42 -15 -60
2 -19 -2 -34 -8 -34 -5 0 -10 5 -10 11 0 5 -4 7 -10 4 -5 -3 0 -16 13 -29 12
-13 24 -22 26 -19 3 2 20 -11 39 -29 19 -18 31 -26 27 -18 -8 13 -7 13 8 1 29
-23 31 -4 2 25 l-27 27 33 -7 c25 -5 31 -4 22 5 -15 15 11 44 28 33 8 -4 9 -3
5 4 -4 7 -14 12 -22 12 -8 0 -14 7 -14 16 0 8 5 12 10 9 13 -8 13 8 1 20 -6 6
-6 28 -2 53 8 39 7 42 -8 29 -16 -14 -51 -12 -51 3 0 4 10 6 23 2 20 -5 21 -4
7 13 -8 10 -10 16 -4 13 5 -4 23 4 40 18 16 13 21 21 11 18 -24 -8 -22 13 3
26 11 6 19 14 19 18 -5 29 3 42 24 41 16 -1 18 -2 5 -6 -22 -6 -23 -17 -3 -33
13 -11 19 -10 35 7 10 12 16 24 13 27 -4 3 1 6 10 6 9 0 17 -4 17 -9 0 -5 17
-19 37 -31 29 -17 34 -23 22 -31 -12 -8 -11 -12 5 -24 11 -8 28 -15 37 -15 10
0 21 -5 25 -12 5 -8 2 -9 -10 -5 -10 4 -25 7 -34 7 -10 0 -28 10 -42 23 -43
38 -78 53 -93 37 -10 -10 -9 -12 6 -7 10 4 26 1 36 -5 14 -9 17 -17 11 -38 -9
-31 -3 -43 23 -53 20 -7 23 -27 4 -27 -7 0 -23 14 -35 30 -26 35 -49 41 -32 9
11 -19 10 -20 -9 -10 -17 10 -20 9 -14 -5 5 -15 2 -16 -25 -11 -23 5 -32 3
-32 -7 0 -13 56 -46 78 -46 6 0 22 -21 36 -47 20 -35 22 -43 8 -30 -29 26 -50
22 -25 -5 22 -25 36 -68 22 -68 -5 0 -9 4 -9 10 0 5 -9 14 -20 20 -16 9 -18 8
-14 -5 5 -13 2 -14 -21 -5 -39 15 -47 12 -33 -10 12 -19 24 -20 401 -20 l387
0 0 860 c0 603 -4 859 -11 854 -6 -3 -9 -15 -6 -25 3 -11 1 -19 -4 -19 -5 0
-8 -3 -8 -7 3 -20 -2 -34 -11 -28 -5 3 -10 26 -10 50 0 38 3 45 23 50 19 5 23
13 25 51 1 29 -3 44 -11 44 -16 0 -20 -62 -4 -72 8 -5 7 -8 -4 -8 -18 0 -29
38 -29 98 0 48 -10 35 -15 -19 -5 -59 -22 -132 -24 -100 0 13 -9 31 -19 40
-11 9 -21 23 -25 31 -4 12 -6 12 -6 -2 -1 -9 3 -20 9 -23 5 -3 15 -15 21 -27
8 -15 8 -19 0 -14 -6 4 -11 3 -11 -3 0 -5 5 -11 11 -13 8 -3 6 -10 -5 -20 -20
-21 -21 -39 -1 -32 20 8 19 -6 -2 -22 -23 -17 -30 -17 -36 0 -4 10 -1 13 9 9
10 -4 12 0 8 11 -4 11 -11 13 -22 7 -22 -12 -23 -82 -2 -89 13 -4 13 -3 2 10
-9 11 -10 18 -2 23 5 3 10 1 10 -6 0 -7 11 -2 25 11 14 13 25 20 25 16 0 -4
-15 -22 -34 -40 -36 -36 -76 -129 -50 -119 8 3 14 17 14 32 0 17 13 38 37 61
21 19 32 27 24 18 -7 -10 -10 -26 -6 -39 5 -14 3 -19 -3 -15 -6 4 -16 -2 -21
-13 -14 -25 -14 -44 0 -36 6 4 5 -2 -3 -14 -14 -23 -28 -28 -28 -10 0 7 -8 6
-22 -4 -13 -8 -22 -20 -20 -27 3 -15 -34 -94 -53 -110 -8 -7 -15 -21 -15 -31
0 -11 -7 -19 -15 -19 -8 0 -15 -4 -15 -10 0 -5 6 -10 13 -10 8 0 7 -3 -3 -10
-8 -5 -19 -5 -25 0 -6 5 -17 5 -24 1 -10 -7 -10 -9 2 -14 21 -8 11 -42 -16
-56 -20 -10 -20 -11 -2 -8 11 1 26 15 33 30 14 29 27 35 35 15 4 -10 6 -10 6
0 1 6 9 12 18 12 15 0 15 -1 1 -13 -8 -6 -18 -20 -22 -31 -5 -15 -2 -17 14
-13 11 3 20 1 20 -4 0 -5 -5 -9 -11 -9 -17 0 -38 -31 -38 -55 0 -16 3 -14 16
10 10 18 18 25 21 17 2 -7 -2 -19 -8 -28 -11 -12 -10 -13 4 -8 18 7 22 -11 5
-22 -6 -3 -8 -17 -5 -30 5 -17 2 -24 -8 -24 -8 0 -17 -4 -20 -9 -3 -4 4 -8 15
-7 11 0 24 8 29 16 9 13 10 13 10 0 0 -25 -17 -43 -34 -37 -9 4 -16 2 -16 -4
0 -6 -5 -7 -10 -4 -6 3 -17 -1 -26 -10 -9 -9 -23 -14 -30 -11 -9 3 -14 -2 -14
-14 0 -21 -20 -38 -21 -18 0 7 -2 21 -4 31 -2 9 2 17 8 17 8 0 7 3 -1 9 -11 6
-11 12 -2 27 15 25 -3 76 -24 68 -10 -4 -14 1 -13 15 1 12 5 21 10 21 5 0 7 7
3 15 -3 8 -1 15 4 15 5 0 7 7 3 16 -6 16 -7 16 -18 0 -15 -20 -25 -21 -25 -1
0 8 -4 15 -10 15 -5 0 -7 -8 -3 -17 4 -14 3 -15 -6 -7 -17 16 -64 5 -57 -13 4
-10 1 -11 -12 -5 -9 5 -23 7 -29 5 -17 -6 -16 5 2 23 13 14 15 14 15 -1 0 -9
4 -14 10 -10 16 10 -1 37 -19 29 -9 -3 -23 -7 -31 -8 -26 -3 -42 -17 -36 -32
6 -17 -15 -19 -31 -3 -8 8 -14 6 -22 -9 -6 -10 -8 -22 -5 -25 3 -3 -3 -3 -15
0 -11 3 -19 9 -16 13 8 13 -18 18 -39 8 -13 -7 -16 -7 -12 1 4 6 2 19 -3 29
-7 13 -6 23 2 33 7 7 2 5 -10 -4 -14 -12 -23 -15 -28 -7 -3 5 -11 8 -16 4 -5
-3 -7 -10 -4 -15 4 -5 1 -9 -5 -9 -7 0 -9 7 -6 15 21 51 21 51 -2 31 -12 -11
-25 -16 -29 -13 -11 12 -32 -14 -26 -31 3 -9 -8 0 -25 22 -18 21 -32 42 -32
47 0 5 -7 6 -15 3 -8 -4 -15 -10 -15 -15 0 -4 8 -6 18 -2 15 6 15 4 -2 -15
-23 -27 -27 -28 -19 -4 6 14 4 15 -9 4 -13 -10 -17 -10 -22 4 -9 24 -7 28 9
14 24 -20 17 -2 -10 28 -19 20 -24 22 -19 8 6 -15 4 -17 -7 -11 -11 7 -12 6
-2 -7 7 -8 10 -18 6 -21 -3 -4 -1 -7 5 -7 7 0 12 -5 12 -10 0 -7 -6 -7 -19 -1
-15 8 -20 7 -25 -5 -10 -25 -7 -36 7 -28 9 6 9 5 0 -8 -7 -8 -12 -17 -10 -19
4 -9 -18 20 -31 38 -11 16 -12 15 -9 -13 2 -22 -2 -35 -15 -43 -13 -8 -17 -18
-13 -31 4 -14 2 -20 -8 -20 -16 0 -12 35 4 46 17 10 -10 42 -31 37 -11 -3 -17
-9 -14 -14 3 -5 9 -7 14 -4 5 3 12 0 16 -6 5 -8 3 -9 -6 -4 -9 5 -10 1 -6 -16
5 -17 -1 -12 -17 14 -35 55 -40 56 -35 10 2 -24 0 -43 -4 -43 -5 0 -8 5 -8 10
0 6 -5 10 -11 10 -5 0 -7 -5 -3 -12 4 -7 3 -8 -4 -4 -7 4 -12 3 -12 -3 0 -17
-26 -1 -40 24 -10 18 -17 22 -25 15 -16 -14 -45 -2 -46 19 -1 9 -4 5 -8 -9
l-7 -25 -8 23 c-4 12 -12 22 -18 22 -7 0 -6 -5 1 -14 9 -11 9 -20 2 -35 -8
-13 -8 -22 -1 -26 6 -4 10 -3 9 2 -6 34 21 41 40 11 11 -18 10 -18 -9 -8 -20
11 -21 10 -15 -12 11 -34 45 -79 56 -73 13 9 58 -27 59 -47 0 -22 -20 -34 -30
-18 -6 10 -10 9 -16 -1 -5 -8 -26 -22 -47 -31 -42 -20 -51 -22 -43 -10 7 12
-38 9 -46 -3 -5 -6 -8 -5 -8 4 0 7 -6 11 -15 7 -8 -3 -15 0 -15 6 0 7 -5 6
-15 -2 -13 -10 -15 -9 -15 9 0 11 -4 21 -10 21 -5 0 -7 -7 -4 -15 4 -8 1 -15
-5 -15 -6 0 -11 5 -11 11 0 7 -12 10 -29 7 -18 -3 -28 0 -24 5 4 6 -3 8 -15 5
-12 -4 -25 -2 -28 4 -3 5 -14 2 -25 -8 -11 -9 -22 -14 -26 -11 -3 4 -12 2 -20
-4 -10 -9 -13 -8 -13 0 0 8 -6 7 -16 -4 -13 -12 -19 -13 -31 -3 -11 9 -16 9
-22 -1 -6 -10 -10 -9 -15 4 -3 9 -4 21 0 26 3 5 -1 9 -8 9 -10 0 -10 2 1 9 7
5 11 13 7 19 -3 5 3 21 14 33 11 13 19 19 20 14 0 -6 -5 -16 -12 -23 -9 -9 -9
-15 -1 -23 6 -6 9 -18 6 -25 -3 -8 -1 -14 5 -14 5 0 13 7 16 16 3 9 15 14 28
12 16 -2 24 3 26 17 2 11 9 25 14 30 7 7 9 4 6 -10 -4 -15 0 -21 13 -21 13 0
19 8 20 26 1 24 2 24 8 -3 l6 -29 24 21 c30 27 35 26 20 -1 -10 -18 -9 -20 4
-15 9 3 18 1 21 -6 2 -7 5 -5 5 5 1 26 21 32 37 12 10 -13 12 -14 9 -3 -3 8 3
23 14 33 20 18 21 18 30 -8 6 -14 15 -26 21 -26 17 0 11 16 -16 44 -20 19 -23
26 -11 26 9 0 18 -9 22 -19 3 -11 13 -22 21 -25 8 -3 12 -10 9 -16 -3 -5 -1
-10 4 -10 6 0 11 11 11 25 0 14 5 25 10 25 7 0 7 6 0 20 -6 11 -18 20 -26 20
-10 0 -14 6 -11 15 4 8 2 17 -4 20 -5 4 -12 0 -15 -8 -3 -8 -14 -17 -25 -20
-17 -5 -17 -2 5 18 28 26 32 35 16 35 -5 0 -10 -7 -10 -15 0 -8 -5 -15 -10
-15 -6 0 -3 14 6 32 14 27 18 29 26 15 11 -20 28 -14 28 10 0 9 -6 13 -14 10
-11 -4 -13 -1 -9 11 3 9 -9 0 -27 -21 -32 -38 -58 -39 -44 -2 7 18 8 18 15 -1
6 -16 8 -16 8 -2 2 30 -17 29 -39 -2 -13 -19 -17 -30 -9 -30 7 0 9 -3 5 -7 -4
-5 -14 0 -21 10 -11 16 -9 22 22 52 19 19 33 40 30 47 -3 8 -9 2 -17 -14 -14
-29 -47 -40 -36 -12 3 8 2 12 -4 9 -6 -3 -10 -14 -10 -24 0 -9 -7 -26 -15 -37
-13 -18 -14 -18 -8 6 l6 25 -22 -25 c-19 -22 -21 -22 -12 -3 14 29 -14 41 -31
13 -26 -41 -28 -18 -3 26 14 26 24 49 21 51 -3 3 -11 -6 -17 -21 -8 -17 -15
-22 -20 -15 -4 7 -12 -3 -19 -25 -14 -44 -29 -56 -22 -18 4 26 4 26 -12 7 -8
-11 -16 -15 -17 -10 0 6 -2 20 -3 32 -4 36 -16 40 -16 6 0 -17 6 -36 14 -42
12 -10 12 -19 1 -62 -15 -55 -31 -83 -20 -34 4 17 9 37 11 47 3 9 0 19 -6 23
-6 3 -8 10 -5 15 3 5 1 11 -4 15 -6 3 -8 12 -4 20 4 12 1 13 -13 8 -50 -20
-81 -49 -102 -94 -23 -49 -39 -62 -39 -35 0 8 3 15 6 14 21 -2 22 4 5 18 -10
8 -14 13 -8 10 7 -3 12 4 12 20 l0 25 -27 -25 c-15 -15 -30 -24 -33 -21 -3 4
-16 -8 -28 -24 -12 -17 -26 -31 -32 -31 -6 0 -3 9 7 20 9 10 15 26 12 34 -4
10 -1 13 7 10 8 -3 17 0 21 6 6 9 10 9 17 -1 6 -10 7 -7 3 8 -5 18 -1 25 19
35 28 12 33 23 14 34 -7 4 -8 3 -4 -4 10 -17 -28 -34 -43 -19 -9 8 -11 8 -9 1
4 -14 -48 -64 -66 -64 -7 0 -19 -11 -26 -25 -13 -25 -30 -34 -30 -16 0 5 7 12
16 15 9 4 14 9 10 13 -3 4 -20 -7 -36 -22 -27 -26 -29 -30 -13 -36 10 -4 24
-2 31 3 8 7 12 7 12 0 0 -18 -17 -23 -44 -12 -21 8 -28 5 -46 -18 -26 -32 -9
-43 23 -16 22 19 22 19 4 -2 -17 -20 -117 -80 -117 -70 0 2 17 15 37 27 20 13
31 25 25 27 -14 4 36 73 81 110 15 13 27 29 27 35 0 8 -3 8 -8 2 -14 -19 -49
-33 -62 -25 -8 5 -22 4 -31 -1 -25 -13 -33 -11 -20 5 10 11 7 18 -11 30 -13
10 -24 12 -26 6 -6 -18 -40 -11 -45 10 -3 11 -10 20 -16 20 -8 0 -9 -6 -1 -19
15 -28 12 -35 -7 -20 -9 8 -36 14 -61 14 -30 0 -47 5 -50 14 -2 8 0 11 5 8 5
-3 9 2 9 12 0 10 -6 18 -12 18 -7 0 -10 -6 -7 -14 3 -7 0 -13 -6 -13 -19 0 11
-39 37 -48 20 -6 21 -10 10 -25 -17 -23 -48 -13 -48 16 0 11 -3 17 -7 13 -10
-10 -13 -36 -3 -36 4 0 10 -14 14 -31 3 -17 10 -28 15 -25 19 12 40 -6 38 -32
-2 -18 -13 -34 -34 -47 -18 -11 -35 -32 -38 -47 -4 -16 -12 -31 -18 -35 -20
-13 -17 -43 5 -43 10 0 16 -5 13 -10 -3 -6 -15 -10 -26 -10 -21 0 -26 -16 -6
-23 7 -3 5 -6 -5 -6 -10 -1 -18 -9 -18 -18 0 -14 -3 -13 -16 5 -9 14 -22 21
-31 18 -8 -4 -11 -1 -7 5 3 6 15 9 25 6 11 -3 19 -1 19 4 0 5 -10 9 -22 9 -13
0 -18 4 -13 8 6 4 12 20 13 36 1 21 -2 27 -12 23 -8 -3 -17 1 -20 10 -9 21 3
31 14 13 8 -12 10 -10 10 8 0 12 -4 22 -10 22 -5 0 -10 5 -10 11 0 6 9 8 20 4
11 -4 20 -2 20 4 0 6 -6 11 -13 11 -8 0 -22 9 -32 20 -19 21 -19 21 13 15 42
-7 40 6 -4 27 -28 13 -34 13 -30 2 3 -8 1 -14 -4 -14 -6 0 -10 9 -10 20 0 13
7 20 20 20 22 0 26 17 9 40 -9 13 -10 12 -5 -3 8 -26 -6 -19 -38 20 -27 31
-28 36 -13 45 24 13 21 31 -3 23 -11 -4 -20 -2 -20 4 0 6 10 11 22 11 l22 0
-22 20 c-12 11 -27 19 -33 18 -20 -5 -21 19 0 25 19 5 49 -26 64 -66 4 -11 12
-15 19 -11 8 5 9 2 5 -10 -4 -10 -7 -19 -7 -21 0 -2 -8 -1 -19 2 -10 3 -22 0
-25 -6 -4 -6 0 -11 8 -11 9 0 16 -6 16 -12 0 -9 3 -9 9 1 8 13 12 13 27 0 16
-12 17 -12 11 4 -7 20 -3 21 24 7 12 -7 19 -7 19 -1 0 5 6 11 13 14 6 2 2 2
-11 0 -22 -3 -52 16 -52 34 0 5 -9 15 -20 23 -11 8 -20 20 -20 26 0 6 -7 17
-15 24 -9 7 -14 19 -11 26 3 7 1 16 -5 19 -5 4 -12 -1 -15 -9 -3 -9 -10 -13
-16 -10 -5 3 -17 -1 -27 -10 -17 -16 -19 -16 -25 0 -4 9 -4 19 -1 22 3 3 5 -1
5 -8 0 -9 6 -8 20 5 30 27 24 35 -21 31 -28 -3 -38 -1 -31 6 7 7 3 23 -12 50
-18 34 -22 37 -24 19 -2 -11 -8 -21 -13 -21 -5 0 -9 32 -9 72 0 71 -7 85 -16
31 -3 -15 -4 -42 -4 -60 0 -17 -4 -34 -9 -37 -5 -4 -8 39 -7 104 2 87 -1 111
-12 115 -19 7 -30 -4 -15 -13 6 -4 15 -20 19 -36 5 -21 4 -27 -4 -22 -8 5 -10
2 -6 -8 4 -9 1 -16 -6 -16 -8 0 -11 11 -8 30 3 16 1 30 -4 30 -4 0 -8 12 -9
28 0 15 -3 21 -6 14 -2 -6 -9 -10 -14 -6 -5 3 -9 0 -9 -5 0 -6 5 -11 11 -11 6
0 8 -9 4 -21 -4 -12 -8 -28 -9 -35 -1 -7 -6 -17 -11 -21 -4 -4 -5 -3 -1 4 3 6
2 14 -2 17 -10 6 -8 68 2 85 4 6 4 16 0 23 -5 7 -11 3 -17 -13 -9 -23 -9 -23
-17 -4 -9 25 -2 47 13 38 7 -4 8 0 4 11 -4 10 -7 20 -7 22 0 2 -7 4 -15 4 -8
0 -15 9 -15 20 0 11 5 20 10 20 6 0 10 14 10 31 0 17 4 28 10 24 6 -3 10 1 10
10 0 9 -4 13 -10 10 -5 -3 -10 -2 -10 4 0 17 18 22 24 6 8 -21 27 -19 19 2
-13 37 -25 44 -39 26 -12 -17 -13 -17 -14 4 0 12 6 23 13 26 10 4 10 7 0 18
-11 11 -13 11 -14 -1 0 -8 -5 -4 -10 9 -5 13 -6 27 -3 30 4 3 9 0 11 -7 4 -10
8 -10 19 -1 19 15 18 30 -1 23 -10 -4 -15 0 -15 15 0 12 -4 21 -10 21 -5 0 -7
-6 -4 -14 3 -8 1 -17 -5 -21 -6 -3 -11 -21 -11 -40 0 -21 -6 -35 -16 -39 -14
-5 -15 -4 -4 9 7 8 10 30 8 50 -3 25 0 34 8 31 7 -3 12 6 12 22 0 14 5 28 11
30 15 5 14 18 -5 37 -25 25 -10 28 19 4 31 -23 35 -19 10 10 -9 11 -20 18 -25
15 -4 -3 -11 2 -14 11 -6 13 -8 14 -15 3 -6 -8 -9 -2 -9 20 0 25 -5 35 -20 39
-11 3 -20 10 -21 17 0 6 -2 21 -3 33 -1 12 1 20 5 17 4 -2 11 1 15 7 5 8 -1
10 -20 7 -14 -3 -26 -1 -26 3 0 9 16 13 34 10 5 -1 3 5 -4 15 -10 11 -16 12
-18 5 -3 -8 -9 -6 -17 5 -10 15 -10 20 1 32 19 19 17 30 -6 37 -15 5 -20 15
-20 40 0 18 -6 36 -12 38 -10 4 -9 8 2 16 13 9 12 11 -3 11 -10 0 -15 5 -12
10 4 6 0 21 -8 34 -11 16 -12 27 -5 40 8 14 7 17 -1 12 -7 -5 -9 2 -5 24 4 19
2 30 -5 30 -8 0 -8 6 1 21 11 17 10 22 -3 32 -9 7 -14 18 -11 26 3 10 0 12
-12 8 -9 -4 -16 -2 -16 4 0 6 -6 7 -12 3 -7 -4 -6 1 3 11 13 13 21 15 37 6 29
-15 30 -14 24 14 -3 19 -9 24 -22 20 -16 -5 -17 -2 -10 30 4 20 4 38 -1 41 -5
3 -9 2 -9 -3 -1 -4 -7 7 -16 26 -8 19 -11 37 -8 40 4 3 9 0 11 -7 3 -7 13 -21
22 -30 10 -9 21 -25 24 -35 4 -10 11 -16 17 -12 12 7 -6 41 -35 67 -16 14 -18
19 -6 27 10 6 12 19 8 41 -6 30 -6 30 11 14 9 -10 26 -27 37 -37 11 -11 14
-17 8 -13 -9 5 -11 2 -7 -8 7 -19 21 -21 26 -5 2 6 19 -3 37 -20 18 -17 42
-31 54 -31 21 0 21 0 -1 21 -13 11 -19 25 -15 32 4 7 -1 6 -11 -2 -15 -13 -19
-13 -27 0 -5 8 -9 17 -9 20 0 10 64 8 76 -2 6 -5 30 -11 53 -13 22 -2 47 -9
55 -15 7 -6 21 -9 30 -5 9 3 16 2 16 -4 0 -6 -6 -13 -12 -15 -8 -3 -6 -6 5 -6
9 -1 17 -5 17 -10 0 -4 19 -7 43 -4 l42 4 -35 -20 c-24 -13 -41 -16 -56 -11
-12 5 -24 7 -26 4 -3 -2 -21 3 -41 11 -41 17 -77 20 -77 5 0 -5 12 -12 28 -16
64 -14 97 -28 118 -51 21 -23 25 -24 58 -12 20 7 36 16 36 20 0 3 18 6 41 5
31 -2 48 -10 72 -34 64 -63 121 -104 151 -108 106 -14 126 -17 126 -24 0 -9
111 0 130 11 9 5 -13 9 -60 10 -70 2 -98 4 -110 9 -3 1 -13 3 -22 5 -10 2 -25
11 -34 20 -9 9 -23 14 -31 11 -8 -3 -18 4 -25 20 -7 14 -17 23 -25 20 -7 -3
-13 -1 -13 4 0 6 4 10 8 10 5 0 9 14 9 30 0 27 -2 29 -17 15 -19 -18 -30 -19
-30 -4 0 5 5 7 10 4 6 -3 10 -1 10 4 0 6 -4 11 -8 11 -10 0 -45 71 -38 77 2 3
25 1 50 -5 25 -5 43 -6 41 -1 -3 4 -1 11 5 14 6 4 8 15 5 26 -11 32 18 22 42
-16 13 -19 35 -42 50 -52 16 -10 31 -21 34 -26 3 -4 17 -3 31 2 14 5 29 7 32
4 3 -4 16 2 28 13 18 15 20 16 9 2 -19 -25 -1 -22 40 5 28 18 64 70 82 121 3
7 15 5 36 -6 18 -10 29 -13 26 -8 -3 6 -3 10 0 10 3 0 11 -13 16 -29 7 -19 16
-28 24 -25 19 8 13 -23 -8 -38 -15 -11 -8 -13 43 -11 50 1 60 -2 61 -15 0 -14
2 -13 9 3 7 17 9 17 9 3 1 -19 8 -21 54 -18 15 1 27 -3 27 -9 0 -6 6 -11 14
-11 22 0 -2 56 -31 71 -13 7 -23 17 -23 22 0 5 7 4 15 -3 8 -6 19 -9 25 -5 6
4 9 1 8 -7 -2 -8 5 -12 20 -11 32 4 65 -15 58 -33 -3 -8 -2 -13 3 -10 5 3 12
-1 15 -10 4 -9 9 -14 13 -10 3 3 15 -2 26 -11 19 -18 20 -17 8 5 -7 13 -10 26
-8 29 7 6 47 -38 47 -51 0 -6 6 -3 13 6 11 14 13 12 14 -17 1 -36 9 -55 23
-55 5 0 3 12 -5 27 -9 17 -11 31 -5 38 5 6 7 20 4 31 -4 14 1 24 18 31 14 7
17 12 8 12 -9 1 -26 -6 -38 -15 -13 -9 -26 -13 -29 -10 -4 3 -2 6 4 6 6 0 13
12 16 26 3 20 -1 27 -19 34 -29 11 -31 30 -4 37 29 8 24 26 -5 21 -14 -3 -28
-1 -31 3 -3 5 4 9 14 9 11 0 26 7 33 17 13 15 12 15 -8 4 -17 -8 -28 -9 -43
-1 -11 6 -20 13 -20 16 0 3 4 3 9 0 4 -3 16 3 26 14 18 19 8 29 -10 11 -16
-15 -59 -25 -51 -12 6 10 -6 15 -26 12 -4 0 -5 6 -2 14 5 11 1 14 -12 9 -16
-5 -16 -4 -4 5 8 6 11 11 5 11 -5 0 -4 4 3 9 10 6 7 12 -13 25 -26 17 -26 17
-16 -3 8 -14 8 -22 -1 -27 -7 -4 -8 -3 -4 5 4 6 0 14 -11 17 -33 11 -63 27
-58 32 2 3 11 -1 20 -8 17 -14 50 -6 40 11 -4 6 -14 8 -23 4 -9 -3 -13 -3 -9
1 4 4 -5 16 -20 26 -35 22 -23 23 20 2 18 -9 27 -11 20 -4 -6 7 -9 18 -7 25 3
7 -4 15 -15 18 -12 3 -19 1 -15 -4 9 -15 -6 -10 -43 13 -23 13 -53 21 -84 22
-37 1 -48 4 -44 15 4 10 -1 12 -19 7 -13 -3 -26 -3 -28 2 -7 15 -67 42 -73 32
-3 -5 -11 -10 -16 -10 -6 0 -8 4 -4 9 3 5 0 13 -6 17 -8 4 -9 3 -5 -4 9 -15 1
-15 -25 -2 -13 8 -19 7 -19 -1 0 -17 -85 -5 -105 14 -16 16 -51 17 -75 2 -5
-3 -10 -2 -10 4 0 5 8 15 18 21 14 9 13 10 -8 3 -32 -9 -109 -5 -129 8 -12 8
-10 9 9 5 l25 -6 -26 13 c-14 6 -34 18 -43 26 -15 12 -16 12 -10 -5 5 -17 4
-17 -8 -4 -7 8 -24 14 -38 12 -21 -2 -22 -1 -10 9 13 9 12 10 -2 5 -10 -3 -18
0 -18 6 0 6 -2 9 -5 6 -11 -11 8 -38 26 -38 10 0 19 -4 19 -9 0 -15 -18 -23
-25 -11 -4 6 -12 7 -18 4 -7 -4 -9 -4 -5 1 4 4 1 20 -8 36 -15 29 -31 41 -21
15 3 -8 -5 -18 -19 -25 -13 -6 -24 -15 -24 -20 0 -10 -118 -6 -128 4 -3 3 2 5
11 5 22 0 132 49 125 55 -3 3 -26 -4 -52 -15 -59 -25 -71 -25 -73 0 -1 11 2
20 8 20 5 0 9 -7 9 -16 0 -14 2 -14 16 1 24 24 3 43 -30 27 -20 -9 -25 -8 -30
5 -5 12 -1 14 13 10 11 -3 25 1 32 9 6 8 16 11 22 7 6 -4 7 -1 3 6 -5 7 -10
10 -13 7 -3 -2 -24 1 -47 8 -23 7 -51 10 -61 6 -11 -4 -23 -5 -28 -3 -4 2 -6
0 -5 -5 2 -5 -10 -22 -26 -36 -15 -15 -25 -30 -21 -34 4 -4 10 -1 12 6 3 6 9
12 15 12 6 0 7 -7 4 -16 -4 -12 -1 -14 14 -9 33 11 22 -12 -11 -24 -39 -13
-42 -14 -34 -1 4 6 -8 10 -29 10 -20 0 -36 -4 -36 -10 0 -5 6 -7 13 -4 7 2 25
-5 40 -16 21 -17 25 -25 17 -39 -5 -10 -6 -21 -3 -25 3 -3 0 -6 -8 -6 -12 0
-11 -2 1 -10 12 -7 12 -12 3 -21 -9 -9 -16 -9 -26 -1 -8 7 -17 9 -20 5 -12
-11 -8 -23 8 -23 8 0 15 -3 15 -8 0 -4 -16 -7 -35 -6 -29 2 -35 -1 -35 -19 0
-11 -3 -18 -6 -15 -7 7 -12 33 -14 73 l-2 30 -8 -30 -8 -30 -1 36 c0 20 -8 42
-16 49 -8 7 -15 18 -15 24 0 6 7 2 15 -8 8 -11 15 -18 16 -15 6 33 5 88 -2 83
-5 -3 -9 0 -9 5 0 17 18 13 29 -6 5 -10 13 -14 18 -10 4 5 -2 16 -13 26 -29
23 -41 61 -19 61 9 0 14 4 10 9 -3 5 3 16 14 23 10 7 19 25 19 41 0 34 4 39
26 31 21 -8 14 -51 -11 -69 -9 -7 -17 -27 -18 -46 -2 -19 -1 -26 2 -16 2 9 8
17 13 17 4 0 6 8 3 18 -3 12 1 19 11 19 9 0 16 -5 16 -12 0 -6 8 -11 19 -11
10 0 17 6 14 12 -5 14 32 29 47 19 5 -3 10 1 10 10 0 11 -5 15 -15 11 -8 -3
-15 -1 -15 4 0 5 8 11 18 13 10 3 5 5 -12 6 -23 1 -27 -2 -23 -18 6 -23 -22
-38 -34 -19 -5 8 -2 16 9 20 13 5 14 7 2 7 -13 1 -13 2 0 11 13 8 12 11 -5 24
-11 8 -23 12 -27 9 -5 -2 -11 3 -14 12 -5 13 -9 13 -22 3 -13 -11 -14 -10 -3
10 6 12 9 22 6 22 -3 0 -1 9 5 20 13 24 2 27 -15 4 -11 -16 -12 -16 -18 0 -4
10 -3 14 2 11 6 -3 14 3 20 12 8 14 12 16 22 5 16 -15 29 -16 29 -2 0 6 -7 10
-15 10 -21 0 -19 27 3 34 11 3 8 5 -8 4 -57 -1 -61 1 -50 21 13 26 13 34 -2
25 -8 -5 -9 -2 -5 9 4 11 1 17 -9 17 -8 0 -12 5 -9 10 3 6 16 8 28 5 18 -5 22
-2 22 20 0 15 -6 25 -15 26 -11 0 -11 2 -2 6 7 3 18 0 25 -6 10 -7 18 -5 29 9
9 10 14 20 12 23 -3 2 5 7 16 10 13 3 23 0 27 -9 6 -17 34 -19 32 -1 -4 31 1
40 15 28 11 -9 15 -9 19 1 3 7 4 3 4 -9 -1 -25 -7 -28 -25 -13 -9 7 -9 7 -2
-2 15 -19 12 -28 -10 -28 -14 0 -20 -6 -18 -16 2 -10 -3 -19 -11 -22 -8 -3
-11 0 -7 6 3 6 0 13 -6 16 -11 5 -11 7 0 12 13 6 7 24 -9 24 -5 0 -9 -13 -9
-30 0 -25 -4 -30 -25 -30 -14 0 -25 -4 -25 -9 0 -5 11 -8 25 -6 14 1 25 -3 25
-9 0 -8 2 -8 8 0 8 12 43 28 56 25 5 -1 6 5 3 14 -4 9 -1 15 8 15 9 0 15 -10
15 -25 0 -17 -6 -25 -17 -25 -9 0 -14 -3 -10 -6 3 -4 14 -3 24 1 10 5 23 7 29
6 7 -1 17 12 22 29 6 16 7 30 3 30 -5 0 -11 -9 -14 -20 -3 -11 -11 -20 -19
-20 -11 0 -11 2 1 9 9 6 11 20 6 49 -4 27 -3 42 6 48 8 4 10 3 5 -4 -4 -7 -3
-19 2 -27 7 -13 10 -12 20 10 9 19 9 24 1 19 -9 -5 -10 1 -5 21 17 67 18 86 6
100 -11 13 -10 15 6 9 17 -5 18 -5 2 8 -9 8 -16 21 -16 29 1 7 0 28 -1 44 -1
23 -4 26 -11 15 -11 -18 -17 -12 -24 25 -3 17 -1 32 7 37 9 6 8 8 -2 8 -11 0
-9 4 5 15 10 8 14 15 8 15 -19 0 -31 -23 -30 -58 0 -19 -4 -38 -11 -44 -9 -7
-11 -2 -11 19 1 40 -11 75 -24 67 -7 -4 -8 -2 -4 5 6 9 11 9 21 1 11 -9 13 -5
10 22 -2 18 -4 35 -5 38 -5 12 3 46 13 59 10 12 9 14 -5 8 -12 -4 -15 -2 -11
9 3 9 -1 14 -13 14 -17 0 -17 1 1 14 24 18 42 15 90 -14 43 -27 48 -27 51 -8
1 8 -11 14 -29 15 -38 3 -52 16 -42 40 5 10 9 34 9 53 1 23 6 35 15 35 8 0 16
5 18 12 3 7 -4 9 -18 6 -12 -3 -24 -14 -26 -24 -3 -11 -11 -16 -21 -13 -16 5
-16 5 0 -5 17 -11 14 -56 -3 -45 -5 3 -9 1 -9 -5 0 -5 6 -12 13 -14 6 -3 2 -6
-10 -6 -12 -1 -30 -4 -40 -7 -14 -5 -15 -4 -4 4 8 6 15 19 16 29 0 10 4 24 8
30 4 7 -1 14 -13 18 -11 3 -20 11 -20 16 0 6 9 8 20 4 11 -3 28 -1 37 5 16 10
16 10 -3 5 -12 -3 -26 0 -33 9 -9 11 -8 14 6 12 10 0 18 6 18 14 0 8 -6 14
-14 12 -12 -3 -12 -1 -1 13 11 13 15 13 21 3 5 -7 9 -8 9 -3 0 6 -5 16 -11 22
-7 7 -6 15 5 25 13 14 12 17 -10 28 -13 8 -24 17 -24 22 0 5 4 7 9 3 5 -3 12
-1 16 5 3 5 1 10 -6 10 -6 0 -1 9 12 21 16 14 19 19 7 15 -9 -3 -19 0 -22 7
-2 7 -5 3 -5 -8 -1 -15 -4 -16 -13 -7 -23 23 5 36 46 21 24 -9 33 -16 26 -23
-13 -13 -13 -36 1 -36 5 0 7 5 4 10 -3 6 1 10 10 10 10 0 13 5 9 12 -4 7 -3 8
4 4 7 -4 12 -3 12 3 0 6 7 8 15 5 8 -3 19 -2 26 2 7 4 32 9 56 11 35 3 43 1
37 -9 -5 -8 2 -6 16 4 14 9 24 23 24 32 -1 8 3 14 10 13 6 -1 11 5 11 14 0 22
24 49 44 49 13 0 14 2 1 9 -8 6 -18 7 -22 5 -4 -3 -5 2 -2 10 3 9 10 16 16 16
5 0 6 -4 3 -10 -3 -5 -1 -10 5 -10 7 0 10 7 6 15 -3 10 8 25 35 45 33 23 36
28 17 26 -37 -5 -80 -25 -74 -35 4 -5 -5 -19 -20 -30 -20 -16 -29 -18 -38 -8
-10 9 -9 15 6 31 10 11 18 23 18 28 0 4 5 8 11 8 6 0 1 -13 -11 -30 -15 -22
-17 -28 -6 -24 13 5 29 34 31 57 0 4 14 18 30 32 24 19 26 24 12 25 -12 0 -16
-4 -11 -12 4 -7 4 -10 -1 -6 -4 4 -15 2 -24 -5 -14 -10 -14 -10 -4 4 7 9 10
19 6 22 -3 4 3 7 15 7 16 0 20 5 16 18 -5 16 -5 16 9 0 16 -21 34 -23 39 -6 4
12 12 14 68 22 19 3 27 2 18 0 -42 -12 -12 -21 59 -17 78 4 165 24 215 49 39
20 43 1 6 -30 -18 -14 -27 -26 -21 -26 6 0 16 7 23 15 6 8 15 14 18 13 4 0 19
0 35 1 26 1 27 2 14 24 -9 14 -11 31 -7 47 8 24 8 24 9 -6 1 -29 26 -61 61
-78 13 -7 13 -6 0 6 -8 7 -24 23 -34 36 -17 19 -17 22 -3 22 10 0 16 -5 14
-11 -1 -6 4 -14 12 -17 10 -3 13 1 8 19 l-6 24 16 -22 c18 -26 45 -30 63 -8 9
11 9 15 1 15 -7 0 -9 5 -6 11 5 6 12 4 21 -8 13 -16 14 -15 9 12 -5 27 -4 28
5 7 5 -13 14 -21 19 -18 5 3 7 -4 4 -16 -3 -17 -2 -19 5 -9 8 11 11 10 15 -5
3 -15 6 -12 12 12 4 17 13 31 20 31 8 0 12 -3 10 -7 -2 -3 6 -12 17 -19 19
-12 20 -11 14 14 -6 25 -5 27 19 21 14 -4 25 -4 25 -1 0 23 -48 90 -90 125
-28 23 -48 45 -45 48 3 3 -9 21 -27 40 -24 26 -28 33 -13 27 11 -4 28 -8 37
-9 9 0 14 -4 12 -8 -3 -4 7 -15 21 -24 14 -9 25 -21 25 -26 0 -7 -5 -6 -13 1
-14 11 -27 5 -27 -13 0 -6 5 -4 11 4 10 13 10 13 6 -1 -3 -9 1 -16 9 -16 8 0
14 4 14 9 0 5 5 6 11 3 6 -4 8 -9 5 -12 -2 -3 22 -31 54 -64 56 -56 61 -59
101 -55 28 3 38 1 28 -5 -8 -5 -27 -9 -43 -9 l-30 0 29 -30 c15 -16 31 -27 35
-25 5 3 34 -23 66 -58 32 -34 61 -61 66 -60 4 2 5 -4 2 -12 -4 -8 -2 -15 4
-15 16 0 23 31 10 49 -6 9 -30 33 -51 54 -22 20 -35 37 -30 37 5 0 15 -6 22
-12 12 -11 13 -10 7 6 -7 19 -6 19 14 1 24 -22 28 -2 6 31 -8 11 -11 26 -7 32
4 7 17 -18 31 -60 31 -98 40 -115 51 -97 4 7 4 16 0 19 -5 3 -12 16 -16 30 -7
25 -6 25 19 -4 14 -16 26 -36 27 -45 0 -10 2 -12 6 -3 2 6 10 9 16 5 7 -4 6 1
-2 10 -8 10 -11 20 -8 24 4 3 -1 12 -11 20 -15 13 -15 14 0 9 9 -3 18 0 20 5
2 6 16 -1 31 -15 26 -24 32 -21 29 15 0 3 3 22 8 43 4 21 4 51 0 67 -7 22 -6
29 3 26 7 -2 12 -10 12 -18 0 -8 16 -27 35 -44 19 -16 39 -36 43 -42 4 -7 17
-18 28 -23 18 -10 20 -8 17 24 -1 19 1 38 5 42 4 4 8 -1 9 -12 0 -10 2 -23 3
-29 2 -5 3 -16 4 -23 0 -7 6 -10 11 -7 6 4 8 11 5 16 -3 5 2 6 11 2 11 -4 15
-3 10 5 -10 16 13 25 30 11 10 -8 18 -9 25 -2 7 7 0 23 -22 49 l-33 39 35 -33
c35 -32 35 -32 54 -12 23 25 42 26 50 0 7 -22 45 -48 45 -30 0 5 -4 10 -10 10
-14 0 -27 29 -33 75 -3 22 -3 32 -1 23 3 -10 9 -18 14 -18 4 0 6 -8 4 -17 -3
-10 2 -27 11 -38 14 -19 15 -19 8 -1 -5 16 -3 18 17 13 l22 -6 -21 20 c-25 23
-28 37 -4 18 15 -12 16 -12 10 3 -3 10 -1 20 6 24 7 4 9 4 5 -1 -4 -4 -1 -14
7 -22 8 -8 20 -22 27 -31 7 -9 22 -24 33 -32 13 -9 11 -4 -6 15 -15 17 -24 37
-22 45 4 13 3 13 -6 0 -7 -9 -11 -10 -11 -3 0 19 17 24 29 9 6 -7 10 -15 8
-17 -2 -2 7 -14 19 -25 l22 -21 4 29 c3 16 0 32 -5 35 -6 3 -7 1 -3 -5 4 -7 3
-12 -3 -12 -5 0 -9 9 -8 20 1 11 2 20 3 20 11 0 67 -36 71 -46 5 -14 25 -20
21 -6 -2 4 0 8 5 10 19 6 27 0 27 -18 0 -11 3 -20 8 -20 4 0 7 11 7 24 0 13
-3 22 -7 19 -5 -2 -8 1 -8 6 0 18 5 26 13 23 4 -1 3 7 -3 18 -7 13 -7 20 0 20
5 0 10 -4 10 -10 0 -5 5 -10 11 -10 6 0 8 8 5 18 -3 9 7 1 24 -18 31 -37 41
-31 14 9 -16 22 -16 23 5 12 11 -7 21 -8 21 -4 0 4 7 -2 16 -13 8 -10 13 -14
10 -7 -4 6 -1 13 5 15 9 3 9 10 0 28 -11 24 -11 24 3 5 28 -36 38 -46 43 -42
2 3 0 14 -6 26 -6 12 -16 30 -22 42 -6 12 -8 23 -6 25 8 8 36 -43 42 -80 6
-31 5 -35 -9 -30 -12 5 -15 2 -10 -10 4 -11 11 -13 24 -6 9 5 21 6 25 2 5 -4
5 -2 2 5 -8 13 1 43 12 43 4 0 5 -14 3 -31 -4 -29 -3 -30 16 -20 31 17 37 13
17 -9 -17 -19 -17 -20 1 -21 10 -1 39 -2 64 -4 25 -2 68 -5 97 -7 30 -2 49 -7
45 -13 -3 -5 2 -4 11 4 14 11 17 11 17 0 0 -8 -14 -24 -31 -35 -28 -20 -29
-22 -10 -27 12 -3 19 -2 16 3 -3 4 3 14 13 21 15 13 16 12 3 -3 -8 -11 -9 -18
-3 -18 6 0 14 5 17 10 3 6 11 10 18 10 6 0 -4 -11 -23 -24 -19 -13 -41 -21
-49 -18 -9 3 -12 1 -7 -7 4 -6 15 -10 24 -9 9 2 17 -3 17 -11 0 -8 7 -16 15
-18 13 -4 13 -3 0 6 -13 9 -13 11 3 11 9 0 33 -23 54 -51 20 -29 39 -47 41
-40 2 6 26 -9 54 -34 44 -40 55 -45 83 -39 24 4 34 2 38 -10 3 -8 15 -14 26
-13 22 1 27 12 11 22 -7 4 -7 12 0 25 8 14 5 19 -13 24 -34 9 -37 8 -37 -16 0
-18 -2 -20 -9 -9 -5 8 -7 20 -5 26 6 13 -50 29 -70 19 -6 -3 -2 2 9 12 20 16
20 16 -5 11 -27 -7 -100 11 -100 24 0 4 5 11 10 14 6 4 7 11 4 17 -4 6 -2 8 4
4 6 -3 34 -8 63 -11 28 -2 57 -9 62 -14 14 -14 -3 -14 -39 -1 -18 7 -31 7 -37
1 -7 -7 -16 -7 -29 0 -12 6 -18 6 -18 -1 0 -10 6 -11 59 -14 16 0 38 -10 50
-20 12 -11 24 -16 28 -12 4 4 1 11 -7 16 -8 6 -10 10 -4 10 6 0 18 -9 25 -20
8 -10 25 -22 39 -25 21 -5 26 -2 27 15 2 22 -1 24 -49 34 -16 4 -28 11 -28 16
0 6 9 6 25 0 37 -14 79 9 43 23 -10 4 -10 6 0 6 8 1 12 21 12 65 l0 64 -44
-16 c-25 -9 -42 -21 -39 -26 4 -5 -1 -6 -12 -2 -31 11 -107 27 -112 22 -2 -2
20 -12 49 -21 29 -10 57 -21 61 -25 10 -9 -69 9 -100 23 -11 5 -26 6 -32 2 -7
-4 -10 -1 -9 7 2 7 -3 12 -9 10 -7 -1 -13 5 -13 15 0 9 -3 14 -6 10 -6 -5 -84
29 -84 37 0 1 7 3 15 3 8 0 15 -4 15 -9 0 -5 5 -6 10 -3 6 3 10 2 10 -3 0 -5
6 -9 13 -10 6 -1 32 -6 57 -11 25 -6 56 -10 70 -9 23 0 22 1 -5 8 -26 6 -22 8
25 10 55 1 118 18 76 19 -25 1 -18 7 19 15 17 4 26 3 20 -1 -11 -9 -16 -43 -6
-43 21 1 28 23 30 88 2 72 -5 86 -29 57 -11 -13 -14 -13 -25 2 -7 10 -11 21
-9 25 8 13 -15 9 -49 -9 -28 -14 -30 -14 -19 -1 7 9 25 19 39 23 15 3 33 15
41 26 13 19 39 28 28 10 -4 -5 0 -12 6 -14 7 -3 3 -6 -9 -6 -12 -1 -25 -6 -29
-12 -5 -9 1 -10 22 -5 37 10 38 10 25 35 -7 12 -7 22 -2 26 6 3 9 37 8 75 l-1
70 -105 -1 c-85 -1 -107 -4 -118 -17 -12 -16 -13 -16 -7 1 6 16 -12 17 -275
17 -155 0 -281 -3 -281 -8 0 -4 11 -24 25 -44 14 -20 25 -40 25 -45 0 -4 -16
16 -36 45 l-35 53 -85 -2 c-65 -1 -87 -5 -95 -18 -9 -14 -10 -14 -5 2 5 16 -3
18 -113 16 l-118 -1 24 -64 c12 -36 23 -75 22 -87 -1 -19 -2 -18 -9 6 -5 16
-13 34 -19 41 -6 7 -13 26 -15 42 -7 54 -14 61 -66 62 -48 1 -49 0 -46 -26 2
-15 9 -40 16 -57 15 -39 23 -108 9 -82 -6 10 -11 27 -12 40 -2 12 -11 37 -20
55 -11 19 -15 42 -12 55 5 17 4 19 -4 7 -7 -10 -11 -11 -11 -2 0 6 -7 12 -15
12 -18 0 -20 -17 -4 -22 7 -2 13 -26 14 -53 2 -49 1 -49 -11 -20 -7 17 -13 24
-14 16 0 -11 -4 -9 -14 5 -9 11 -12 30 -9 47 5 22 2 27 -14 27 -18 0 -19 -4
-12 -42 4 -24 11 -54 15 -67 5 -16 4 -22 -3 -18 -6 4 -16 28 -23 54 -20 79
-21 81 -31 55 -9 -25 -29 -21 -29 5 0 9 -3 14 -6 10 -4 -3 -1 -20 4 -37 6 -17
7 -28 2 -25 -4 3 -11 18 -15 33 -3 18 -13 28 -24 29 -17 1 -18 -2 -11 -28 5
-16 5 -29 1 -29 -5 0 -11 14 -14 30 -6 29 -8 30 -68 30 l-61 0 6 -32 c3 -18 8
-58 10 -88 7 -78 -10 -31 -19 56 -6 49 -10 63 -16 49 -6 -17 -8 -17 -8 -2 -1
14 -11 17 -56 17 -37 0 -55 -4 -55 -12 0 -9 -4 -8 -10 2 -8 12 -11 13 -19 1
-7 -11 -10 -11 -15 0 -3 8 -3 1 0 -16 3 -16 22 -52 41 -80 28 -40 30 -45 10
-26 -14 13 -38 47 -54 77 l-27 53 -147 0 c-154 0 -148 2 -140 -38 1 -2 7 2 14
8 11 8 19 5 38 -15 23 -26 23 -26 2 -13 -13 8 -23 17 -23 22 0 4 -5 5 -10 2
-6 -4 -8 -11 -5 -16 4 -5 2 -9 -2 -9 -5 0 -16 13 -26 29 l-17 30 -355 0 c-276
1 -355 -2 -355 -12 0 -9 -2 -9 -8 -1 -5 8 -61 12 -179 12 l-172 1 -36 -40z
m183 -536 c-12 -27 -30 -60 -41 -75 -11 -15 -18 -30 -15 -34 4 -3 17 10 30 30
33 51 45 44 14 -8 -14 -25 -26 -53 -26 -63 0 -11 -4 -23 -8 -28 -5 -6 -19 -27
-31 -47 -18 -30 -19 -37 -7 -32 9 3 16 10 16 14 0 5 9 11 19 15 10 3 22 17 25
31 4 16 13 24 24 22 9 -2 17 2 17 9 0 7 8 22 18 33 19 22 22 35 7 25 -6 -3 -7
1 -4 9 5 13 8 13 19 2 19 -19 8 -55 -30 -96 -35 -38 -60 -79 -52 -87 7 -6 57
27 57 38 0 5 -7 5 -17 2 -11 -4 -14 -3 -9 5 4 7 15 12 25 12 18 0 41 18 41 33
0 5 -7 4 -15 -3 -13 -11 -14 -10 -9 3 3 8 12 18 20 21 9 3 12 10 9 16 -3 5 -1
18 5 27 15 24 5 -89 -11 -118 -6 -11 -8 -26 -6 -33 3 -7 -8 -21 -24 -32 -29
-19 -39 -44 -18 -44 5 0 7 -5 3 -11 -5 -8 -9 -7 -14 1 -6 10 -14 8 -34 -7 -22
-18 -24 -22 -11 -33 10 -8 19 -9 28 -3 19 16 47 23 47 13 0 -5 -9 -12 -20 -15
-11 -3 -20 -13 -20 -21 0 -17 12 -18 28 -2 9 9 12 9 12 1 0 -12 -35 -27 -47
-20 -5 2 -19 -7 -32 -20 -13 -13 -20 -23 -14 -23 6 0 16 7 23 15 7 8 17 12 22
8 6 -3 1 -14 -13 -25 -21 -17 -21 -19 -4 -13 13 4 7 -5 -15 -23 -19 -17 -48
-42 -65 -56 -16 -14 -34 -26 -40 -25 -5 0 -5 3 2 5 7 3 9 12 6 20 -3 8 0 14 6
14 6 0 19 16 28 35 9 19 20 32 25 29 4 -3 8 0 8 5 0 23 -43 0 -53 -29 -4 -10
-6 -8 -6 6 -1 13 10 29 24 38 14 9 23 22 19 28 -7 10 -84 -66 -84 -84 0 -5 -5
-6 -11 -3 -5 4 -19 -1 -30 -11 -10 -9 -19 -12 -19 -7 0 6 7 13 15 17 10 3 15
19 15 46 0 22 5 40 10 40 6 0 10 5 10 10 0 6 -8 10 -17 10 -16 1 -15 2 2 12
11 6 22 13 24 14 2 2 8 28 12 57 4 29 16 73 28 97 12 24 21 48 21 53 0 5 7 24
16 43 9 19 14 37 11 40 -9 9 84 174 98 174 2 0 -6 -21 -17 -47z m532 -1843
c13 -8 12 -10 -4 -10 -11 0 -16 -3 -12 -7 4 -4 23 -6 44 -6 32 1 34 0 12 -7
l-25 -8 26 -1 c16 -1 29 5 33 15 5 13 9 14 21 4 8 -7 24 -10 35 -7 11 3 18 1
14 -4 -3 -5 5 -9 18 -10 41 -1 72 -9 79 -21 4 -6 15 -8 25 -4 10 4 21 1 25 -6
4 -6 24 -12 43 -12 28 0 33 -3 24 -13 -9 -11 -6 -12 14 -4 20 7 31 5 54 -11
25 -17 26 -19 7 -15 -13 3 -23 0 -23 -6 0 -6 -3 -7 -6 -4 -4 3 -15 2 -25 -3
-12 -7 -20 -7 -24 0 -4 7 -14 6 -28 -1 -16 -9 -22 -9 -25 0 -2 6 -7 9 -12 6
-4 -3 -41 -8 -82 -11 -40 -4 -93 -11 -118 -16 -25 -5 -58 -11 -75 -12 -16 -1
-49 -12 -73 -24 -43 -23 -71 -25 -84 -7 -5 6 -12 5 -17 -5 -6 -8 -12 -12 -15
-10 -2 3 3 14 11 25 11 14 17 16 20 7 3 -6 9 -9 15 -6 6 4 5 10 -3 15 -9 6
-10 12 -4 17 13 9 16 42 4 42 -5 0 -9 9 -9 20 0 12 6 20 13 19 25 -3 37 1 56
20 16 16 26 18 50 11 40 -11 42 8 2 23 -22 8 -26 13 -17 23 13 16 17 16 36 4z
m645 -2355 c49 -3 77 -14 69 -26 -11 -19 22 -3 34 16 12 18 13 17 9 -12 -2
-21 1 -34 11 -38 9 -3 12 0 9 8 -2 7 7 26 20 42 l25 30 -6 -29 c-4 -15 -9 -42
-12 -60 l-5 -31 18 33 c9 17 20 32 25 32 4 0 8 6 8 14 0 7 9 16 20 19 24 6 25
1 4 -59 -13 -38 -13 -48 -3 -55 8 -4 16 -6 18 -3 3 3 -1 9 -9 14 -12 8 -11 10
5 10 15 0 17 2 6 9 -9 6 -10 11 -3 15 6 4 9 13 6 21 -3 7 4 23 15 34 15 15 29
19 60 15 22 -2 42 0 46 6 3 6 11 8 16 4 5 -3 6 -10 3 -16 -5 -7 -2 -8 7 -2 23
14 49 15 49 1 0 -9 3 -8 9 2 6 9 10 10 16 2 5 -9 10 -9 20 -1 10 8 17 5 29
-12 13 -18 16 -19 16 -6 0 14 9 17 48 14 34 -2 50 2 59 13 7 9 13 11 13 5 0
-8 16 -11 45 -9 49 4 65 -10 65 -58 0 -13 9 -34 20 -47 24 -28 24 -25 5 30
-14 41 -20 90 -10 90 44 0 106 -88 104 -149 l-2 -36 -10 38 c-6 20 -14 37 -19
37 -4 0 -3 -11 2 -25 5 -14 6 -25 1 -25 -14 0 -21 -29 -9 -36 7 -5 8 -2 3 6
-5 9 -4 11 4 6 9 -6 9 -11 0 -23 -12 -13 -14 -13 -25 1 -14 20 -24 20 -24 1 0
-8 5 -15 10 -15 6 0 10 -5 10 -11 0 -7 -9 -9 -24 -5 -15 4 -28 0 -36 -9 -13
-16 -35 -21 -25 -6 3 5 1 12 -5 16 -5 3 -10 -1 -10 -10 0 -9 -5 -13 -10 -10
-6 4 -7 11 -4 17 4 7 2 8 -4 4 -7 -4 -12 -14 -12 -22 0 -20 -61 -23 -68 -3 -2
5 -9 6 -15 2 -6 -3 -28 -6 -49 -6 -21 0 -38 -3 -38 -7 0 -5 -6 -7 -12 -6 -47
10 -68 20 -68 34 0 14 -1 14 -12 0 -15 -19 -71 -18 -106 1 -22 12 -23 11 -12
-11 10 -20 8 -19 -15 5 -14 16 -32 26 -40 24 -7 -3 -16 1 -19 9 -3 9 -10 13
-15 10 -5 -4 -11 -2 -13 4 -2 6 -14 12 -27 15 -13 2 -35 14 -48 26 -19 19 -23
20 -23 6 0 -9 -4 -17 -10 -17 -5 0 -10 9 -10 21 0 28 -19 61 -30 54 -6 -3 -7
1 -4 9 3 9 3 16 0 16 -4 0 -11 -10 -16 -22 -7 -19 -9 -19 -9 -5 -1 11 -5 15
-13 11 -7 -5 -9 -2 -5 8 4 11 -2 17 -18 20 -41 8 -48 -38 -11 -75 17 -17 23
-32 20 -48 -5 -21 -4 -22 8 -8 11 14 15 14 26 3 6 -7 12 -19 12 -26 0 -9 3 -9
10 2 8 12 10 9 10 -12 0 -16 5 -28 10 -28 6 0 10 5 10 10 0 16 14 12 40 -12
14 -13 29 -22 33 -20 14 4 37 -19 36 -37 0 -12 -2 -11 -9 4 -6 13 -9 15 -9 5
-1 -13 -2 -13 -11 0 -5 8 -10 11 -10 6 0 -5 -9 -1 -21 10 -17 16 -22 16 -29 4
-8 -13 -10 -13 -10 1 0 11 -10 16 -35 17 -19 1 -35 -3 -35 -8 0 -6 7 -10 15
-10 19 0 20 -16 1 -23 -10 -4 -19 7 -28 35 -15 45 -45 68 -34 27 3 -13 3 -19
0 -12 -3 7 -12 9 -20 6 -19 -7 -18 0 6 27 24 27 26 44 5 37 -8 -4 -17 -2 -20
3 -8 13 -35 13 -35 0 0 -5 5 -9 11 -7 19 4 21 -20 2 -26 -10 -2 -26 -8 -35
-12 -14 -6 -18 -2 -17 16 0 23 1 23 9 4 7 -17 9 -15 9 13 1 23 6 32 19 33 11
0 7 5 -13 14 l-30 14 28 1 c32 0 33 6 10 33 -16 18 -16 20 -2 14 12 -4 17 0
16 16 0 12 3 31 7 42 8 20 7 20 -8 1 -17 -21 -20 -18 -10 9 4 10 12 14 23 9 9
-3 34 -8 56 -9z"/>
<path d="M5157 5009 c6 -6 19 -12 29 -13 10 -2 20 -9 22 -16 3 -7 0 -10 -7 -6
-19 12 -12 -1 17 -32 15 -17 38 -45 51 -62 l25 -32 -25 6 c-22 6 -22 6 -6 -7
9 -8 17 -19 17 -25 0 -6 9 -29 21 -51 18 -35 24 -39 55 -37 18 2 34 -1 34 -5
0 -5 -6 -9 -12 -9 -7 0 -4 -6 6 -12 15 -8 21 -8 24 0 2 8 10 8 27 0 14 -6 22
-15 18 -21 -3 -6 -1 -7 5 -4 14 9 43 -3 36 -14 -3 -5 -11 -6 -17 -2 -13 7 11
-26 28 -40 6 -6 6 -10 -2 -14 -21 -8 -15 -23 10 -23 17 0 19 -2 8 -9 -12 -8
-13 -12 -1 -25 11 -14 10 -16 -4 -10 -12 5 -15 2 -10 -11 5 -13 3 -16 -7 -13
-8 3 -14 15 -13 27 0 14 -5 20 -15 19 -22 -4 -32 -21 -18 -30 8 -5 7 -8 -5 -8
-9 0 -20 5 -23 10 -3 6 -11 10 -17 10 -6 0 -8 -3 -5 -7 4 -3 -1 -15 -10 -26
-16 -19 -16 -20 -1 -14 9 3 21 0 26 -6 15 -20 22 -47 12 -47 -6 0 -10 6 -10
14 0 20 -19 31 -32 18 -11 -11 -38 -5 -38 9 0 4 7 6 15 3 11 -5 13 -2 9 10 -3
9 -12 16 -19 16 -8 0 -17 4 -20 10 -3 6 1 7 9 4 20 -8 20 3 1 22 -18 19 -36
10 -28 -14 5 -14 3 -15 -8 -4 -15 14 -29 16 -29 4 0 -4 15 -13 33 -20 24 -9
29 -15 18 -21 -8 -5 -12 -18 -9 -29 4 -15 2 -19 -8 -15 -10 4 -12 0 -8 -11 7
-18 25 -15 77 9 15 8 27 10 27 5 0 -4 -13 -13 -30 -20 -16 -7 -30 -17 -30 -22
0 -5 -4 -7 -8 -4 -4 2 -14 1 -22 -5 -11 -6 -6 -9 18 -9 17 0 32 5 32 11 0 6 9
8 20 4 11 -3 20 -2 20 3 0 16 35 20 47 6 7 -7 10 -22 8 -33 -2 -12 0 -21 6
-21 5 0 9 10 9 22 0 12 3 19 6 15 4 -3 3 -18 0 -33 l-7 -27 -23 22 c-26 24
-46 27 -46 7 0 -21 27 -40 33 -24 3 7 6 1 6 -13 1 -14 4 -29 8 -33 4 -3 8 -14
9 -24 2 -9 8 -18 13 -20 6 -2 11 -11 10 -20 0 -11 -2 -12 -6 -4 -10 25 -21 11
-18 -25 4 -54 4 -53 16 -53 7 0 10 12 7 30 -3 21 0 30 9 30 8 0 11 -5 7 -11
-3 -6 0 -15 7 -20 19 -11 -21 -49 -52 -49 -16 0 -19 -3 -11 -12 6 -7 14 -28
19 -46 l8 -34 20 22 c19 21 19 21 -3 27 -12 3 -22 9 -22 14 0 14 20 11 36 -5
15 -15 9 -46 -8 -46 -6 0 -7 -7 -4 -16 3 -8 2 -12 -4 -9 -11 7 -14 -8 -3 -18
13 -14 11 -56 -3 -61 -10 -4 -12 -2 -8 6 5 7 3 8 -6 3 -8 -5 -10 -20 -7 -40 3
-18 0 -38 -6 -46 -10 -11 -9 -11 4 -1 13 10 19 9 30 -5 8 -9 9 -14 2 -10 -16
10 -42 -2 -54 -25 -6 -11 -7 -18 -2 -15 14 9 37 -63 25 -75 -8 -8 -7 -21 3
-44 12 -30 12 -32 -4 -29 -11 2 -17 -4 -18 -16 -1 -11 1 -18 5 -15 4 2 14 -3
22 -12 13 -14 12 -15 -3 -9 -9 3 -19 2 -23 -4 -3 -6 -12 -3 -21 8 -8 10 -12
12 -8 5 8 -15 -12 -42 -28 -38 -7 1 -9 1 -5 -1 4 -3 10 -4 14 -3 4 1 11 -4 16
-12 8 -10 9 -9 5 4 -8 23 2 29 26 17 14 -8 18 -8 13 0 -4 6 -3 11 2 11 15 0
23 -30 9 -30 -7 0 -4 -5 6 -11 14 -8 15 -14 7 -24 -7 -8 -7 -15 -1 -19 5 -4
12 3 16 14 3 11 11 20 16 20 13 0 11 -9 -6 -26 -22 -23 -18 -37 9 -32 18 4 23
1 19 -10 -4 -9 -15 -12 -34 -8 -21 4 -29 2 -29 -9 0 -7 5 -17 10 -20 6 -4 8
-10 5 -15 -3 -4 5 -7 18 -6 18 2 23 -2 22 -18 -3 -23 -21 -23 -47 0 -11 10
-18 12 -23 5 -3 -6 -2 -11 3 -11 5 0 12 -11 14 -25 6 -28 4 -29 -24 -14 -11 6
-22 9 -24 6 -3 -3 16 -15 41 -27 25 -12 44 -24 41 -27 -2 -2 -18 3 -36 12 -18
9 -34 14 -38 11 -3 -3 -1 -6 4 -6 6 0 27 -16 47 -35 20 -19 34 -35 31 -35 -9
0 -48 23 -62 36 -7 8 -35 16 -62 20 -33 4 -47 10 -44 19 3 7 1 16 -5 20 -6 3
-11 2 -11 -4 0 -6 -9 -15 -21 -21 -19 -11 -20 -10 -9 9 10 19 9 20 -15 11 -33
-13 -38 -13 -30 1 4 6 -2 5 -14 -3 -13 -8 -19 -19 -15 -30 6 -19 -2 -22 -43
-18 -15 1 -23 -4 -23 -14 0 -19 -8 -20 -47 -6 -27 10 -27 10 -8 -6 l20 -17
-20 8 c-35 12 -92 18 -76 7 28 -20 -79 -30 -141 -14 -22 6 -38 6 -38 1 0 -5 9
-9 20 -9 23 0 27 -15 5 -24 -8 -3 -15 -1 -15 5 0 6 -17 8 -42 5 -24 -3 -47 -5
-53 -6 -5 0 -4 -4 4 -9 11 -7 10 -11 -6 -19 -18 -10 -20 -8 -16 16 3 19 2 23
-5 14 -5 -8 -21 -15 -35 -15 -14 -1 -23 -5 -20 -9 2 -5 -3 -9 -11 -9 -35 -3
-41 -5 -38 -17 1 -7 3 -17 5 -23 1 -6 -12 -12 -30 -13 -17 0 -30 1 -28 4 2 3
0 12 -5 20 -7 12 -11 12 -26 -1 -14 -11 -16 -11 -10 0 7 10 2 12 -25 6 -50
-11 -99 -33 -99 -44 0 -7 8 -7 26 0 35 13 38 7 13 -24 -12 -16 -16 -27 -8 -27
6 0 -1 -10 -17 -22 -16 -13 -33 -22 -38 -20 -4 2 -5 -5 -2 -15 6 -15 5 -16 -6
-5 -10 10 -10 17 0 32 8 14 9 21 0 26 -7 4 -8 3 -4 -4 6 -11 -5 -16 -26 -13
-4 0 -5 -6 -2 -14 8 -21 -24 -20 -50 2 -12 9 -4 0 17 -21 42 -41 44 -46 20
-46 -14 0 -15 -2 -4 -9 11 -7 11 -9 0 -14 -9 -3 -7 -6 6 -6 17 -1 17 -3 5 -11
-8 -5 -24 -7 -35 -4 -16 4 -17 3 -5 -5 8 -6 24 -11 35 -12 l20 0 -20 -8 c-11
-5 -24 -6 -30 -4 -5 2 -1 -3 9 -11 11 -9 14 -16 7 -16 -7 0 -10 -4 -6 -9 3 -5
-5 -11 -17 -13 -12 -2 -23 -10 -26 -18 -4 -12 -2 -13 9 -2 15 14 29 16 29 3 0
-4 -21 -16 -46 -26 -51 -19 -55 -31 -5 -14 38 13 52 5 25 -16 -18 -14 -18 -14
9 -15 26 0 36 -13 18 -25 -5 -3 -8 -26 -7 -51 2 -42 2 -44 -10 -22 -12 22 -13
22 -12 -9 1 -18 5 -30 9 -27 5 3 6 -2 3 -10 -4 -11 0 -16 12 -16 16 0 17 -2 4
-10 -8 -5 -10 -10 -4 -10 5 0 10 -15 11 -34 1 -19 8 -45 17 -58 l16 -22 0 22
c0 12 -5 22 -11 22 -5 0 -7 5 -3 11 3 6 0 15 -7 20 -12 8 -11 12 4 23 21 16
21 20 1 40 -14 15 -14 16 3 16 15 0 16 2 3 10 -12 8 -12 10 5 11 19 0 18 1 -2
11 -13 6 -23 16 -23 22 0 6 5 5 12 -2 17 -17 33 -15 19 2 -8 9 -8 20 -1 37 10
23 10 23 5 -3 -3 -16 -1 -28 5 -28 5 0 10 16 10 35 0 19 4 34 8 33 12 -4 59
46 55 58 -2 6 3 17 12 24 9 8 15 8 15 2 0 -6 -5 -14 -10 -17 -6 -4 -8 -11 -4
-16 4 -6 13 -4 24 6 35 32 42 10 11 -29 -17 -21 -31 -42 -31 -45 0 -3 9 5 20
19 11 14 19 21 18 15 -2 -5 0 -12 5 -14 13 -6 107 9 107 18 0 5 14 11 32 15
33 6 58 23 58 37 0 5 -8 6 -17 3 -14 -5 -15 -4 -4 4 11 8 11 11 0 16 -8 3 -3
3 10 0 20 -5 23 -3 18 10 -4 11 2 27 18 44 14 15 25 23 25 18 0 -5 6 -3 13 3
11 9 16 2 27 -32 24 -82 78 -130 134 -120 18 4 31 1 37 -8 12 -21 96 23 117
62 23 42 56 80 48 57 -3 -10 -1 -18 5 -18 17 0 5 -54 -16 -72 -19 -17 -18 -17
20 -2 22 9 45 20 51 25 11 9 44 3 44 -8 0 -2 -7 -11 -16 -20 -8 -9 -13 -22 -9
-30 4 -12 -1 -14 -20 -10 -20 3 -25 1 -21 -10 4 -11 0 -13 -17 -9 -12 3 -16 3
-9 0 10 -5 10 -10 -3 -24 -16 -18 -16 -18 4 -13 25 6 26 -5 3 -33 -19 -23 -49
-37 -54 -25 -2 4 -16 2 -32 -4 -26 -11 -27 -12 -7 -18 11 -3 21 -2 21 2 0 4
15 7 34 7 19 0 32 -4 30 -8 -5 -8 42 -1 60 10 4 2 5 19 2 36 -4 18 -3 26 2 18
7 -10 14 -7 33 12 32 34 42 33 37 -4 -6 -38 9 -39 23 -2 10 25 12 26 19 7 5
-11 9 -14 9 -6 1 11 4 11 18 0 9 -8 14 -9 10 -2 -7 11 17 43 33 43 4 0 6 -34
4 -75 -2 -48 0 -74 6 -70 6 4 7 11 4 17 -5 8 -1 9 11 4 17 -6 18 -5 4 11 -16
19 -15 53 2 53 11 0 12 27 2 33 -5 2 -1 2 7 -1 8 -3 29 -7 45 -9 27 -3 28 -2
8 7 -35 14 -28 18 27 12 33 -3 50 -1 50 7 0 6 -7 11 -16 11 -9 0 -29 9 -45 21
-16 11 -29 17 -29 13 0 -3 -6 -1 -13 5 -8 6 -16 9 -18 6 -3 -2 -20 9 -38 24
-23 20 -29 30 -19 34 19 7 78 -19 78 -35 0 -11 2 -11 9 0 5 9 17 11 35 6 21
-5 24 -9 15 -20 -9 -11 -8 -14 5 -14 9 0 16 7 16 15 0 8 4 15 9 15 5 0 10 25
10 55 l0 56 -35 -7 c-20 -4 -34 -2 -34 4 0 5 6 10 13 9 6 0 22 1 35 1 l22 2 0
315 c-1 201 -4 314 -10 310 -6 -3 -10 -1 -10 4 0 6 4 11 9 11 6 0 9 257 8 633
l-2 632 -40 0 c-45 0 -109 36 -144 81 -17 21 -24 25 -30 15 -6 -9 -11 -10 -15
-2 -4 6 -16 11 -27 11 -13 0 -18 4 -13 13 4 6 -2 3 -14 -7 -12 -11 -22 -14
-22 -8 0 7 4 12 9 12 17 0 20 28 5 47 -14 17 -15 17 -9 -3 6 -24 -19 -52 -30
-34 -3 5 2 10 11 10 16 0 16 2 -1 20 -10 12 -25 18 -32 16 -7 -3 -13 -1 -13 4
0 6 -8 10 -17 10 -12 0 -14 -3 -6 -11z m121 -1918 c3 -8 0 -11 -6 -7 -11 7
-47 -23 -38 -32 3 -2 30 -6 61 -7 38 -1 62 -7 73 -19 16 -16 15 -17 -11 -7
-38 15 -45 14 -21 -3 22 -17 18 -24 -17 -28 -20 -3 -24 1 -22 22 3 25 3 25
-10 3 -9 -16 -16 -20 -27 -13 -12 8 -13 10 -1 10 23 0 4 12 -26 17 -15 2 -55
6 -88 8 -33 1 -71 7 -85 13 -14 5 -31 7 -39 4 -8 -3 -11 0 -7 7 4 6 13 11 21
11 7 0 15 5 17 10 9 27 218 36 226 11z"/>
<path d="M4325 2498 c-4 -9 -13 -14 -21 -11 -8 3 -14 0 -14 -5 0 -6 8 -13 18
-15 15 -4 14 -6 -4 -12 -15 -5 -20 -14 -19 -36 1 -16 -2 -32 -7 -35 -5 -3 -4
-12 2 -19 8 -10 8 -19 1 -34 -14 -25 -14 -71 -1 -71 6 0 10 -16 10 -35 0 -21
5 -35 13 -35 9 0 8 -3 -2 -9 -11 -7 -11 -9 0 -14 10 -4 9 -6 -3 -6 -25 -1 -23
-22 2 -28 15 -4 19 -11 15 -27 -5 -17 -4 -18 4 -6 6 8 8 23 5 34 -4 10 -2 16
3 13 5 -3 22 0 36 8 26 13 27 13 16 -7 -10 -18 -8 -19 11 -13 16 5 20 4 15 -5
-6 -9 -2 -9 16 0 32 17 37 22 19 20 -30 -5 -38 0 -33 20 3 11 10 20 15 20 5 0
7 -8 3 -19 -5 -15 -1 -18 21 -13 25 5 26 6 10 18 -10 7 -15 17 -12 22 3 6 -2
13 -11 16 -9 4 -20 1 -24 -6 -4 -7 -11 -10 -14 -6 -7 6 22 38 35 38 5 0 16 -7
24 -16 9 -8 16 -11 16 -5 0 5 -7 14 -16 19 -11 6 -14 14 -8 23 12 20 14 39 3
39 -6 0 -9 -7 -7 -16 2 -10 -3 -19 -11 -22 -10 -3 -12 0 -8 12 7 17 -2 21 -19
9 -5 -5 -1 0 9 10 16 14 17 17 3 17 -9 0 -16 4 -16 10 0 5 8 6 18 3 15 -6 15
-5 3 10 -15 19 -1 23 17 5 7 -7 12 -8 12 -2 0 6 -11 16 -25 22 -14 6 -25 8
-25 3 0 -5 -7 -12 -16 -15 -17 -6 -12 6 15 38 13 16 13 18 1 11 -12 -6 -13 -5
-2 6 16 17 15 29 -2 29 -8 0 -16 10 -18 23 -2 12 -7 20 -11 17 -5 -3 -15 6
-22 20 -12 21 -15 23 -20 8z"/>
<path d="M3879 2307 c12 -15 11 -17 -3 -17 -9 0 -16 -4 -16 -10 0 -5 -6 -9
-12 -7 -7 1 -13 -7 -13 -18 0 -11 -4 -23 -10 -27 -6 -4 -2 -13 10 -22 11 -9
15 -16 10 -16 -6 0 -16 5 -23 12 -6 6 -15 9 -18 5 -4 -4 4 -15 17 -26 13 -11
21 -22 17 -26 -4 -4 -14 0 -23 9 -9 9 -18 16 -21 16 -8 0 -4 -9 11 -23 8 -8
19 -34 24 -57 7 -33 6 -42 -5 -47 -8 -3 -14 -10 -14 -15 0 -7 5 -6 13 1 8 6
16 10 18 8 2 -1 3 0 2 2 -2 2 2 10 8 18 9 9 8 13 0 13 -7 0 -9 9 -5 25 4 17 2
25 -7 25 -7 0 -9 3 -6 6 12 12 37 -18 38 -45 2 -23 2 -24 6 -3 6 28 23 19 23
-13 0 -25 19 -46 21 -23 3 35 -5 63 -19 75 -10 7 -12 12 -5 13 6 0 18 -9 25
-19 9 -13 19 -17 27 -12 11 7 10 11 -4 18 -16 9 -16 11 0 26 9 10 12 17 6 17
-6 0 -11 9 -11 21 0 11 -4 18 -9 15 -5 -3 -11 0 -14 8 -4 10 0 12 16 8 21 -5
21 -5 4 12 -10 10 -16 24 -13 32 3 7 0 15 -7 18 -9 3 -8 8 3 15 13 9 13 11 -2
11 -9 0 -25 3 -35 7 -16 6 -16 5 -4 -10z"/>
<path d="M4421 2113 c-16 -18 -17 -81 -1 -97 5 -5 10 -17 9 -25 0 -11 -2 -12
-6 -3 -2 6 -11 12 -19 12 -12 0 -12 -4 -4 -21 6 -11 12 -33 12 -50 1 -29 18
-42 18 -13 0 8 5 12 10 9 8 -5 8 -11 0 -20 -6 -7 -11 -37 -11 -66 -1 -30 -6
-60 -13 -68 -8 -11 -8 -15 2 -18 20 -7 14 -36 -7 -30 -15 4 -18 -1 -16 -27 3
-33 -29 -77 -38 -53 -4 8 -6 8 -6 -2 -1 -20 -50 -58 -83 -65 -22 -4 -28 -10
-24 -21 5 -13 -6 -20 -18 -12 -2 1 -14 -7 -27 -18 -12 -11 -19 -15 -16 -8 4 6
3 14 -3 18 -5 3 -10 2 -10 -4 0 -5 -18 -12 -40 -16 -22 -4 -40 -12 -40 -18 0
-8 -3 -8 -8 1 -5 7 -17 14 -28 16 -10 2 -30 10 -44 18 -36 18 -145 128 -129
128 11 0 11 2 -1 10 -8 5 -11 12 -7 16 9 9 -13 35 -24 28 -5 -3 -9 -1 -9 5 0
5 6 12 13 14 8 4 6 6 -4 6 -20 1 -20 32 0 48 15 11 14 12 -1 13 -19 0 -26 18
-29 70 -3 51 12 141 22 134 5 -3 9 1 9 8 0 17 -58 17 -69 0 -5 -8 -11 -13 -15
-13 -3 1 -14 1 -23 1 -15 0 -14 -2 3 -15 18 -14 17 -14 -8 -5 -15 5 -27 6 -27
2 3 -19 -2 -33 -11 -27 -5 3 -12 -5 -16 -19 -3 -14 -15 -28 -26 -32 -12 -3
-17 -11 -14 -21 3 -8 6 -21 6 -28 0 -11 6 -12 30 -4 17 6 30 16 31 22 0 7 4 3
9 -8 8 -18 9 -17 9 7 1 24 4 26 29 19 15 -4 27 -13 26 -19 -1 -7 -2 -18 -2
-26 -1 -8 -12 -18 -23 -21 -13 -5 -17 -10 -11 -14 14 -9 8 -84 -7 -89 -6 -2
-11 7 -12 20 0 13 -3 17 -6 11 -2 -7 -16 -13 -29 -13 -15 0 -23 4 -19 10 4 6
10 8 15 5 16 -10 20 27 4 42 -11 12 -12 18 -4 23 8 5 6 9 -5 14 -21 8 -38 -2
-29 -16 5 -7 2 -9 -7 -6 -12 5 -15 -5 -16 -43 0 -48 10 -65 20 -31 2 9 8 25
12 35 4 10 3 17 -5 17 -6 0 -8 -4 -5 -10 3 -5 1 -10 -4 -10 -17 0 -13 20 5 27
26 10 40 -14 21 -35 -15 -16 -15 -20 -1 -33 17 -18 10 -46 -11 -46 -8 0 -15 4
-15 9 0 4 7 8 15 8 8 0 15 5 15 11 0 7 -9 9 -22 5 -13 -3 -26 -6 -30 -6 -5 0
-8 -18 -8 -40 0 -25 -5 -40 -12 -40 -7 0 2 -13 20 -28 35 -31 41 -45 15 -35
-12 3 -10 0 5 -11 12 -10 20 -21 17 -25 -2 -5 2 -17 10 -27 14 -18 14 -18 15
-1 0 10 5 15 10 12 6 -3 7 -18 4 -32 -5 -19 -4 -24 6 -18 7 4 16 2 21 -6 8
-12 11 -12 19 1 8 13 10 12 10 -4 0 -13 5 -17 19 -13 12 3 18 -1 17 -12 0 -9
9 -20 22 -26 12 -5 25 -18 28 -28 3 -9 10 -15 15 -12 12 8 12 -8 -1 -21 -7 -7
-6 -11 4 -11 8 0 17 6 20 14 3 7 10 13 16 13 6 0 9 -4 6 -8 -6 -10 36 -8 52 2
7 4 15 1 18 -8 3 -9 10 -13 15 -10 5 3 6 -2 3 -10 -8 -21 5 -20 23 2 13 15 13
15 4 -5 -8 -15 -8 -24 -1 -28 6 -3 13 1 16 10 5 13 9 12 27 -7 19 -22 20 -22
15 -2 -4 16 -1 20 15 19 11 -1 23 -8 26 -16 7 -16 33 -16 74 0 15 6 27 7 27 2
0 -5 -13 -14 -30 -21 -16 -7 -30 -17 -30 -22 0 -6 7 -5 15 2 12 10 15 10 15
-1 1 -9 5 -8 15 5 15 20 15 20 31 0 15 -19 15 -19 10 1 -6 21 5 47 20 47 5 -1
8 5 6 13 -1 7 3 17 9 21 8 5 10 2 7 -7 -3 -8 1 -24 9 -34 15 -19 15 -19 10 3
-7 28 -3 28 26 -3 l23 -26 14 40 c7 23 20 41 31 44 11 3 19 2 19 -3 0 -4 6
-10 14 -13 9 -4 12 2 10 21 -3 26 -2 26 12 7 l16 -20 -2 20 c-4 42 0 54 16 48
13 -5 13 -7 2 -14 -7 -5 -8 -9 -3 -9 6 0 17 5 25 10 13 9 13 11 0 20 -12 7
-12 12 -2 22 10 10 17 10 35 -1 18 -11 20 -11 10 0 -7 7 -13 20 -13 28 0 13 2
13 9 3 6 -11 9 -9 13 6 5 16 1 20 -13 17 -18 -4 -18 -2 -4 18 8 12 15 28 15
36 0 7 10 22 22 32 14 13 17 19 7 19 -11 1 -10 3 2 13 13 10 15 22 9 60 -4 31
-3 47 4 48 6 0 3 4 -8 8 -27 11 -32 87 -5 94 13 4 17 10 13 22 -5 12 -9 13
-14 5 -10 -17 -19 9 -15 48 2 22 -2 32 -11 32 -8 0 -16 11 -20 24 -3 14 -13
27 -21 30 -11 5 -14 15 -9 38 6 29 5 30 -7 14 -19 -26 -40 -11 -33 23 5 18 4
22 -3 12 -8 -12 -10 -12 -14 0 -2 8 -2 3 0 -11 l3 -25 -13 23 c-7 12 -16 19
-20 16 -4 -4 -7 -3 -7 3 0 6 10 18 23 26 15 11 17 16 7 16 -8 0 -21 -7 -29
-16z"/>
</g>
</svg>
