<?xml version="1.0" standalone="no"?>
<!DOCTYPE svg PUBLIC "-//W3C//DTD SVG 20010904//EN"
 "http://www.w3.org/TR/2001/REC-SVG-20010904/DTD/svg10.dtd">
<svg version="1.0" xmlns="http://www.w3.org/2000/svg"
 width="300.000000pt" height="293.000000pt" viewBox="0 0 300.000000 293.000000"
 preserveAspectRatio="xMidYMid meet">
<metadata>
Created by potrace 1.16, written by Peter Selinger 2001-2019
</metadata>
<g transform="translate(0.000000,293.000000) scale(0.100000,-0.100000)"
fill="#000000" stroke="none">
<path d="M1445 2821 c-11 -4 -30 -11 -42 -16 -13 -4 -20 -11 -17 -16 3 -5 2
-8 -3 -7 -21 6 -93 -14 -117 -33 -18 -14 -41 -21 -71 -21 -25 0 -45 -4 -45 -9
0 -6 -4 -8 -9 -4 -5 3 -18 -6 -29 -19 -10 -14 -31 -28 -46 -32 -14 -3 -30 -13
-35 -22 -5 -9 -20 -17 -33 -17 -17 0 -23 -5 -21 -19 1 -11 -10 -28 -23 -38
-13 -11 -24 -26 -24 -34 0 -8 -11 -19 -24 -24 -25 -9 -42 -42 -32 -59 4 -5 -1
-17 -10 -25 -11 -12 -12 -16 -2 -16 7 0 2 -9 -12 -20 -14 -10 -25 -22 -25 -27
-1 -8 -29 -87 -45 -128 -22 -53 -32 -138 -33 -288 -2 -114 2 -168 10 -178 13
-16 15 -74 6 -183 -3 -46 -1 -66 6 -62 6 4 8 -2 6 -14 -2 -12 1 -45 6 -73 7
-34 7 -102 2 -192 -11 -183 4 -335 42 -426 l27 -65 -22 -52 c-14 -32 -30 -54
-44 -58 -22 -6 -141 -76 -295 -174 -51 -33 -97 -60 -103 -60 -22 0 -168 -64
-238 -105 -41 -24 -92 -47 -112 -50 l-38 -7 0 -124 0 -124 1500 0 1500 0 0
424 0 425 -57 21 c-32 12 -94 31 -138 42 -44 11 -96 29 -116 39 -20 10 -57 23
-81 29 -34 9 -54 23 -82 56 -36 43 -115 104 -135 104 -6 0 -11 -14 -11 -31 0
-57 -22 -110 -57 -136 -18 -14 -37 -39 -42 -57 -6 -22 -9 4 -9 94 0 69 -4 133
-8 143 -7 20 14 98 30 109 6 4 16 2 23 -4 9 -7 13 -7 13 0 0 6 9 16 21 22 19
11 20 9 15 -32 -3 -24 -5 -46 -5 -49 -1 -3 -11 -4 -23 -2 -16 3 -27 -3 -36
-16 -11 -19 -10 -21 8 -21 11 0 19 3 19 8 -3 19 2 23 15 13 22 -18 36 17 40
97 4 63 3 66 -11 45 -9 -13 -19 -23 -23 -23 -14 0 -3 41 16 56 19 15 19 15 -2
9 -16 -4 -23 0 -29 17 -4 13 -7 28 -6 35 1 6 -4 15 -10 19 -8 5 -9 3 -4 -7 5
-8 4 -10 0 -6 -15 13 -15 39 0 33 7 -2 16 2 19 10 3 8 1 12 -4 9 -5 -3 -7 1
-4 9 3 9 13 12 22 9 14 -5 15 -3 5 8 -7 7 -13 17 -13 22 0 5 9 -1 19 -14 12
-15 16 -28 10 -33 -13 -14 -11 -50 4 -65 10 -11 10 -13 0 -7 -7 4 -13 2 -13
-3 0 -6 5 -11 10 -11 6 0 14 -10 19 -22 7 -20 12 -15 40 47 34 74 35 115 3
115 -10 0 -23 -5 -30 -12 -15 -15 -16 -3 -1 23 5 11 14 17 19 14 4 -3 6 4 3
15 -4 14 0 20 10 20 10 0 18 12 21 33 3 17 9 55 13 82 5 28 7 161 6 297 -2
226 -4 252 -22 294 -12 26 -21 61 -21 78 0 23 -9 41 -30 61 -16 16 -30 34 -30
42 0 7 -9 17 -19 22 -10 6 -24 24 -29 40 -13 36 -51 62 -94 66 -22 2 -34 9
-40 24 -4 12 -22 29 -39 39 -17 9 -51 30 -76 46 -38 25 -54 29 -101 27 -48 -2
-54 0 -43 13 10 12 9 15 -6 19 -13 3 -11 5 7 6 20 1 22 3 9 11 -20 12 -56 2
-63 -17 -4 -11 -2 -13 9 -10 8 4 17 2 20 -3 4 -6 -5 -14 -19 -20 -29 -11 -36
-23 -8 -14 14 5 14 4 2 -4 -10 -8 -19 -7 -29 1 -12 9 -13 9 -7 0 4 -7 3 -13
-3 -13 -15 0 -23 18 -11 25 8 5 6 13 -5 25 -13 15 -22 17 -42 9 -31 -12 -53
-12 -34 0 13 8 -25 17 -104 23 -16 1 -33 6 -36 11 -12 16 -134 30 -164 18z
m375 -541 c10 0 21 -4 24 -9 3 -5 20 -11 38 -14 18 -3 44 -8 58 -12 14 -3 31
-7 38 -7 6 -1 12 -5 12 -10 0 -5 4 -7 9 -3 5 3 12 1 16 -5 3 -5 21 -10 40 -10
35 0 55 -14 33 -23 -8 -3 -5 -6 6 -6 12 -1 16 -6 12 -16 -3 -9 0 -15 8 -15 13
0 27 -29 30 -60 1 -8 10 -14 19 -13 11 0 16 -4 13 -12 -2 -7 5 -21 17 -32 22
-18 22 -18 4 3 -12 14 -14 23 -7 26 16 5 1 38 -18 38 -11 0 -13 3 -5 11 7 7
22 -1 50 -28 47 -45 63 -109 39 -155 -9 -16 -10 -30 -4 -36 10 -10 0 -65 -11
-58 -3 2 -14 -2 -24 -9 -11 -8 -14 -16 -8 -19 21 -13 37 -63 35 -114 -1 -42 3
-56 18 -65 10 -7 18 -16 18 -21 0 -6 -5 -5 -12 2 -7 7 -19 12 -27 12 -12 0
-11 -4 5 -18 11 -9 31 -33 44 -52 21 -30 21 -33 4 -17 -12 9 -24 14 -29 10 -4
-5 -5 -3 -2 3 3 6 1 11 -6 11 -17 0 -10 -95 11 -148 12 -30 7 -40 -14 -32 -8
3 -15 -1 -15 -11 -1 -14 -4 -34 -11 -95 -1 -11 -7 -17 -12 -14 -5 4 -7 -3 -4
-15 4 -12 3 -22 -2 -22 -8 0 -5 -48 4 -58 3 -3 6 5 6 18 0 34 13 16 14 -19 1
-24 -2 -27 -13 -18 -11 10 -13 6 -9 -23 3 -19 7 -42 10 -50 3 -8 3 -12 1 -7
-3 4 -11 7 -19 7 -9 0 -12 4 -9 10 3 6 -1 7 -10 4 -9 -4 -14 -13 -11 -20 3 -8
0 -14 -5 -14 -7 0 -9 -11 -7 -25 3 -13 1 -22 -4 -19 -4 3 -11 -8 -14 -25 -6
-26 -8 -28 -21 -16 -8 8 -17 15 -21 15 -3 0 -1 -5 6 -12 7 -7 12 -26 12 -43
-1 -25 -2 -27 -11 -12 -12 21 -31 23 -23 2 8 -20 -6 -19 -23 3 -10 13 -13 13
-11 2 2 -8 7 -18 12 -21 12 -9 -3 -31 -16 -23 -7 5 -9 -2 -6 -18 3 -15 0 -25
-7 -25 -6 0 -11 13 -10 29 1 15 -2 28 -7 28 -4 0 -8 -10 -9 -22 0 -13 -3 -17
-6 -10 -8 21 -25 13 -20 -10 2 -13 1 -34 -3 -48 l-7 -25 -13 27 c-7 14 -18 24
-25 22 -15 -6 -15 -56 0 -66 6 -5 3 -8 -7 -8 -12 0 -15 -6 -11 -22 5 -23 5
-23 -10 -3 -14 17 -16 17 -17 4 0 -19 -26 -32 -43 -22 -7 4 -6 -1 2 -10 12
-15 25 -67 17 -67 -2 0 -12 8 -24 18 -11 9 -30 25 -42 35 -12 10 -20 23 -17
30 2 6 -5 20 -14 31 -10 10 -16 23 -13 28 3 4 -2 8 -10 8 -10 0 -13 6 -9 15 3
9 2 15 -3 13 -5 -1 -21 6 -37 16 -21 14 -30 16 -41 7 -10 -8 -16 -9 -21 -1 -3
6 -11 8 -16 5 -5 -4 -9 -1 -9 4 0 6 -8 11 -19 11 -10 0 -30 9 -45 21 -21 17
-26 18 -26 5 0 -27 -17 -18 -31 15 -12 31 -11 33 24 62 56 44 62 62 23 64 -17
1 -42 5 -55 8 -20 5 -22 8 -10 16 23 17 -32 -2 -58 -19 -13 -8 -20 -19 -16
-25 11 -18 -50 3 -85 30 -33 24 -46 59 -46 116 0 32 -11 35 -26 8 -16 -30 -12
-49 5 -27 20 26 19 6 -1 -22 -8 -12 -12 -22 -8 -22 3 0 1 -7 -6 -15 -12 -14
-6 -69 10 -90 9 -13 -8 -75 -21 -75 -6 0 -19 -10 -28 -22 -16 -20 -48 -18 -36
2 3 5 0 12 -6 16 -7 4 -9 3 -6 -3 4 -6 -1 -17 -10 -24 -14 -12 -15 -11 -8 11
6 21 5 23 -6 12 -8 -7 -15 -17 -15 -23 -1 -5 -2 -13 -3 -19 0 -5 -8 -10 -16
-10 -8 0 -12 6 -9 13 6 18 -30 59 -42 47 -5 -5 -17 -3 -28 6 -11 8 -15 14 -8
14 7 0 5 14 -7 43 -10 23 -16 48 -14 55 3 6 -2 12 -11 12 -9 0 -17 9 -18 23 0
12 -2 27 -2 32 -1 6 -14 26 -29 46 -15 20 -27 43 -27 53 0 9 -6 19 -14 22 -8
3 -23 45 -36 100 -20 84 -21 102 -11 155 7 32 10 63 6 68 -3 5 1 12 7 15 10 5
10 7 1 12 -7 3 -13 10 -13 16 0 7 5 6 14 -1 15 -13 49 -4 40 10 -3 5 -1 9 3 9
5 0 16 22 26 50 16 45 57 88 57 60 0 -7 8 -9 20 -5 11 4 20 2 20 -4 0 -6 -4
-11 -9 -11 -5 0 -14 -13 -20 -30 -5 -16 -15 -30 -20 -30 -6 0 -11 -7 -11 -16
0 -10 -6 -14 -14 -11 -16 7 -9 -34 8 -45 8 -6 8 -8 -1 -8 -8 0 -8 -6 0 -24 8
-17 14 -21 19 -13 6 8 14 5 27 -12 15 -20 29 -25 67 -26 27 -1 41 0 32 2 -10
3 -18 9 -18 15 0 5 -8 7 -17 4 -10 -4 -14 -4 -10 0 4 4 -1 13 -11 21 -12 10
-14 16 -4 19 6 3 12 12 12 19 0 17 31 35 59 35 17 0 20 -4 14 -30 -9 -46 20
-74 69 -66 58 9 95 -14 46 -30 -21 -6 -56 -34 -44 -34 19 0 85 34 80 41 -3 5
2 9 10 9 8 0 18 -5 22 -11 4 -8 9 -7 16 2 6 10 7 7 3 -8 -4 -14 -2 -23 4 -23
6 0 11 5 11 11 0 5 4 7 10 4 17 -11 22 41 7 77 -8 20 -32 48 -53 64 -55 41
-64 51 -64 69 0 9 -4 14 -9 10 -6 -3 -9 4 -8 15 1 12 7 18 14 16 19 -8 25 10
8 24 -8 7 -15 9 -15 5 0 -4 -6 -3 -12 3 -7 5 -38 17 -68 25 -30 9 -77 28 -105
42 -27 13 -57 25 -66 25 -28 0 -76 -20 -76 -33 -1 -17 -32 -84 -33 -69 0 6 -5
12 -11 12 -6 0 -8 -9 -3 -22 4 -13 6 -36 4 -53 -1 -16 -3 -38 -3 -47 -2 -28
-17 -21 -17 6 0 14 -5 28 -10 31 -6 3 -10 11 -10 16 0 6 5 7 10 4 6 -4 10 12
10 42 0 26 4 65 9 85 6 24 5 40 -2 47 -6 6 -7 11 -2 11 4 0 0 9 -10 20 -18 19
-17 20 13 26 18 4 32 11 32 16 0 6 -7 8 -15 4 -8 -3 -25 -1 -37 4 -14 5 -17 9
-8 10 13 0 13 1 0 10 -12 8 -12 10 -1 10 8 0 12 3 8 6 -8 8 34 54 50 54 7 0
13 -5 13 -11 0 -5 -4 -8 -8 -5 -4 2 -14 1 -21 -3 -9 -6 -4 -8 13 -8 34 0 43
-10 26 -26 -10 -10 -11 -9 -5 3 8 13 7 13 -10 0 -18 -14 -18 -15 3 -18 12 -2
22 -8 22 -13 0 -12 30 -12 32 1 0 6 1 16 2 23 1 6 11 20 24 30 l22 19 -21 17
c-18 14 -20 21 -10 39 15 28 14 35 -4 28 -18 -7 -18 -5 -1 29 9 17 16 22 19
13 4 -9 6 -8 6 4 1 11 7 15 22 11 15 -4 22 0 26 16 3 11 9 21 14 21 5 0 8 6 7
13 -2 6 4 12 12 12 8 1 26 7 40 14 44 25 122 41 142 30 13 -7 18 -6 18 3 0 7
5 5 11 -6 9 -15 13 -16 20 -5 5 9 9 10 9 2 0 -6 9 -9 20 -6 11 3 17 9 14 14
-8 14 25 10 49 -5 12 -8 41 -19 64 -24 l42 -10 -27 37 -27 36 46 -37 c25 -20
52 -38 60 -39 27 -7 77 22 83 47 4 14 11 22 16 19 6 -3 10 -1 10 5 0 7 8 9 20
6 11 -3 30 -9 41 -12 13 -4 19 -2 16 4 -4 5 8 8 28 6 19 -1 38 3 42 9 5 8 8 8
11 -1 2 -7 12 -12 22 -12z m-448 -1601 c22 1 26 -2 22 -16 -5 -17 -5 -17 9 0
18 22 43 22 51 0 6 -14 9 -15 15 -4 6 8 11 9 15 3 4 -7 17 -7 36 -2 50 14 42
-4 -12 -29 -28 -13 -67 -23 -87 -23 -51 0 -103 10 -110 19 -3 5 -15 8 -27 7
-11 0 -31 7 -43 17 -21 17 -21 19 -5 21 11 0 25 1 32 1 6 -1 12 4 12 9 0 7 12
8 33 3 17 -4 44 -7 59 -6z m255 -44 c5 -4 1 -4 -7 0 -8 5 8 -13 35 -39 28 -26
44 -45 38 -41 -7 3 -13 2 -13 -3 0 -5 -14 -9 -32 -7 -33 2 -75 -24 -50 -33 6
-2 12 -11 11 -20 0 -11 -2 -12 -6 -4 -6 15 -33 16 -33 1 0 -5 4 -8 8 -5 4 2
19 -4 32 -15 l25 -19 -32 10 c-29 8 -33 6 -33 -11 0 -10 5 -19 11 -19 5 0 8
-4 5 -9 -3 -5 1 -11 9 -15 8 -3 15 -11 15 -18 0 -6 -16 6 -36 28 -33 36 -36
34 -18 -11 4 -10 0 -15 -11 -15 -9 0 -13 4 -10 10 3 6 -1 7 -9 4 -12 -5 -13
-11 -5 -25 13 -26 -7 -25 -23 0 -10 16 -15 18 -27 8 -12 -10 -14 -9 -8 6 4 11
3 16 -3 12 -6 -3 -10 -14 -10 -23 0 -14 -2 -15 -10 -2 -8 12 -10 12 -16 -3 -3
-9 -10 -14 -15 -11 -5 3 -7 9 -4 13 2 5 -2 17 -10 27 -11 15 -16 16 -26 7 -16
-16 -22 -53 -8 -53 5 0 7 -5 4 -10 -4 -6 -13 -4 -23 6 -15 15 -16 15 -22 -2
-6 -16 -7 -16 -12 4 -8 27 -28 29 -28 2 0 -12 -7 -20 -16 -20 -9 0 -14 6 -11
13 16 43 18 59 8 53 -6 -4 -11 -1 -11 6 0 11 -2 11 -9 0 -6 -10 -10 -10 -21 3
-7 8 -21 15 -31 15 -10 0 -21 5 -24 10 -3 6 4 10 16 10 18 0 19 2 9 15 -7 9
-9 22 -4 32 9 22 9 21 18 55 7 25 9 25 27 10 11 -10 23 -17 27 -18 9 -1 42
-14 69 -26 24 -12 113 -2 113 13 0 5 16 9 35 9 35 0 41 8 36 48 -1 6 3 12 9
12 6 0 22 10 36 23 25 23 56 29 71 12z"/>
<path d="M1790 1704 c-19 -7 -77 -13 -127 -13 -76 -1 -93 -4 -93 -16 0 -8 7
-15 15 -15 9 0 29 -10 45 -21 25 -19 36 -21 82 -14 29 5 65 9 79 10 14 1 30 5
36 8 16 10 108 -17 128 -37 10 -9 24 -15 31 -12 8 3 13 0 11 -6 -2 -12 31 -20
38 -8 8 12 -6 41 -16 34 -5 -3 -6 1 -3 9 3 8 -9 24 -28 38 -72 54 -132 67
-198 43z"/>
<path d="M1730 1610 c-57 -8 -82 -17 -144 -50 -40 -20 -52 -32 -57 -56 -7 -34
17 -59 46 -48 8 3 15 1 15 -5 0 -6 9 -11 21 -11 11 0 18 4 14 9 -3 5 0 13 6
17 6 3 15 0 20 -7 7 -11 9 -10 9 3 0 21 33 44 78 53 31 6 33 6 27 -18 -4 -16
0 -35 11 -52 18 -27 25 -28 92 -9 18 5 21 3 16 -11 -5 -13 -2 -16 17 -13 16 2
23 9 22 21 0 11 4 16 11 14 7 -3 19 -2 26 3 10 6 7 18 -13 52 -23 40 -55 76
-63 71 -7 -4 -64 22 -64 29 0 4 -7 4 -17 1 -11 -4 -14 -3 -9 5 8 13 7 13 -64
2z"/>
</g>
</svg>
