<?xml version="1.0" standalone="no"?>
<!DOCTYPE svg PUBLIC "-//W3C//DTD SVG 20010904//EN"
 "http://www.w3.org/TR/2001/REC-SVG-20010904/DTD/svg10.dtd">
<svg version="1.0" xmlns="http://www.w3.org/2000/svg"
 width="750.000000pt" height="750.000000pt" viewBox="0 0 750.000000 750.000000"
 preserveAspectRatio="xMidYMid meet">
<metadata>
Created by potrace 1.16, written by Peter Selinger 2001-2019
</metadata>
<g transform="translate(0.000000,750.000000) scale(0.100000,-0.100000)"
fill="#000000" stroke="none">
<path d="M640 7477 c0 -13 6 -29 12 -35 10 -10 10 -15 -2 -22 -8 -5 -10 -10
-4 -10 7 0 14 -6 17 -13 7 -20 -44 -13 -59 8 -9 12 -17 15 -26 8 -7 -5 -35
-10 -61 -11 -28 -1 -54 -8 -63 -17 -9 -8 -24 -15 -35 -15 -11 0 -22 -8 -25
-17 -18 -55 -59 -140 -73 -151 -9 -7 -40 -35 -68 -63 -52 -49 -162 -119 -188
-119 -8 0 -26 -5 -40 -12 -23 -10 -25 -16 -25 -74 l0 -63 33 -5 c17 -2 52 -4
76 -4 26 1 47 -4 49 -10 5 -16 33 -15 52 1 19 16 50 74 50 93 0 8 11 24 25 36
13 11 32 43 41 70 8 26 20 48 25 48 5 0 15 11 21 25 6 14 17 25 23 25 19 0 75
-31 75 -41 0 -5 7 -9 16 -9 14 0 14 -2 0 -22 -9 -12 -16 -30 -16 -40 0 -12 -7
-17 -21 -15 -15 1 -23 -4 -25 -18 -1 -11 -8 -21 -13 -23 -6 -2 -11 -12 -11
-23 0 -12 -7 -19 -20 -19 -14 0 -21 -9 -26 -37 -4 -21 -13 -50 -22 -65 -17
-29 -8 -62 27 -105 16 -20 22 -21 52 -11 98 31 165 75 175 114 3 13 12 24 20
24 8 0 14 8 14 18 0 10 18 27 44 41 42 23 76 71 76 106 0 19 61 75 82 75 9 0
20 5 24 11 10 17 86 4 101 -17 9 -12 13 -14 13 -4 0 7 3 11 6 7 3 -3 3 -10 0
-16 -4 -5 -8 -51 -10 -101 -2 -50 -8 -96 -15 -103 -6 -6 -11 -17 -11 -24 0
-28 -49 -91 -77 -98 -15 -3 -35 -12 -43 -20 -8 -7 -31 -18 -50 -24 -49 -16
-66 -44 -43 -75 10 -13 30 -29 46 -36 16 -7 31 -20 33 -29 3 -9 10 -24 15 -33
5 -10 9 -34 9 -54 0 -20 8 -49 17 -65 13 -22 15 -35 7 -56 -8 -24 -17 -29 -62
-36 -28 -5 -52 -13 -52 -17 0 -5 -16 -9 -35 -8 -51 2 -63 -14 -42 -57 9 -20
17 -42 17 -50 0 -8 4 -15 8 -15 11 0 33 -86 26 -103 -5 -14 -64 -22 -64 -8 0
4 -12 14 -26 21 -14 8 -32 30 -40 48 -16 39 -61 82 -85 82 -9 0 -19 7 -23 15
-3 8 -14 15 -24 15 -25 0 -49 26 -30 32 8 3 4 18 -15 51 -21 35 -34 47 -52 47
-13 0 -25 -5 -27 -12 -3 -8 -9 -8 -23 -1 -16 9 -24 4 -52 -33 -18 -24 -36 -58
-40 -76 -3 -18 -9 -35 -12 -38 -3 -3 -17 -25 -30 -50 -13 -25 -29 -50 -35 -56
-15 -16 -93 -26 -101 -14 -3 5 -10 10 -16 10 -5 0 -9 -358 -8 -937 0 -910 1
-939 20 -968 11 -16 22 -38 25 -47 4 -10 10 -18 14 -18 5 0 11 -8 14 -18 10
-30 66 -88 74 -76 4 6 19 14 34 18 15 3 35 17 44 31 9 14 20 25 25 25 4 0 27
18 51 40 24 22 51 42 61 46 9 3 17 9 17 13 0 4 11 13 25 19 20 9 41 9 93 -2
81 -17 284 -38 332 -35 98 8 136 0 174 -35 20 -19 36 -41 36 -48 0 -8 5 -19
11 -25 11 -11 17 -54 36 -235 6 -65 8 -63 -104 -102 -61 -21 -87 -24 -258 -26
-104 -1 -193 -4 -197 -6 -4 -3 -72 -6 -150 -7 -198 -2 -235 10 -264 86 -3 9
-15 17 -26 17 -14 0 -18 5 -14 16 5 13 2 15 -16 10 -13 -3 -31 -6 -40 -6 -17
0 -18 -28 -18 -445 0 -428 1 -445 19 -455 29 -15 50 -2 49 29 -1 15 13 54 31
87 29 54 36 60 84 76 57 18 64 18 176 -7 72 -16 74 -16 93 4 10 12 30 21 44
21 14 0 44 11 68 25 32 19 63 26 129 31 48 4 91 12 94 18 6 9 14 44 26 122 6
34 17 45 71 70 57 27 170 33 209 12 25 -13 77 -66 77 -78 0 -4 7 -13 15 -20
16 -14 21 -50 6 -50 -5 0 -12 -30 -16 -67 -3 -38 -8 -80 -10 -94 -3 -23 -1
-25 19 -22 20 4 26 16 42 85 11 44 26 86 34 94 29 28 78 64 86 65 5 0 23 18
41 40 l31 39 -18 63 c-18 64 -34 100 -57 125 -7 7 -13 22 -13 33 0 12 -9 21
-27 25 -16 3 -37 9 -48 14 -11 4 -28 11 -38 14 -12 4 -16 12 -13 23 3 10 -1
31 -9 47 -8 15 -15 35 -15 42 0 8 -4 14 -10 14 -5 0 -10 18 -10 40 0 22 5 40
10 40 21 0 10 69 -15 94 -29 29 -31 39 -10 60 8 8 15 21 15 30 0 16 71 52 120
60 48 7 97 -12 141 -55 45 -44 44 -35 15 -163 -12 -51 -13 -73 -5 -83 6 -7 8
-13 5 -13 -4 0 1 -13 11 -30 9 -16 20 -30 24 -30 3 0 20 22 37 50 27 43 29 52
19 79 -8 23 -8 36 3 58 7 15 12 42 11 58 -1 17 8 59 20 95 24 72 34 230 16
242 -6 4 -12 51 -14 112 -2 57 -8 117 -14 133 -6 15 -17 75 -23 133 -11 90
-18 113 -46 159 -27 44 -34 66 -36 115 -4 92 -16 177 -28 200 -29 53 -50 76
-70 76 -27 0 -66 27 -66 46 0 8 -4 14 -9 14 -5 0 -16 16 -25 35 -15 32 -16 37
-1 57 12 18 14 39 9 98 -6 70 -4 79 25 134 35 65 38 91 15 124 -17 25 -44 119
-45 160 0 15 -5 36 -10 47 -9 19 -9 18 -5 -3 2 -12 0 -20 -5 -16 -5 3 -9 23
-9 45 0 21 -4 39 -10 39 -5 0 -10 7 -10 15 0 8 -4 15 -9 15 -5 0 -11 17 -15
38 -3 22 -19 51 -38 71 -50 52 -78 93 -78 112 0 25 65 89 92 91 58 3 112 -11
190 -53 13 -6 21 -3 33 13 8 13 15 30 15 38 0 41 22 52 120 54 83 2 95 5 112
25 21 27 24 53 5 46 -9 -4 -11 7 -9 42 5 61 16 75 48 63 16 -6 24 -6 24 1 0 5
18 29 40 51 22 23 40 45 40 49 0 4 23 12 50 19 28 7 50 15 50 18 0 4 21 30 48
59 53 59 126 93 197 93 24 0 46 4 50 9 3 5 19 9 35 9 33 -1 70 26 70 51 0 9 9
27 20 41 11 14 20 31 20 38 0 7 7 12 16 10 9 -2 24 12 38 37 13 22 47 57 77
77 30 21 59 45 65 53 6 8 16 15 22 15 6 0 18 18 28 39 12 27 27 44 48 52 64
24 257 115 278 131 22 17 -34 18 -1109 18 l-1133 0 0 -23z m-330 -1473 c35 -3
72 -10 81 -15 10 -5 28 -9 41 -9 13 0 50 -14 83 -30 33 -17 65 -30 72 -30 10
0 28 -77 25 -107 -1 -10 -102 -33 -127 -28 -11 2 -53 12 -94 24 -54 15 -79 18
-92 10 -12 -6 -44 -7 -78 -3 -46 5 -61 11 -69 28 -20 42 -21 57 -8 89 8 17 19
45 25 61 10 25 15 28 44 22 18 -4 61 -10 97 -12z m621 -550 c34 -17 79 -77 79
-105 0 -13 -10 -38 -22 -56 -30 -44 -73 -45 -106 -4 -46 59 -72 96 -78 114 -4
9 -12 17 -19 17 -7 0 -15 9 -18 21 -4 14 1 23 16 29 27 11 113 2 148 -16z
m-319 -1905 l38 -10 -6 -52 c-3 -29 -5 -61 -5 -73 1 -21 -34 -44 -67 -44 -21
0 -150 -30 -177 -41 -11 -5 -31 -7 -45 -4 -97 17 -118 32 -106 78 9 36 30 55
79 68 23 6 58 21 77 33 19 13 46 30 60 39 29 18 98 21 152 6z"/>
<path d="M4360 7491 c0 -13 71 -59 103 -67 16 -3 49 -26 75 -50 25 -24 58 -46
74 -49 15 -4 28 -13 28 -20 0 -7 12 -23 28 -34 15 -12 39 -32 55 -46 29 -26
77 -34 77 -12 0 6 -14 19 -32 26 -18 8 -27 16 -20 19 6 2 26 -4 43 -12 69 -34
137 -7 123 50 -4 15 2 27 22 43 54 42 94 21 144 -79 17 -33 30 -75 30 -96 0
-20 9 -48 20 -65 12 -16 20 -35 18 -43 -4 -18 53 -116 67 -116 6 0 27 -16 46
-36 18 -19 56 -52 82 -71 77 -57 131 -165 148 -297 7 -54 23 -99 71 -195 34
-70 71 -139 83 -156 31 -42 40 -110 19 -142 -14 -22 -15 -35 -3 -107 6 -44 13
-146 15 -226 6 -358 8 -387 26 -406 13 -16 17 -42 17 -148 0 -112 3 -132 20
-150 24 -28 44 -90 36 -116 -4 -13 2 -36 14 -61 12 -22 21 -55 21 -75 0 -45
-20 -127 -34 -136 -6 -4 -9 -33 -8 -65 6 -143 5 -171 -6 -222 -7 -30 -16 -59
-21 -65 -4 -6 -11 -53 -15 -104 -3 -50 -13 -109 -22 -130 -11 -27 -13 -52 -9
-94 4 -32 1 -129 -5 -215 -10 -119 -10 -183 -2 -257 9 -78 8 -105 -2 -135 -7
-20 -21 -63 -31 -95 -9 -33 -44 -113 -76 -179 l-58 -118 3 -211 4 -210 30 -42
c54 -76 66 -123 59 -244 -9 -171 -83 -451 -148 -561 -12 -20 -35 -72 -51 -116
-16 -44 -51 -121 -78 -170 -28 -53 -57 -125 -69 -173 -11 -45 -28 -96 -37
-113 -24 -47 -119 -139 -143 -139 -11 0 -25 -8 -30 -17 -16 -27 -14 1 4 70 19
73 19 70 -9 65 -20 -4 -25 0 -30 25 l-6 29 -46 -37 c-80 -66 -127 -125 -111
-141 3 -3 -10 -20 -29 -36 -19 -17 -34 -38 -32 -47 2 -9 -11 -26 -32 -40 -37
-25 -54 -38 -103 -86 -46 -44 -73 -64 -62 -46 6 11 4 13 -9 8 -10 -4 -24 -7
-32 -7 -10 0 -11 -6 -4 -26 9 -21 6 -29 -12 -45 -15 -12 -32 -17 -49 -13 -21
4 -37 -5 -87 -54 -44 -43 -70 -60 -90 -61 -15 0 -34 -1 -44 -1 -9 -1 -23 -16
-32 -33 -8 -18 -16 -27 -16 -20 0 7 -18 18 -40 24 -51 16 -99 3 -220 -56 -18
-9 -29 -10 -42 -2 -13 9 -26 7 -53 -6 -45 -22 -45 -22 -45 7 0 28 -15 43 -23
22 -10 -26 -180 -17 -262 14 -11 5 -27 10 -35 13 -8 2 -19 6 -25 8 -5 1 -18
13 -28 26 -10 13 -25 23 -33 23 -9 0 -30 11 -49 25 -18 14 -37 25 -41 24 -5
-1 -17 1 -28 6 -12 5 -21 3 -27 -6 -7 -11 -12 -10 -28 6 -12 11 -33 31 -47 45
-14 14 -30 38 -36 53 -8 21 -13 25 -23 17 -9 -7 -16 -6 -25 5 -7 8 -19 15 -27
15 -9 0 -29 12 -47 26 -17 14 -48 38 -68 53 -20 15 -52 47 -70 71 -18 24 -42
48 -53 54 -11 6 -22 12 -24 14 -3 1 -8 30 -12 65 -7 60 -30 96 -70 109 -6 2
-14 22 -18 43 -5 32 -11 41 -29 43 -13 2 -28 14 -34 27 -6 13 -19 26 -29 28
-13 3 -19 14 -19 31 0 14 -5 26 -10 26 -6 0 -19 17 -28 38 -32 69 -45 82 -78
82 -21 0 -34 6 -38 17 -6 15 8 32 27 33 4 0 7 6 7 14 0 9 -11 13 -32 12 -29
-1 -33 2 -36 29 -2 16 -14 42 -27 57 -13 16 -22 34 -20 41 3 6 -11 23 -30 37
-44 32 -65 68 -46 79 11 7 10 10 -2 17 -13 8 -13 14 -1 51 14 41 13 44 -16 95
-17 29 -36 65 -42 80 -16 36 -37 43 -62 19 -26 -24 -131 -71 -160 -71 -12 0
-32 -7 -44 -16 -27 -18 -82 -15 -93 6 -4 8 -21 46 -38 83 -59 129 -131 102
-147 -56 -9 -91 -37 -136 -94 -155 -25 -8 -67 -23 -95 -34 -27 -11 -67 -26
-87 -34 -21 -8 -49 -24 -64 -36 -22 -20 -38 -23 -115 -25 -98 -1 -107 -5 -178
-71 -51 -47 -84 -57 -107 -31 -16 18 -16 21 1 59 10 22 24 40 32 40 7 0 16 14
20 30 3 17 9 30 14 30 5 0 9 6 9 13 0 8 9 22 20 32 27 24 25 42 -10 94 -38 56
-39 107 -5 175 43 85 62 97 156 97 70 1 78 -3 124 -63 21 -28 44 -48 55 -48
33 0 117 143 107 181 -3 10 -1 19 4 19 5 0 9 8 9 18 0 40 49 65 150 77 52 6
79 23 73 46 -7 26 -66 52 -105 47 -16 -3 -33 1 -39 9 -6 7 -21 13 -33 13 -11
0 -32 6 -46 13 -34 18 -117 -7 -126 -37 -8 -26 -48 -58 -92 -74 -20 -6 -41
-21 -49 -32 -8 -11 -20 -20 -28 -20 -8 0 -19 -8 -24 -19 -6 -10 -22 -22 -36
-25 -14 -4 -25 -12 -25 -20 0 -37 -132 -35 -212 4 -21 10 -60 24 -86 31 -39
10 -53 19 -67 46 -19 35 -22 101 -5 133 13 24 13 67 1 75 -17 10 -105 13 -128
4 -30 -11 -39 -65 -20 -126 8 -26 14 -61 12 -78 -1 -16 -3 -43 -3 -58 -1 -18
-16 -42 -42 -67 -22 -22 -40 -46 -40 -54 0 -29 23 -29 49 1 34 39 50 43 86 24
67 -36 72 -43 77 -106 3 -36 0 -78 -8 -105 -8 -25 -14 -71 -14 -102 0 -31 -5
-60 -11 -64 -6 -3 -8 -15 -6 -26 7 -24 -2 -50 -13 -43 -5 3 -15 -3 -22 -13
-13 -19 -32 -20 -76 -7 -16 6 -22 3 -22 -8 0 -9 8 -18 18 -20 16 -4 16 -5 0
-6 -27 -2 -21 -15 12 -28 31 -12 60 -61 60 -103 0 -12 7 -20 18 -20 22 0 -69
-46 -110 -55 -17 -4 -47 -16 -65 -26 -33 -19 -74 -25 -85 -13 -4 3 -2 18 2 34
11 38 3 68 -20 75 -24 8 -32 31 -16 47 7 7 12 18 12 23 0 6 9 12 20 13 30 6
37 18 23 40 -16 25 -49 36 -49 16 0 -16 -12 -18 -26 -5 -5 5 -18 11 -29 13
-17 3 -20 11 -20 53 -1 28 -4 61 -8 75 -7 22 -4 28 17 40 32 16 75 1 83 -30 3
-11 11 -20 18 -20 8 0 17 -9 20 -20 3 -11 12 -20 20 -20 8 0 17 -9 20 -21 4
-12 13 -19 23 -17 10 2 22 -5 29 -16 11 -20 12 -20 23 6 14 30 6 79 -13 75
-17 -3 -21 51 -6 80 11 20 9 29 -7 61 -19 35 -23 37 -73 40 -36 2 -57 -1 -62
-10 -11 -17 -93 -24 -225 -18 -62 3 -125 3 -140 0 l-29 -5 -3 -423 c-2 -417
-2 -422 19 -440 11 -9 27 -29 34 -43 13 -25 12 -29 -20 -62 l-35 -36 0 -456 0
-455 1347 5 c1712 7 3245 7 4871 0 l1282 -5 0 3106 c0 3256 1 3134 -38 3134
-17 0 -22 30 -27 164 -4 127 6 216 26 216 5 0 9 7 9 15 0 8 7 15 15 15 13 0
15 34 15 249 0 137 -3 256 -6 265 -3 9 -12 16 -19 16 -8 0 -17 9 -20 20 -3 11
-15 25 -26 30 -14 8 -19 21 -19 49 0 34 4 40 28 46 15 4 21 10 15 12 -7 3 -13
9 -13 14 0 6 4 8 9 4 5 -3 13 0 16 6 4 5 13 8 21 5 9 -4 14 2 14 16 0 16 -3
19 -11 11 -16 -16 -82 7 -116 40 -15 15 -37 36 -49 47 -21 20 -38 20 -1493 20
-819 0 -1471 -4 -1471 -9z"/>
<path d="M55 7473 c-44 -7 -48 -15 -41 -76 l7 -55 42 -4 c24 -2 53 2 67 9 14
7 38 18 53 23 16 6 31 19 34 30 3 11 9 20 15 20 5 0 4 8 -1 19 -7 11 -26 21
-48 24 -21 3 -51 8 -68 10 -16 3 -43 3 -60 0z"/>
<path d="M4533 3753 c-9 -25 -23 -33 -58 -33 -53 0 -76 -11 -70 -31 5 -15 1
-17 -32 -12 -43 7 -118 7 -150 1 -27 -5 -42 -18 -22 -18 12 0 12 -2 -1 -10
-28 -18 1 -23 35 -7 53 25 73 23 67 -8 -5 -28 -6 -28 -152 -28 -64 1 -94 -4
-121 -18 -20 -10 -39 -16 -42 -12 -3 3 -18 -4 -32 -15 -14 -11 -45 -23 -68
-27 -23 -4 -65 -18 -94 -33 -39 -19 -52 -32 -57 -54 -4 -21 -11 -28 -31 -29
-14 -1 -31 -2 -37 -3 -7 0 -13 -13 -14 -28 -1 -15 -6 -34 -13 -41 -16 -20 -3
-124 21 -162 10 -16 18 -37 18 -45 0 -8 13 -29 29 -46 23 -26 38 -32 87 -38
43 -4 67 -2 88 9 15 8 41 15 56 15 15 0 41 7 56 15 16 8 43 15 59 15 30 0 41
10 71 66 9 18 9 25 -2 36 -8 8 -12 22 -8 31 6 17 73 24 161 18 18 -1 45 5 60
12 16 8 47 18 70 22 24 4 45 11 49 16 3 5 21 9 40 9 35 0 35 -1 32 -36 -2 -30
1 -38 19 -45 17 -6 29 -2 50 15 34 28 75 38 168 40 106 3 112 4 118 26 3 12 0
20 -7 20 -7 0 9 22 36 50 53 55 57 67 28 98 -11 12 -16 24 -10 27 12 7 10 57
-3 66 -4 3 -11 28 -15 55 -6 37 -12 48 -24 46 -9 -1 -18 6 -21 18 -4 14 -13
20 -34 20 -16 0 -33 3 -37 8 -4 4 -43 7 -86 8 -55 0 -85 5 -103 17 -34 22 -66
22 -74 0z"/>
<path d="M1595 3681 c-23 -4 -35 -17 -52 -50 -12 -24 -29 -51 -38 -61 -15 -16
-15 -21 -2 -47 13 -24 13 -33 1 -61 -7 -18 -11 -39 -8 -47 7 -17 64 -31 73
-17 3 5 22 10 41 11 60 1 154 36 168 62 14 27 8 66 -14 90 -8 9 -12 18 -9 21
3 3 -1 11 -10 18 -8 7 -15 28 -15 46 0 33 -1 34 -39 34 -22 0 -45 2 -53 4 -7
2 -26 1 -43 -3z"/>
<path d="M2393 3633 c-18 -7 -16 -23 3 -23 11 0 2 -13 -25 -39 -22 -21 -41
-44 -41 -50 0 -16 8 -14 31 8 25 23 106 51 147 51 15 0 47 -9 70 -20 66 -32
95 -43 117 -46 10 -1 21 -6 23 -12 2 -6 11 -8 20 -5 10 4 14 2 9 -3 -5 -5 -77
-9 -160 -9 -106 0 -159 -4 -175 -13 -12 -7 -20 -16 -18 -21 3 -4 -2 -20 -10
-35 -17 -34 -19 -86 -2 -86 6 0 36 19 67 43 58 44 91 66 103 67 3 0 14 -21 24
-47 26 -70 49 -99 99 -123 33 -16 53 -20 77 -15 32 7 68 24 78 36 3 3 16 20
30 37 l24 30 23 -26 c25 -30 28 -38 13 -47 -21 -13 -9 -27 19 -22 15 3 33 1
40 -6 19 -19 13 -52 -11 -62 -13 -6 -24 -20 -26 -33 -2 -13 -10 -26 -18 -29
-16 -6 -19 -33 -4 -33 6 0 10 -7 10 -16 0 -8 4 -13 9 -10 5 3 29 8 52 11 75
10 116 45 144 123 19 51 32 60 78 53 4 0 7 4 7 10 0 16 -33 69 -43 69 -4 0
-22 14 -40 30 -18 17 -53 40 -79 52 -48 21 -52 27 -49 61 1 9 -4 17 -11 17
-10 0 -10 2 1 9 11 7 8 13 -13 26 -25 17 -60 21 -96 13 -9 -2 -14 4 -14 15 1
13 -6 17 -32 17 -18 0 -48 6 -66 14 -63 26 -116 34 -164 23 -39 -9 -48 -8 -58
5 -10 13 -13 13 -24 1 -7 -7 -18 -11 -23 -7 -6 3 -26 6 -45 6 -19 0 -37 4 -40
9 -6 10 -12 10 -31 2z"/>
<path d="M1751 3111 c-8 -5 -20 -31 -27 -58 -22 -82 -16 -133 15 -133 9 0 26
-7 38 -15 27 -19 87 -11 120 15 14 11 22 20 17 20 -5 0 -2 5 6 10 8 6 33 9 55
8 49 -3 54 10 26 74 -17 40 -24 46 -58 51 -21 4 -51 7 -66 7 -16 0 -35 7 -43
15 -17 17 -61 20 -83 6z"/>
<path d="M1140 3010 c-7 -16 -29 -40 -49 -52 -40 -24 -80 -66 -81 -85 0 -7 15
-20 33 -28 63 -31 77 -40 77 -49 0 -5 9 -17 20 -26 l21 -18 -21 -39 c-12 -21
-32 -48 -45 -59 -38 -35 -75 -101 -75 -135 0 -19 -8 -37 -21 -48 l-21 -17 26
1 c14 1 28 4 31 7 3 2 26 2 51 -2 46 -7 48 -6 103 43 31 28 59 59 63 69 4 10
12 18 18 18 5 0 10 7 10 15 0 8 14 28 30 45 17 17 30 35 30 40 0 6 4 10 9 10
22 0 86 76 102 122 11 32 25 54 40 62 13 6 26 22 27 35 3 20 0 23 -17 18 -12
-3 -19 -2 -16 3 3 4 -1 13 -8 18 -10 8 -20 5 -40 -14 -15 -14 -27 -29 -27 -34
0 -19 -55 -37 -102 -32 -37 3 -52 10 -75 36 -39 44 -53 71 -53 101 0 35 -25
32 -40 -5z"/>
<path d="M523 2964 c-3 -9 0 -40 7 -70 12 -48 11 -59 -3 -89 -10 -22 -26 -37
-43 -41 -39 -10 -124 3 -169 26 -21 11 -56 20 -77 20 -32 0 -40 -4 -48 -26
-17 -43 -12 -129 8 -145 48 -40 158 -52 256 -27 40 10 64 27 129 90 44 43 86
78 93 78 8 0 14 6 14 14 0 7 9 16 20 19 38 10 34 35 -11 78 -39 37 -132 89
-160 89 -5 0 -12 -7 -16 -16z"/>
<path d="M1530 2733 c-8 -4 -20 -13 -27 -22 -7 -9 -13 -11 -13 -6 -2 19 -19
-30 -19 -57 -1 -22 4 -28 19 -28 11 0 20 -5 20 -11 0 -5 5 -7 12 -3 7 4 24 9
39 11 27 3 68 36 88 70 18 33 -4 53 -57 52 -26 0 -54 -3 -62 -6z"/>
<path d="M3890 2481 c0 -6 16 -18 36 -26 54 -22 80 -56 87 -110 13 -95 -20
-148 -130 -211 -26 -15 -66 -42 -88 -59 -104 -82 -214 -147 -256 -152 -40 -5
-69 -24 -69 -46 0 -4 9 -5 20 -2 27 8 27 -18 1 -47 -11 -11 -28 -43 -37 -69
-10 -27 -21 -49 -25 -49 -4 0 -10 -11 -13 -25 -4 -14 -13 -25 -20 -25 -8 0
-17 -7 -20 -16 -3 -9 -13 -14 -21 -10 -8 3 -17 1 -20 -5 -7 -10 -90 -6 -142 7
-36 9 -54 33 -48 61 5 22 5 22 -25 5 -20 -11 -29 -23 -27 -34 6 -22 -53 -32
-68 -11 -7 10 -20 12 -36 8 -21 -5 -25 -11 -21 -31 3 -17 0 -24 -8 -22 -8 2
-17 -12 -22 -36 -7 -31 -5 -41 9 -51 14 -11 23 -9 53 10 66 41 125 58 177 50
26 -4 53 -10 58 -13 6 -4 62 -8 125 -9 63 -2 151 -4 195 -5 130 -4 438 4 461
12 11 5 28 4 38 -2 12 -7 22 -6 32 3 11 9 18 9 26 1 7 -7 46 -12 96 -12 67 0
89 -4 111 -20 24 -16 38 -18 99 -13 58 5 73 9 77 24 9 26 -31 79 -58 79 -13 0
-32 7 -43 15 -12 8 -45 16 -73 19 -28 3 -72 15 -98 28 -34 17 -47 20 -50 11
-3 -8 -15 -11 -31 -7 -70 14 -78 15 -59 4 16 -10 25 -50 11 -50 -3 0 -19 14
-34 30 -15 17 -35 30 -44 30 -19 0 -20 -4 -5 -32 15 -27 -10 -48 -58 -48 -35
0 -36 3 -33 59 1 22 -2 31 -9 27 -6 -4 -11 -17 -11 -29 0 -15 -3 -18 -11 -10
-6 6 -10 38 -10 72 0 33 -4 61 -10 61 -5 0 -9 -27 -9 -60 0 -48 -4 -63 -22
-80 -12 -11 -27 -20 -32 -19 -6 0 -5 3 2 6 6 2 12 18 12 34 0 16 4 29 10 29 6
0 9 30 8 73 -2 72 15 137 37 137 6 0 24 -20 39 -45 28 -43 46 -57 46 -35 0 6
-7 13 -15 16 -14 6 -17 21 -16 112 1 39 9 68 29 105 15 29 36 75 46 102 10 28
25 57 32 66 8 8 14 21 14 27 0 7 6 12 13 12 6 0 20 12 30 25 17 23 17 27 2 58
-9 19 -33 51 -55 72 -34 33 -47 39 -95 43 -36 3 -55 1 -55 -7z"/>
<path d="M130 2264 c-37 -16 -80 -59 -80 -80 0 -13 90 -64 114 -64 21 0 66 51
66 73 0 23 -19 58 -39 74 -20 15 -19 15 -61 -3z"/>
</g>
</svg>
