<?xml version="1.0" standalone="no"?>
<!DOCTYPE svg PUBLIC "-//W3C//DTD SVG 20010904//EN"
 "http://www.w3.org/TR/2001/REC-SVG-20010904/DTD/svg10.dtd">
<svg version="1.0" xmlns="http://www.w3.org/2000/svg"
 width="535.000000pt" height="535.000000pt" viewBox="0 0 535.000000 535.000000"
 preserveAspectRatio="xMidYMid meet">
<metadata>
Created by potrace 1.16, written by Peter Selinger 2001-2019
</metadata>
<g transform="translate(0.000000,535.000000) scale(0.100000,-0.100000)"
fill="#000000" stroke="none">
<path d="M6 5343 c-4 -4 -6 -277 -5 -607 1 -494 3 -606 15 -628 8 -15 14 -43
14 -63 0 -19 5 -35 11 -35 6 0 9 -9 6 -20 -3 -11 -1 -23 4 -26 5 -3 9 -13 9
-22 0 -36 45 -159 71 -193 16 -20 30 -53 32 -72 2 -20 10 -43 17 -52 8 -9 13
-37 12 -65 -1 -45 3 -53 39 -87 40 -38 50 -69 25 -79 -21 -8 -7 -43 19 -50 20
-5 21 -8 11 -30 -6 -13 -18 -24 -26 -24 -10 0 -6 -8 12 -25 23 -21 26 -31 21
-58 -3 -17 -10 -35 -16 -38 -5 -4 -5 -9 2 -13 6 -4 9 -12 5 -17 -8 -13 25 -38
50 -39 18 0 18 -1 2 -19 -16 -17 -13 -51 4 -51 9 0 32 -55 35 -82 1 -10 10
-29 19 -43 9 -14 12 -25 7 -25 -15 0 -21 -29 -11 -56 6 -14 25 -41 43 -60 17
-19 32 -40 33 -47 0 -7 9 -30 21 -52 11 -22 24 -56 27 -75 4 -19 13 -51 21
-70 21 -52 73 -272 89 -380 64 -421 83 -516 143 -690 42 -120 144 -288 258
-421 25 -29 55 -73 66 -97 12 -24 27 -46 34 -49 7 -2 18 -17 25 -33 10 -25 8
-33 -23 -76 -19 -27 -51 -83 -71 -124 -46 -97 -63 -115 -133 -135 -68 -20
-127 -51 -260 -138 -54 -34 -111 -70 -128 -78 -16 -7 -59 -41 -95 -75 -36 -33
-114 -98 -174 -142 l-108 -82 1336 0 c735 0 1336 4 1336 8 0 4 -6 14 -13 21
-10 10 -8 15 7 27 20 14 20 14 -1 14 -11 0 -28 9 -38 20 -10 11 -13 20 -7 20
6 0 13 -6 15 -12 3 -7 6 -2 6 11 1 17 -3 22 -14 17 -8 -3 -15 -1 -15 4 0 6 4
10 8 10 14 0 8 45 -7 57 -9 6 -26 9 -38 6 -18 -4 -25 0 -32 18 -5 13 -7 27 -5
31 7 11 49 -9 47 -21 -2 -6 2 -11 7 -11 23 0 7 29 -21 39 -41 14 -52 6 -46
-35 4 -24 2 -34 -7 -34 -9 0 -12 9 -9 24 4 18 -2 32 -21 49 -17 16 -24 31 -20
41 3 9 1 16 -5 16 -14 0 -15 57 -1 63 6 3 5 4 -2 3 -17 -4 -48 12 -48 25 0 6
10 8 23 4 19 -5 20 -4 7 7 -8 7 -21 20 -28 29 -11 14 -10 17 4 15 9 0 19 4 21
11 3 8 -5 11 -26 8 -23 -2 -34 2 -41 15 -13 24 8 41 41 34 19 -5 21 -3 9 5
-16 11 -8 15 25 11 l20 -2 -20 16 c-15 12 -16 16 -5 16 12 1 12 3 -2 14 -27
20 -22 36 12 36 33 0 38 11 14 31 -15 12 -14 14 7 20 23 7 23 7 -3 8 -16 1
-28 5 -28 11 0 5 12 7 28 4 32 -6 50 -8 75 -6 15 2 15 5 5 22 -15 24 -26 25
-48 5 -14 -13 -19 -12 -43 11 -23 21 -31 23 -42 14 -12 -10 -15 -9 -15 8 0 16
-10 24 -39 32 -21 5 -42 17 -45 26 -3 9 -11 12 -18 8 -15 -9 -98 -5 -117 6
-11 6 -15 31 -15 100 -1 88 7 118 24 89 7 -10 13 -8 27 10 11 13 33 24 53 26
54 6 93 17 115 31 11 7 49 12 86 12 36 -1 71 2 77 6 43 26 385 42 414 19 7 -6
30 -13 51 -16 35 -5 37 -4 25 10 -12 14 -9 15 24 9 33 -6 36 -5 31 14 -4 16
-14 20 -44 20 -21 0 -41 5 -44 10 -3 6 -15 10 -26 10 -10 0 -19 5 -19 10 0 6
-7 10 -15 10 -8 0 -15 5 -15 10 0 6 5 10 12 10 6 0 9 2 6 5 -8 9 -38 -6 -32
-16 3 -5 -2 -9 -10 -9 -9 0 -16 4 -16 9 0 5 -9 11 -20 14 -23 6 -93 -27 -82
-38 4 -5 -2 -5 -13 -1 -11 4 -69 10 -130 13 -60 2 -135 9 -165 15 -73 13 -193
17 -201 5 -4 -5 -15 -5 -27 2 -11 6 -28 8 -36 5 -26 -10 -19 31 9 52 14 10 23
25 20 31 -6 17 11 17 21 1 5 -8 11 -2 16 17 5 21 3 36 -10 55 -9 14 -15 29
-14 34 4 12 -39 56 -55 56 -7 0 -13 6 -13 14 0 15 -21 26 -48 26 -10 0 -23 9
-30 21 -12 18 -11 19 7 10 25 -14 41 -14 41 -1 0 5 -11 12 -25 16 -26 6 -33
28 -14 39 7 5 3 16 -12 31 -18 19 -20 26 -9 39 10 12 10 15 0 15 -9 0 -8 6 4
19 16 17 16 19 -4 24 -11 3 -19 11 -18 18 2 8 -8 15 -22 17 -13 2 -29 11 -36
20 -6 9 -18 13 -28 9 -10 -4 -16 -1 -16 8 0 8 -4 15 -10 15 -5 0 -17 14 -25
30 -9 17 -21 28 -27 24 -5 -4 -14 0 -19 7 -15 24 -10 32 16 27 19 -4 23 -2 15
7 -8 9 -7 14 2 17 7 3 -7 8 -31 12 -42 6 -43 7 -27 25 23 25 18 77 -6 73 -32
-5 -28 16 5 22 19 4 27 10 20 14 -6 4 -13 16 -15 27 -2 15 2 19 17 18 11 -1
14 0 8 3 -18 8 -16 27 2 20 9 -3 15 0 15 8 0 8 -6 17 -12 19 -10 4 -10 6 0 6
7 1 12 14 12 31 0 22 4 28 15 24 8 -4 15 -12 15 -20 0 -19 16 -18 24 1 3 10
-1 18 -12 21 -45 15 -48 17 -29 21 14 4 16 8 6 19 -10 12 -9 13 5 8 21 -8 22
22 1 62 -8 16 -15 57 -16 91 -2 52 -5 62 -22 67 -14 3 -18 10 -12 23 8 21 9
23 7 85 -2 38 -5 46 -17 42 -8 -4 -15 -1 -15 5 0 6 7 11 16 11 12 0 14 5 8 18
-4 9 -8 40 -10 69 -1 28 -5 57 -9 63 -4 6 -4 22 -1 35 3 13 1 27 -4 30 -8 5
-8 11 0 20 7 8 7 15 1 19 -5 3 -7 15 -4 26 3 12 0 20 -7 20 -7 0 -9 8 -5 19 3
11 1 22 -5 26 -5 3 -10 14 -10 23 0 15 2 15 11 2 7 -11 8 -6 4 20 -3 19 -7 49
-9 65 -2 17 -7 37 -11 47 -4 10 -1 17 8 20 13 2 12 11 -7 56 -21 50 -23 52
-33 30 -11 -23 -12 -23 -24 10 -8 17 -17 32 -21 32 -4 0 -8 17 -9 38 -1 33 -2
34 -9 12 -8 -24 -8 -24 -9 -2 -1 26 -7 27 -27 7 -18 -17 -34 -20 -34 -5 0 6
-12 10 -26 10 -18 0 -25 4 -21 14 4 9 -3 17 -16 21 l-22 6 23 9 c12 5 22 15
22 21 0 8 -5 7 -17 -2 -15 -12 -16 -12 -10 5 6 15 4 17 -13 13 -22 -6 -28 8
-7 16 6 3 2 6 -11 6 -32 1 -72 49 -72 86 0 8 -5 15 -10 15 -6 0 -8 -10 -4 -24
3 -13 1 -27 -5 -31 -7 -4 -14 6 -17 24 -4 17 -14 33 -25 36 -12 4 -19 16 -19
30 0 15 -7 26 -20 30 -15 5 -20 16 -21 43 -1 33 -2 34 -9 12 -7 -23 -15 -12
-11 18 1 6 -3 12 -9 12 -5 0 -10 -4 -10 -10 0 -5 -9 -10 -20 -10 -11 0 -20 4
-20 10 0 5 6 7 13 5 14 -6 40 31 32 45 -12 19 -26 10 -20 -11 7 -21 5 -22 -31
-15 -22 4 -47 9 -56 10 -28 4 -34 16 -11 22 22 6 21 6 -5 31 -21 20 -24 26
-12 33 12 7 9 11 -10 19 -21 8 -14 10 38 10 58 1 82 14 47 27 -20 8 -19 34 0
34 13 0 13 3 3 20 -8 12 -19 18 -28 14 -8 -3 -21 -8 -27 -11 -9 -4 -12 5 -9
28 2 18 0 43 -5 56 -6 17 -4 23 9 26 16 4 16 5 0 6 -22 1 -24 21 -3 21 21 0
19 17 -5 30 -16 9 -18 15 -10 30 6 11 20 20 30 20 13 0 20 7 20 19 0 26 -17
36 -22 14 -3 -11 -6 -5 -9 15 -3 17 -2 32 3 32 4 0 8 -4 8 -10 0 -5 5 -10 10
-10 6 0 10 7 10 15 0 8 5 15 11 15 6 0 8 -9 3 -22 -6 -20 -5 -21 8 -10 9 7 23
9 33 6 15 -6 16 -4 6 14 -7 12 -16 22 -21 22 -6 0 -10 12 -10 26 0 19 -4 25
-15 20 -10 -4 -15 1 -15 14 0 11 -4 20 -10 20 -5 0 -10 5 -10 10 0 6 7 10 15
10 8 0 15 5 15 10 0 6 -9 10 -21 10 -16 0 -19 4 -14 20 4 12 2 20 -5 20 -8 0
-11 11 -8 30 4 25 1 30 -15 30 -13 0 -17 5 -13 15 3 9 0 15 -9 15 -7 0 -17 -9
-20 -20 -3 -11 -10 -20 -16 -20 -14 0 -41 72 -36 97 2 12 1 21 -3 20 -4 -1
-17 9 -29 22 -12 14 -27 21 -36 17 -8 -3 -15 -1 -15 4 0 10 13 14 43 11 9 -1
17 3 17 8 0 6 -10 12 -22 12 -19 1 -17 3 7 9 17 4 22 8 13 9 -10 0 -18 6 -18
12 0 18 -30 -11 -31 -30 0 -13 -1 -14 -6 -1 -3 8 -12 23 -21 33 -16 18 -3 24
15 6 8 -8 13 -7 18 3 5 7 5 10 0 6 -13 -13 -43 55 -38 87 3 17 7 32 9 34 4 4
8 -43 6 -61 -1 -3 6 -12 14 -19 13 -10 17 -10 24 1 5 8 12 11 16 7 4 -3 1 -14
-7 -23 -11 -14 -10 -16 11 -12 17 2 24 9 22 20 -2 13 3 16 22 12 14 -2 28 1
32 7 4 8 3 9 -4 5 -7 -4 -12 -3 -12 3 0 5 5 13 10 16 6 4 8 11 5 16 -8 13 -17
51 -17 72 1 20 -14 23 -21 5 -10 -29 -20 5 -11 40 8 34 7 40 -21 67 -48 49
-87 96 -82 101 3 3 17 -11 32 -30 31 -40 40 -40 48 4 4 16 11 30 17 30 7 0 8
-6 2 -17 -5 -10 -8 -29 -6 -43 3 -19 2 -22 -6 -10 -6 10 -10 11 -10 3 0 -13
39 -58 44 -51 2 1 8 12 14 23 11 20 11 20 12 -1 0 -19 5 -21 48 -19 31 2 34 1
10 -2 -41 -4 -47 -13 -23 -33 15 -12 26 -11 114 16 16 5 22 4 18 -3 -4 -6 -36
-19 -72 -28 -50 -14 -65 -22 -65 -36 0 -11 -4 -19 -10 -19 -5 0 -7 13 -3 32 4
22 3 29 -5 24 -7 -4 -11 -25 -10 -47 1 -35 4 -39 22 -33 15 4 17 3 7 -4 -11
-8 -9 -11 8 -17 25 -7 27 -20 6 -29 -20 -7 -19 -33 2 -54 15 -16 16 -15 11 10
-3 18 0 29 9 32 8 3 11 10 8 16 -3 5 3 10 14 10 19 0 20 2 9 20 -7 11 -14 16
-16 10 -2 -5 -8 -10 -13 -10 -4 0 -6 7 -3 15 7 17 59 21 69 5 3 -5 13 -10 22
-10 13 0 13 3 3 15 -10 12 -9 15 5 15 9 0 19 -9 22 -20 3 -11 9 -20 14 -20 20
0 7 -20 -13 -21 -23 0 -23 0 1 -10 19 -7 28 -6 40 6 11 11 12 15 3 15 -8 0
-10 5 -6 12 5 8 13 4 25 -11 10 -12 23 -20 29 -16 6 4 20 -3 31 -16 22 -26 26
-5 4 25 -12 16 -12 21 8 37 22 18 22 18 -17 16 -26 -1 -41 3 -44 12 -3 10 1
12 17 8 11 -3 24 -1 27 4 3 5 -1 9 -8 9 -9 1 -7 5 5 14 21 16 22 62 1 70 -16
6 -53 -9 -67 -28 -6 -7 -7 -5 -4 6 7 19 -16 31 -31 16 -7 -7 -16 -7 -28 0 -13
7 -22 6 -32 -4 -7 -8 -18 -12 -23 -8 -5 3 4 16 20 30 32 27 50 32 31 9 -10
-13 -9 -15 8 -15 22 0 59 43 42 48 -16 6 -12 22 5 22 8 0 15 7 15 15 0 8 -4
15 -10 15 -5 0 -10 5 -10 11 0 8 5 7 16 -2 16 -13 19 -12 44 33 13 22 -21 47
-55 40 -35 -6 -31 -21 5 -19 16 1 30 -2 30 -8 0 -12 -111 -8 -124 5 -7 7 -3
10 9 10 15 0 17 2 6 9 -16 11 -3 19 26 16 19 -1 21 1 11 19 -10 20 -9 20 14
-1 37 -35 44 -27 12 15 l-28 37 49 -43 c50 -44 52 -44 115 -30 8 2 15 -5 17
-14 3 -12 -1 -15 -17 -11 -14 4 -27 -2 -40 -17 -25 -28 -25 -34 -2 -25 9 4 33
9 52 12 19 2 44 10 55 17 18 12 24 12 40 0 17 -13 60 -10 78 5 4 4 -23 13 -60
20 -38 8 -75 17 -83 21 -28 13 -72 21 -66 11 3 -5 -1 -12 -10 -15 -22 -8 -26
-8 -19 4 3 6 1 10 -4 10 -6 0 -11 4 -11 10 0 5 8 7 18 4 13 -4 12 -1 -5 14
-37 32 -27 33 40 2 50 -23 152 -50 188 -50 3 0 21 15 39 33 l33 32 -5 -27 c-6
-33 4 -36 32 -8 11 11 20 17 20 14 0 -4 7 -1 15 6 8 6 19 9 25 5 5 -3 10 -1
10 6 0 6 8 9 20 6 11 -3 25 2 32 10 11 14 9 15 -20 9 -21 -5 -32 -4 -32 3 0 6
6 11 13 11 7 0 20 9 30 20 9 11 24 20 32 20 8 0 15 5 15 10 0 7 -98 10 -290
10 -210 -1 -290 -4 -290 -13 0 -8 -3 -8 -12 1 -18 18 -292 17 -282 0 6 -10 5
-10 -7 -1 -11 9 -161 12 -605 13 -325 0 -594 -3 -598 -7z m569 -545 c17 -18
35 -33 40 -34 23 -3 55 -17 55 -25 0 -5 11 -4 25 1 16 6 25 6 25 0 0 -6 -6
-10 -12 -11 -7 0 -4 -4 7 -8 19 -8 19 -8 -3 -20 -19 -10 -20 -15 -11 -32 7
-14 8 -24 1 -31 -6 -6 -8 -17 -5 -25 4 -9 0 -14 -8 -13 -8 1 -25 1 -39 0 l-25
-2 28 -10 c15 -5 27 -17 27 -26 0 -14 -2 -13 -13 2 -12 16 -14 16 -26 2 -7 -8
-10 -20 -6 -25 3 -7 0 -8 -9 -5 -9 3 -16 2 -16 -4 0 -6 6 -13 13 -15 6 -3 -2
-8 -19 -12 -17 -4 -31 -13 -31 -21 0 -17 14 -18 20 -1 4 9 8 9 16 -3 7 -10 5
-22 -7 -42 -14 -25 -17 -26 -23 -11 -4 12 -8 6 -11 -20 -2 -20 1 -42 6 -47 7
-7 3 -10 -12 -10 -13 0 -22 6 -22 15 0 8 5 15 10 15 6 0 10 8 10 19 0 14 -6
17 -25 13 -29 -5 -28 -3 -15 -37 9 -24 8 -26 -10 -20 -11 4 -20 2 -20 -4 0 -6
-9 -3 -20 7 -11 9 -16 18 -10 20 15 5 12 29 -4 35 -9 4 -12 14 -9 26 3 11 2
29 -2 38 -5 10 -8 21 -7 24 10 51 10 65 1 82 -8 15 -8 22 2 28 9 5 9 9 3 9
-14 0 -25 38 -14 45 5 3 14 38 21 78 7 39 17 75 23 79 27 19 72 8 101 -24z
m1622 -3345 c9 -12 16 -14 19 -6 6 14 51 -29 56 -54 2 -11 11 -17 21 -15 10 2
17 -3 17 -12 0 -10 6 -13 18 -9 12 4 14 3 6 -6 -14 -15 -6 -71 10 -71 19 0 7
-62 -15 -83 -19 -17 -22 -17 -107 6 -91 24 -108 40 -77 70 9 10 11 18 5 22 -6
3 -9 19 -8 35 1 15 -4 35 -11 44 -7 8 -9 21 -5 28 5 7 7 23 6 35 -3 19 7 27
42 32 5 0 15 -7 23 -16z m280 -1043 c-3 -11 -2 -18 2 -16 4 3 13 1 21 -5 11
-6 7 -9 -14 -9 l-30 0 22 -21 c19 -17 21 -27 16 -57 -4 -20 -12 -43 -17 -51
-15 -17 -37 -84 -32 -90 3 -2 5 1 5 7 0 7 4 12 9 12 5 0 11 -19 14 -43 3 -30
0 -46 -11 -54 -14 -12 -14 -14 2 -26 16 -12 16 -15 3 -26 -13 -10 -20 -7 -41
16 -14 15 -26 31 -26 35 0 5 -8 8 -17 8 -13 0 -15 2 -5 8 20 13 -2 58 -31 65
-31 8 -50 47 -31 65 12 10 14 10 14 -3 0 -10 7 -15 18 -13 11 2 16 11 14 26
-2 17 2 22 17 22 14 0 21 -6 21 -19 0 -10 9 -21 20 -24 25 -6 26 1 3 20 -17
14 -17 14 0 9 29 -9 48 4 41 28 -17 50 -11 156 8 156 6 0 8 -9 5 -20z"/>
<path d="M4075 5334 c10 -8 13 -14 7 -14 -7 0 -12 -11 -12 -25 0 -16 6 -25 16
-25 10 0 13 -6 10 -18 -5 -13 1 -22 16 -30 18 -8 19 -11 6 -11 -22 -1 -24 -17
-3 -25 17 -6 21 -36 5 -36 -5 0 -10 4 -10 9 0 5 -8 12 -17 15 -15 6 -15 5 1
-13 10 -11 28 -21 40 -21 11 -1 34 -1 49 -1 22 -1 25 -4 17 -14 -8 -10 -7 -14
2 -18 9 -4 9 -6 -2 -6 -8 -1 -27 6 -42 13 -24 13 -28 13 -28 0 0 -18 -14 -18
-30 1 -7 9 -15 13 -17 11 -3 -2 -27 9 -54 25 -57 33 -67 25 -11 -9 85 -53 108
-87 38 -58 -20 8 -36 12 -36 8 0 -14 42 -43 55 -38 7 2 21 -4 30 -14 16 -18
16 -18 -6 -13 -23 7 -24 6 -6 -21 10 -14 15 -32 11 -38 -5 -7 -3 -8 5 -4 14 9
51 -20 51 -40 0 -7 12 -27 27 -45 l28 -32 -28 7 c-20 5 -29 2 -33 -9 -4 -8 -9
-15 -13 -15 -9 0 -67 56 -85 82 -9 12 -18 19 -22 16 -9 -9 11 -41 51 -81 19
-19 35 -42 35 -51 0 -14 7 -16 35 -10 27 5 35 3 35 -9 0 -8 -7 -17 -15 -21 -8
-3 -12 -12 -9 -21 4 -9 0 -15 -9 -15 -9 0 -19 -5 -23 -12 -5 -8 -1 -9 14 -5
12 4 31 10 42 13 30 10 24 -9 -10 -30 -30 -17 -31 -17 -68 5 -20 13 -53 35
-72 51 -41 33 -56 35 -56 8 0 -12 7 -20 18 -20 9 0 22 -9 28 -20 6 -11 18 -20
26 -20 9 0 29 -9 45 -21 21 -15 37 -19 58 -14 16 3 32 2 35 -4 11 -17 -33 -53
-58 -49 -20 4 -21 2 -12 -19 12 -24 28 -32 24 -10 -2 6 4 11 13 9 9 -1 24 9
33 23 9 14 23 25 32 25 9 0 12 5 8 12 -4 6 -3 8 4 4 5 -3 12 0 15 6 2 7 7 10
11 7 3 -3 -6 -18 -20 -32 -15 -15 -22 -27 -15 -27 6 0 11 -11 11 -24 0 -13 7
-27 16 -30 9 -4 14 -9 10 -13 -3 -4 6 -19 21 -35 24 -25 25 -28 7 -28 -18 -1
-18 -1 -1 -14 9 -7 17 -22 17 -33 0 -10 5 -24 12 -31 9 -9 8 -12 -6 -12 -9 0
-14 5 -11 10 3 6 -5 11 -19 12 -14 0 -30 1 -36 2 -5 1 -10 -3 -10 -9 0 -5 6
-10 13 -10 6 0 15 -4 19 -9 10 -14 55 -18 63 -6 3 5 11 10 16 10 6 0 7 -5 3
-11 -4 -8 3 -9 23 -5 25 6 31 3 36 -13 6 -25 -23 -37 -52 -22 -11 6 -32 11
-48 10 -26 0 -25 -1 12 -17 45 -18 82 -48 72 -59 -4 -3 -7 -1 -7 6 0 8 -7 11
-15 7 -17 -6 -85 23 -85 36 0 4 -11 8 -25 8 -14 0 -25 6 -25 13 0 9 -2 9 -9
-1 -7 -11 -16 -10 -49 7 -48 25 -59 26 -43 7 7 -8 26 -18 42 -21 17 -4 42 -20
57 -36 14 -16 31 -28 37 -25 10 4 45 -26 45 -38 0 -7 -74 16 -92 29 -10 6 -15
15 -11 19 6 6 -58 -4 -66 -10 -2 -2 8 -4 22 -4 15 0 27 -3 27 -8 0 -4 14 -13
31 -21 20 -9 28 -18 24 -29 -3 -9 3 -21 15 -29 11 -8 20 -21 20 -29 0 -21 -28
-17 -40 6 -6 11 -23 23 -38 26 -15 4 -36 13 -47 20 -11 8 -27 14 -37 14 -10 0
-18 5 -18 10 0 6 9 10 20 10 11 0 20 4 20 8 0 17 -13 21 -37 11 -18 -7 -34 -5
-59 7 -19 9 -37 14 -40 11 -8 -8 58 -42 75 -38 9 2 12 -3 8 -13 -5 -12 1 -16
26 -17 30 -1 30 -1 7 -8 -25 -7 -24 -8 13 -25 20 -10 37 -23 37 -28 0 -18 52
-55 156 -109 66 -35 104 -35 83 -1 -7 12 -19 17 -31 14 -19 -5 -26 22 -8 33 6
3 10 -1 10 -9 0 -9 3 -15 8 -15 4 1 20 1 36 0 23 -1 26 -4 17 -15 -9 -10 -8
-15 4 -19 12 -5 13 -11 3 -32 -10 -22 -13 -23 -27 -11 -9 8 -36 17 -61 21 -25
4 -58 17 -74 28 -17 12 -39 22 -50 22 -34 2 -76 17 -76 26 0 13 14 11 36 -6
30 -23 35 -18 10 10 -24 26 -46 33 -46 14 0 -7 -10 -9 -26 -5 -17 5 -23 3 -19
-4 3 -5 13 -10 21 -10 8 0 14 -4 14 -8 0 -4 14 -16 30 -25 17 -10 30 -22 30
-28 0 -5 9 -18 21 -30 13 -13 19 -28 15 -42 -7 -27 10 -47 40 -47 25 0 41 -16
23 -22 -6 -2 7 -17 30 -32 23 -16 40 -34 38 -40 -2 -6 15 -15 37 -21 31 -8 42
-15 44 -32 4 -26 -22 -32 -32 -8 -6 17 -46 21 -46 5 0 -5 9 -10 20 -10 10 0
23 -7 28 -16 15 -26 47 -13 46 18 -1 24 2 27 21 22 13 -3 26 -1 29 4 3 5 -11
13 -31 17 l-37 7 24 19 c14 10 32 19 41 19 28 0 40 25 42 86 2 51 5 60 25 69
13 6 20 16 17 23 -3 8 2 28 10 45 8 18 14 47 12 64 -2 29 -6 33 -32 34 l-30 2
28 4 c15 2 27 10 27 18 0 7 7 15 15 18 8 4 12 15 10 28 -3 13 2 30 9 38 22 25
28 58 15 80 -10 15 -10 25 -1 46 13 29 6 206 -9 237 -6 10 -5 18 2 20 18 6 1
45 -21 51 -11 3 -20 10 -20 17 0 6 4 9 9 6 12 -8 22 34 14 62 -3 12 -1 22 5
22 13 0 9 66 -7 103 -6 16 -11 32 -11 37 0 4 -8 7 -17 5 -10 -1 -12 0 -5 2 24
9 10 85 -31 171 -8 18 -7 29 6 51 12 21 13 31 5 39 -9 9 -7 12 10 12 26 0 27
2 5 60 -31 85 -14 81 -302 79 -223 -1 -253 -3 -236 -15z"/>
<path d="M4652 3829 c-41 -16 -54 -36 -47 -72 4 -17 11 -36 15 -42 9 -13 31
-119 36 -175 3 -25 11 -71 19 -103 8 -32 15 -68 15 -80 0 -42 20 -1 30 63 6
36 15 91 20 123 6 32 15 67 20 78 14 26 -7 177 -28 202 -16 19 -44 21 -80 6z"/>
<path d="M3072 3680 c-22 -18 -45 -27 -76 -29 -24 -1 -57 -5 -72 -10 -16 -4
-53 -6 -82 -4 -29 3 -52 1 -51 -4 3 -14 -13 -43 -23 -43 -6 0 -8 7 -4 15 3 8
1 15 -4 15 -5 0 -11 -8 -13 -17 -4 -17 -5 -17 -6 0 -1 21 -21 23 -21 1 0 -13
-7 -15 -32 -12 -18 3 -41 8 -51 13 -14 6 -16 4 -10 -11 5 -13 3 -16 -10 -11
-9 3 -27 2 -39 -3 -13 -5 -17 -9 -10 -9 23 -2 12 -19 -20 -30 -22 -8 -34 -8
-36 -1 -6 16 -23 12 -43 -11 -10 -12 -25 -19 -33 -16 -9 4 -22 0 -30 -8 -8 -8
-19 -15 -24 -15 -16 0 -43 -37 -46 -62 -1 -13 -5 -28 -7 -33 -3 -6 -5 -17 -4
-25 1 -8 3 -23 3 -33 2 -21 27 -18 27 4 0 8 7 14 15 14 8 0 14 -6 12 -13 -2
-14 14 -16 23 -2 4 6 19 5 40 -4 21 -9 37 -11 40 -5 4 5 13 9 21 9 8 0 12 -4
9 -10 -3 -5 1 -10 10 -10 10 0 15 6 12 13 -3 8 9 13 39 14 24 1 44 -3 44 -8 0
-5 -4 -9 -10 -9 -5 0 -10 -6 -10 -14 0 -8 -15 -25 -32 -37 -38 -27 -52 -43
-74 -83 -15 -27 -15 -32 0 -56 8 -15 13 -30 9 -34 -3 -3 -2 -6 4 -6 5 0 18 9
28 20 18 20 56 21 63 2 2 -7 -3 -15 -12 -18 -24 -9 -20 -44 5 -44 16 0 20 -5
16 -20 -3 -11 -2 -20 3 -20 4 0 18 -11 31 -25 13 -13 32 -25 41 -25 9 0 19 -4
23 -9 3 -5 19 -12 35 -16 17 -4 30 -12 30 -18 0 -7 4 -6 10 3 5 8 10 10 10 5
0 -14 93 -35 105 -24 5 5 35 9 67 9 l59 0 -26 27 c-14 15 -25 30 -25 34 0 3
-7 6 -15 6 -10 0 -13 -6 -10 -18 5 -14 1 -16 -15 -12 -21 6 -28 23 -9 23 5 0
8 4 4 10 -3 5 -11 7 -18 4 -17 -6 -40 33 -25 42 7 4 8 3 4 -4 -4 -7 -1 -12 9
-12 9 0 13 5 10 10 -3 6 1 10 9 10 9 0 16 -7 16 -15 0 -8 4 -15 10 -15 5 0 7
6 4 14 -8 22 14 29 39 13 19 -12 24 -12 36 0 7 8 19 12 26 9 20 -7 36 16 24
34 -8 11 -12 12 -16 3 -2 -7 -11 -13 -18 -13 -7 0 -16 -8 -19 -17 -5 -11 -10
-13 -14 -7 -4 6 -16 14 -27 18 -23 10 -105 14 -105 6 0 -3 -9 -6 -20 -7 -11
-1 -18 2 -15 8 4 5 1 9 -4 9 -6 0 -11 -4 -11 -10 0 -5 -5 -10 -11 -10 -5 0 -7
5 -4 10 3 6 -3 10 -14 10 -11 0 -23 5 -26 10 -3 6 -16 10 -28 11 -22 0 -21 0
2 10 13 5 66 8 117 6 52 -2 94 0 94 5 0 5 9 4 19 -2 14 -7 39 -6 85 4 70 14
99 37 136 108 l20 38 48 -24 c58 -30 84 -40 142 -55 25 -6 77 -20 115 -31 79
-22 128 -27 85 -8 -14 6 -45 18 -70 27 -27 10 -49 25 -55 39 -5 12 -14 22 -20
22 -11 1 -58 70 -52 76 2 3 44 -16 92 -41 49 -25 98 -45 109 -44 19 0 19 1 3
8 -10 4 -18 10 -17 15 0 4 -18 17 -42 28 -24 12 -56 27 -73 35 -57 27 -239 80
-305 87 -14 2 -25 5 -25 6 0 2 -34 5 -75 7 -105 5 -120 7 -120 16 0 10 24 9
53 -2 14 -6 29 -6 38 0 11 7 10 9 -6 9 -11 0 -27 5 -35 11 -11 8 -7 9 18 5 24
-4 32 -2 32 9 0 8 10 17 23 19 12 3 45 10 72 16 28 6 97 13 155 16 58 3 113 6
123 7 9 1 17 5 17 9 0 4 5 8 11 8 5 0 7 -4 4 -10 -3 -5 1 -10 9 -10 27 0 25
16 -5 29 -25 11 -36 11 -67 -2 -25 -10 -43 -12 -54 -6 -11 6 -19 6 -23 -1 -8
-13 -98 -13 -111 0 -5 5 -21 6 -34 3 l-25 -7 25 -7 c23 -6 22 -7 -10 -9 -19
-1 -39 -2 -43 -1 -5 1 -6 -3 -2 -9 9 -14 -28 -12 -49 3 -16 12 -16 13 1 14 32
2 51 9 67 22 10 9 29 12 51 8 20 -3 34 -3 31 1 -2 4 17 8 42 9 108 4 183 11
189 17 3 3 -5 7 -18 7 -13 1 -43 3 -67 4 -23 2 -40 -1 -36 -6 3 -5 -16 -9 -41
-9 -28 0 -44 4 -40 10 3 6 2 10 -4 10 -5 0 -12 -4 -15 -8 -3 -5 -24 -9 -46
-10 -23 -1 -47 -5 -53 -9 -16 -10 -47 -11 -53 -2 -6 10 26 20 75 22 48 2 52 9
14 26 -23 11 -29 10 -40 -5 -12 -16 -13 -15 -13 10 0 15 4 25 10 21 6 -3 10
-1 10 4 0 6 -5 11 -11 11 -5 0 3 11 18 24 l28 25 -30 -1 c-18 -1 -45 -12 -63
-28z"/>
<path d="M2670 2213 c0 -3 6 -14 13 -22 19 -23 103 -163 111 -185 4 -11 2 -23
-5 -27 -9 -5 -8 -12 4 -24 10 -9 22 -25 27 -36 6 -10 17 -19 24 -19 8 0 17 -7
20 -16 3 -8 10 -13 15 -10 4 3 17 -4 27 -15 10 -11 33 -27 51 -35 18 -9 35
-26 39 -37 8 -27 81 -100 88 -88 3 4 26 11 52 14 25 2 51 10 57 17 9 9 4 11
-23 6 -32 -6 -33 -6 -17 8 18 14 18 14 0 19 -16 4 -16 5 0 6 25 2 21 21 -5 22
-22 1 -22 1 2 9 18 6 20 8 7 9 -10 1 -16 5 -12 10 3 5 -5 17 -17 25 -20 14
-21 16 -4 16 11 0 16 3 12 8 -4 4 -13 7 -19 7 -12 0 -13 4 -16 45 0 11 -8 20
-17 20 -8 0 -25 5 -36 11 -16 9 -18 13 -7 20 8 5 16 3 21 -4 4 -6 10 -8 15 -4
11 12 -16 25 -38 20 -11 -3 -21 1 -25 11 -3 9 -13 16 -21 16 -8 0 -11 5 -8 10
3 6 -1 10 -9 10 -10 0 -13 6 -10 15 4 10 -3 18 -20 25 -14 5 -26 16 -26 25 0
8 -7 15 -15 15 -9 0 -18 7 -21 15 -3 8 -22 17 -42 21 -21 4 -39 10 -42 13 -8
10 -109 61 -120 61 -5 0 -10 -3 -10 -7z"/>
<path d="M4356 1457 c-25 -53 -46 -119 -41 -127 3 -5 10 -54 15 -110 6 -55 16
-113 21 -128 6 -15 15 -52 19 -82 13 -95 30 -152 81 -260 52 -110 73 -179 84
-276 4 -33 18 -102 31 -155 25 -101 31 -152 33 -256 l1 -63 375 0 375 0 0 203
0 204 -64 27 c-58 25 -71 36 -122 104 -72 96 -142 181 -210 252 -38 40 -60 76
-84 135 -36 91 -127 268 -173 335 -51 75 -120 134 -200 173 -126 62 -124 61
-141 24z"/>
<path d="M3910 713 c0 -7 -9 -13 -21 -13 -11 0 -17 -5 -14 -10 3 -6 0 -13 -8
-16 -9 -3 -18 -16 -21 -29 -3 -13 -15 -27 -26 -30 -21 -7 -28 -25 -9 -25 5 0
-11 -19 -38 -42 -26 -22 -54 -50 -62 -62 -8 -12 -27 -33 -43 -47 -15 -14 -28
-29 -28 -32 0 -15 -36 -47 -53 -47 -10 0 -15 -5 -12 -10 9 -14 -13 -40 -29
-34 -13 5 -44 -23 -45 -41 -1 -5 -7 -10 -13 -10 -7 0 -22 -8 -32 -17 -11 -10
-26 -18 -33 -18 -7 0 -13 -6 -13 -14 0 -8 -13 -17 -30 -21 -16 -4 -30 -13 -30
-20 0 -17 -30 -34 -48 -28 -7 3 -10 -1 -6 -11 4 -10 -5 -22 -28 -36 -28 -17
-34 -18 -36 -5 -2 8 -8 15 -12 15 -6 0 -5 -11 0 -26 9 -23 8 -26 -9 -21 -14 3
-17 0 -13 -15 3 -11 -3 -25 -14 -33 -18 -14 -18 -14 1 -15 22 0 73 28 103 57
10 10 29 25 42 33 12 8 39 31 59 50 43 43 85 70 106 70 8 0 15 5 15 10 0 6 5
10 11 10 5 0 7 -6 3 -12 -5 -9 -3 -9 9 1 9 7 14 17 11 22 -3 5 1 7 8 4 16 -5
42 14 51 38 4 10 17 17 31 17 18 0 24 4 20 14 -8 22 28 65 54 66 14 0 26 9 32
24 5 13 17 29 27 35 15 9 16 12 3 20 -12 9 -12 11 3 17 11 4 16 13 13 21 -4
11 -1 13 14 8 19 -6 26 7 21 38 -1 4 7 7 16 5 13 -2 19 5 21 24 2 19 7 25 19
21 13 -5 13 -2 -1 26 -14 26 -14 31 -2 31 8 0 17 9 21 19 4 13 12 18 22 14 9
-4 14 -2 11 3 -7 11 17 35 26 27 3 -4 6 -1 6 5 0 7 -11 11 -25 10 -14 -1 -25
-8 -25 -15z"/>
</g>
</svg>
