<?xml version="1.0" standalone="no"?>
<!DOCTYPE svg PUBLIC "-//W3C//DTD SVG 20010904//EN"
 "http://www.w3.org/TR/2001/REC-SVG-20010904/DTD/svg10.dtd">
<svg version="1.0" xmlns="http://www.w3.org/2000/svg"
 width="900.000000pt" height="900.000000pt" viewBox="0 0 900.000000 900.000000"
 preserveAspectRatio="xMidYMid meet">
<metadata>
Created by potrace 1.16, written by Peter Selinger 2001-2019
</metadata>
<g transform="translate(0.000000,900.000000) scale(0.100000,-0.100000)"
fill="#000000" stroke="none">
<path d="M5488 8974 c-21 -14 -38 -28 -38 -32 0 -4 -13 -16 -30 -25 -22 -13
-34 -15 -49 -8 -10 6 -40 15 -67 21 -27 5 -75 22 -106 37 -49 22 -61 25 -80
14 -13 -6 -32 -11 -43 -10 -51 5 -155 -2 -155 -10 0 -5 14 -9 31 -9 16 1 38
-6 47 -15 19 -20 4 -22 -32 -5 -21 9 -29 8 -44 -5 -10 -10 -28 -17 -40 -17
-44 0 -142 -59 -142 -86 0 -6 -9 -19 -20 -29 -11 -10 -19 -25 -18 -33 2 -10
-16 -21 -56 -34 l-58 -19 -24 22 c-18 17 -27 20 -36 11 -8 -8 -8 -15 3 -28 8
-10 9 -15 3 -11 -19 11 -94 -32 -114 -66 -23 -36 -28 -79 -8 -59 21 21 27 13
12 -15 -7 -16 -14 -34 -14 -40 0 -7 -11 -20 -25 -29 -15 -10 -27 -30 -31 -52
l-7 -37 -8 29 c-5 16 -4 37 1 47 13 24 13 56 -1 64 -6 4 -13 -2 -16 -13 -3
-11 -11 -23 -19 -26 -8 -3 -14 -14 -14 -24 0 -19 -18 -42 -33 -42 -4 0 -5 5
-2 10 4 7 -2 9 -19 4 -15 -3 -26 -2 -26 4 0 20 109 122 130 122 19 0 20 2 10
15 -14 17 -108 21 -138 6 -42 -21 -94 -41 -107 -41 -8 0 -15 -4 -15 -10 0 -13
23 -13 54 1 15 7 40 9 63 4 32 -6 35 -9 18 -15 -11 -4 -33 -30 -49 -56 -16
-27 -46 -62 -67 -79 -20 -16 -40 -40 -44 -53 -3 -13 -19 -29 -37 -36 -23 -10
-36 -25 -47 -57 -13 -35 -22 -44 -41 -45 -73 -2 -80 -4 -80 -23 0 -18 -52 -51
-79 -51 -7 0 -23 -7 -37 -17 -24 -15 -25 -15 -31 5 -7 29 -30 17 -39 -21 -3
-18 -13 -40 -22 -50 -14 -16 -14 -19 0 -33 11 -12 14 -28 11 -58 -7 -52 -15
-61 -43 -46 -26 14 -40 1 -40 -38 0 -13 -9 -35 -20 -49 -16 -21 -18 -29 -8
-41 10 -12 8 -18 -11 -33 -39 -32 -63 -85 -55 -125 5 -27 3 -34 -7 -32 -22 5
-16 -71 10 -136 22 -54 23 -77 5 -135 -6 -19 -4 -23 7 -19 8 4 22 9 31 13 13
5 24 -4 45 -39 15 -26 35 -49 44 -51 9 -3 32 -20 53 -38 20 -18 51 -41 69 -51
l32 -19 -37 39 c-47 49 -49 77 -6 98 46 23 53 21 74 -29 17 -43 44 -61 44 -30
0 8 -7 15 -15 15 -19 0 -19 14 1 30 13 11 16 10 20 -7 3 -12 25 -28 55 -41 43
-18 51 -19 56 -6 4 11 13 14 29 10 19 -5 24 -2 24 13 0 11 -4 23 -10 26 -5 3
-10 11 -10 18 0 6 6 3 13 -5 19 -26 147 -25 147 1 0 4 20 18 45 30 25 12 45
27 45 33 0 9 28 8 65 -2 6 -1 35 -2 65 0 41 1 50 4 35 10 -17 7 -17 9 -2 9 35
2 17 28 -20 29 -20 1 -41 6 -47 12 -5 5 -18 10 -29 10 -10 0 -16 4 -13 8 2 4
33 5 68 1 78 -8 160 0 155 15 -4 12 -33 13 -89 4 -29 -5 -38 -3 -38 8 0 8 8
14 18 14 10 0 32 14 50 30 19 17 44 30 60 30 20 0 23 3 14 12 -17 17 -15 28 4
28 9 0 24 -10 34 -22 16 -20 22 -21 39 -10 27 16 31 15 31 -3 0 -8 9 -15 20
-15 12 0 17 5 14 14 -3 9 6 17 25 24 17 6 31 15 31 20 0 9 -66 32 -93 32 -25
0 -32 22 -11 33 26 15 145 19 161 5 10 -8 13 -6 11 13 -2 13 -11 27 -20 31
-24 10 -23 28 2 28 10 0 24 9 30 19 6 13 17 18 32 14 20 -4 21 -3 6 7 -28 17
-21 31 14 28 18 -1 33 3 36 10 2 6 14 12 26 12 21 0 62 15 109 41 27 15 42 -1
18 -18 -12 -8 -21 -18 -21 -24 0 -13 44 -11 57 2 8 8 17 7 34 -5 13 -9 32 -16
41 -16 10 0 26 -4 36 -9 35 -18 78 -34 97 -37 29 -3 135 -55 135 -65 0 -5 5
-9 11 -9 5 0 8 4 4 9 -3 5 -1 12 5 16 5 3 10 1 10 -4 0 -6 6 -11 13 -11 24 0
7 60 -20 73 -25 11 -25 11 -3 19 25 9 40 3 40 -17 0 -8 13 -15 32 -17 23 -2
34 -9 37 -23 2 -10 17 -31 33 -47 24 -22 35 -26 61 -21 18 3 38 10 45 16 9 7
12 -1 12 -37 0 -25 -4 -46 -10 -46 -5 0 -10 -7 -10 -15 0 -16 16 -20 24 -6 3
5 15 7 25 4 13 -3 24 2 33 16 19 31 40 27 36 -6 -1 -16 -7 -31 -12 -34 -9 -7
22 -79 35 -79 5 0 6 15 2 33 -6 31 -6 32 14 15 11 -10 28 -18 37 -18 13 0 16
-5 12 -16 -5 -14 -2 -15 21 -9 16 4 47 8 70 9 28 1 47 7 56 20 11 15 17 17 35
7 12 -6 26 -20 32 -31 12 -23 40 -27 40 -7 0 8 19 18 45 24 25 6 45 6 45 1 0
-5 12 -13 26 -18 14 -6 22 -14 19 -20 -9 -15 -26 -12 -39 5 -10 13 -16 11 -45
-15 -18 -17 -31 -34 -28 -37 12 -11 57 8 57 24 0 14 2 14 20 -2 11 -10 20 -22
20 -26 0 -5 8 -18 17 -29 20 -23 60 -26 87 -5 11 8 29 12 43 9 16 -4 23 -2 23
8 0 11 14 15 55 15 63 0 78 9 51 29 -18 13 -18 14 -2 20 10 4 21 2 26 -5 9
-15 60 -43 60 -32 0 4 -5 12 -11 18 -18 18 5 23 35 7 16 -7 39 -14 52 -14 13
0 24 -4 24 -10 0 -5 7 -10 15 -10 20 0 84 -40 65 -41 -24 -2 50 -20 112 -28
62 -7 89 -21 42 -21 -28 -1 -28 -1 -10 -15 11 -8 41 -15 66 -15 26 0 62 -5 80
-11 24 -9 34 -9 39 0 7 11 58 15 109 9 24 -3 31 -18 7 -18 -25 0 -17 -19 15
-35 17 -9 35 -27 40 -41 6 -14 14 -23 20 -19 5 3 7 12 3 20 -9 25 13 17 25 -9
7 -17 7 -27 -1 -35 -6 -6 -7 -11 -2 -11 4 0 0 -9 -10 -20 -18 -20 -17 -20 8
-20 20 0 25 -4 20 -16 -5 -13 -15 -15 -45 -11 -31 4 -38 2 -34 -9 3 -9 -1 -14
-14 -14 -11 0 -20 -4 -20 -10 0 -5 -20 -10 -45 -10 -33 0 -45 -4 -45 -15 0 -8
9 -15 20 -15 11 0 20 -4 20 -9 0 -12 -26 -21 -35 -13 -4 4 -21 7 -38 8 -18 0
-40 4 -49 8 -13 6 -18 4 -18 -8 0 -9 11 -21 24 -26 27 -10 46 -38 39 -57 -3
-9 7 -13 29 -14 18 0 27 -3 21 -6 -7 -2 -13 -9 -13 -14 0 -12 41 -54 61 -62
11 -4 10 -6 -3 -6 -30 -2 -8 -30 39 -52 24 -11 53 -29 63 -39 18 -18 50 -28
50 -15 0 2 -10 13 -22 25 -25 23 -23 24 21 9 17 -6 36 -20 42 -30 10 -20 44
-26 54 -9 10 17 50 11 73 -11 12 -11 20 -24 17 -28 -2 -5 15 -5 38 0 23 4 50
8 61 9 32 0 2 -24 -49 -39 -38 -11 -51 -11 -70 -1 -33 18 -59 7 -45 -19 14
-27 13 -37 -6 -55 -20 -20 -54 -21 -54 -1 0 15 -48 40 -58 31 -3 -3 3 -8 12
-12 17 -7 23 -54 6 -54 -5 0 -10 -5 -10 -10 0 -6 7 -6 19 1 15 10 25 7 60 -21
22 -18 41 -36 41 -40 0 -4 11 -5 25 -2 18 3 25 0 25 -12 0 -9 7 -16 16 -16 13
0 14 -3 5 -14 -11 -13 1 -69 20 -90 17 -19 9 -43 -17 -55 -21 -9 -24 -14 -14
-26 18 -22 1 -18 -55 14 -30 18 -50 36 -50 47 0 23 -21 29 -29 8 -7 -18 17
-63 41 -77 20 -12 16 -31 -12 -57 -23 -22 -26 -22 -49 -7 -24 16 -24 16 -16
-13 6 -20 5 -30 -3 -33 -9 -3 -9 -8 1 -18 6 -7 12 -25 12 -39 0 -15 14 -48 31
-74 22 -32 28 -51 22 -57 -7 -7 -21 4 -43 35 -19 25 -37 46 -42 46 -12 0 -10
-12 8 -31 9 -10 13 -23 9 -28 -9 -15 -35 -14 -35 2 0 7 -7 23 -16 36 -12 17
-19 20 -28 11 -8 -8 -6 -14 7 -22 13 -7 17 -17 13 -33 -7 -26 6 -54 50 -110
32 -42 40 -75 17 -75 -7 0 -13 4 -13 8 0 11 -51 35 -58 27 -3 -3 0 -5 6 -5 7
0 12 -7 12 -15 0 -8 4 -15 8 -15 5 0 20 -10 33 -21 42 -37 68 -51 85 -45 17 6
91 -30 110 -54 17 -21 31 -3 16 20 -25 41 -7 40 53 -2 42 -30 95 -95 95 -118
0 -31 -62 18 -75 60 -5 17 -9 19 -21 9 -12 -10 -11 -17 11 -45 14 -18 25 -40
25 -48 0 -9 5 -16 10 -16 6 0 15 -12 21 -27 33 -84 30 -79 40 -60 12 21 29 23
29 3 0 -20 29 -48 42 -40 7 5 8 -2 3 -22 -12 -47 -14 -74 -4 -74 5 0 9 6 9 14
0 8 5 18 10 21 12 8 40 -53 33 -72 -3 -8 3 -13 17 -13 13 0 20 -5 18 -12 -3
-7 -11 -13 -19 -13 -8 0 -15 -12 -17 -30 -3 -30 -3 -30 15 -9 10 12 26 24 37
28 13 4 17 12 12 30 -4 15 -1 26 6 28 9 3 8 10 -5 22 -21 21 -17 42 7 38 11
-2 16 4 16 21 0 14 6 30 13 36 8 6 14 30 15 53 1 27 8 47 18 53 8 6 25 18 36
28 12 9 27 17 34 17 9 0 11 10 7 34 -3 19 0 42 6 52 9 17 11 17 12 -6 1 -14 1
-33 0 -42 -1 -10 4 -18 13 -18 11 0 16 9 16 30 0 22 4 28 15 24 9 -4 15 0 15
10 0 9 -7 16 -15 16 -8 0 -15 5 -15 10 0 6 6 10 14 10 8 0 15 15 19 39 9 66
38 122 68 128 14 2 26 10 27 16 8 58 16 77 33 77 17 0 24 11 20 33 0 4 3 7 7
7 5 0 9 -44 9 -97 1 -54 4 -124 7 -156 3 -32 3 -64 -1 -70 -4 -7 -6 -23 -5
-37 4 -37 -28 -63 -61 -51 -41 16 -54 -10 -21 -43 15 -14 30 -26 35 -26 4 0
10 -14 14 -30 4 -17 17 -43 30 -58 42 -51 104 -174 96 -191 -5 -9 -9 -30 -9
-47 0 -17 -10 -48 -22 -69 -27 -48 -36 -171 -13 -179 8 -3 16 1 19 9 4 8 18
15 33 15 15 0 37 7 49 16 26 18 76 119 69 139 -3 7 12 34 34 58 48 55 52 92
12 102 -39 9 -53 23 -53 51 0 26 7 28 64 15 49 -12 64 -6 59 23 -7 36 14 41
57 12 22 -14 46 -26 55 -26 8 0 16 -10 17 -22 0 -13 2 -29 2 -35 1 -7 5 -14
11 -15 5 -2 14 24 21 56 6 32 19 63 27 67 17 10 31 55 21 70 -9 15 -34 -9 -27
-27 3 -8 0 -14 -6 -14 -6 0 -11 19 -11 45 0 48 -16 59 -40 30 -17 -20 -30 -19
-30 2 0 21 -49 93 -64 93 -6 0 -31 13 -55 29 -25 17 -47 28 -51 26 -3 -2 -28
9 -55 25 -28 16 -71 40 -97 55 -32 17 -48 32 -48 45 0 27 15 33 54 20 40 -13
100 -15 144 -5 17 4 32 9 32 11 0 1 -13 17 -30 35 l-29 33 22 11 c12 6 22 15
22 20 1 30 57 71 78 58 7 -4 20 -17 30 -30 12 -14 29 -23 47 -23 35 0 80 -16
80 -28 0 -5 18 -29 40 -53 29 -31 40 -51 37 -67 -2 -12 1 -26 7 -30 19 -11 36
-84 30 -123 -4 -25 -1 -39 10 -48 15 -12 16 11 16 263 0 177 -4 276 -10 276
-5 0 -10 6 -10 13 -1 20 -53 73 -87 88 -18 8 -33 19 -33 26 0 34 92 36 113 2
7 -11 15 -19 19 -19 5 0 7 532 6 1182 l-3 1181 -50 16 c-44 14 -54 23 -86 76
-20 33 -50 68 -66 78 -40 23 -153 47 -224 47 -43 0 -65 6 -93 25 -27 18 -44
23 -66 18 -16 -3 -36 -1 -42 4 -7 6 -25 13 -40 17 -20 4 -28 13 -28 27 0 15 5
19 16 15 8 -3 12 -2 9 3 -3 5 -22 15 -43 22 -30 10 -100 55 -122 79 -3 3 -22
16 -44 28 -51 30 -209 35 -270 9 -21 -9 -46 -17 -56 -17 -10 0 -54 -16 -99
-34 -89 -39 -158 -56 -147 -37 4 6 16 11 26 11 10 0 22 4 25 10 3 5 24 14 47
21 60 16 98 47 98 81 l0 28 -371 0 c-269 0 -368 -3 -363 -11 8 -13 -13 -29
-38 -29 -11 0 -18 8 -18 20 0 19 -7 20 -226 20 -147 0 -223 -3 -219 -10 3 -5
20 -10 37 -10 44 0 27 -12 -23 -16 -23 -2 -46 -7 -52 -11 -18 -11 80 -30 135
-26 58 4 94 -10 68 -26 -8 -5 -26 -7 -41 -4 -35 7 -74 -13 -59 -31 10 -13 109
-37 140 -34 29 2 50 -2 50 -11 0 -5 -6 -8 -12 -8 -7 1 -35 -3 -61 -7 -36 -6
-51 -14 -57 -30 -6 -17 -21 -25 -67 -33 -63 -11 -103 -6 -63 9 21 8 22 10 7
26 -16 17 -14 19 18 31 19 7 35 17 35 22 0 15 -49 10 -75 -7 -18 -12 -31 -14
-51 -7 -22 7 -38 3 -83 -21 -31 -16 -59 -34 -62 -39 -4 -5 -12 -8 -19 -5 -7 2
18 30 56 63 84 73 85 75 81 102 -3 15 2 23 17 27 43 12 -7 24 -123 31 -64 4
-124 9 -133 11 -13 4 -21 -3 -28 -21 -5 -14 -13 -24 -18 -21 -16 10 -117 -32
-127 -53 -6 -14 -19 -21 -37 -21 -14 0 -33 -3 -41 -6 -8 -3 -17 2 -21 13 -6
13 3 28 35 56 23 20 40 40 37 42 -10 10 -53 -13 -91 -48 -21 -20 -45 -37 -53
-39 -15 -3 -37 -36 -47 -69 -7 -22 -107 -35 -137 -19 -17 9 -26 8 -46 -5 -28
-18 -29 -16 -10 30 14 33 14 35 -4 35 -32 0 -35 22 -7 42 15 11 27 24 27 30 0
6 7 16 16 23 15 11 15 12 1 18 -8 3 -25 -3 -38 -14 -30 -26 -37 -24 -46 10
l-8 28 -37 -23z m462 -300 c0 -11 5 -14 16 -10 14 5 16 1 11 -21 -7 -36 -95
-193 -108 -193 -5 0 -9 -4 -9 -10 0 -15 -49 -60 -55 -50 -3 5 -1 11 5 15 6 4
8 10 5 15 -9 14 53 172 88 222 33 50 47 59 47 32z m1576 -549 c-11 -8 -34 -18
-53 -21 -41 -8 -43 -24 -3 -24 27 0 29 -2 18 -20 -14 -22 -3 -39 14 -22 24 24
38 12 16 -13 -12 -14 -26 -25 -31 -25 -5 0 -40 -16 -79 -35 -61 -31 -72 -34
-82 -20 -9 12 -18 13 -49 4 -21 -5 -47 -7 -57 -4 -40 13 -18 21 56 23 50 1 85
7 100 17 13 8 30 15 38 15 7 0 17 7 20 16 6 14 1 16 -31 10 -21 -4 -63 -9 -93
-13 l-55 -6 32 32 c18 17 41 31 50 32 11 0 13 3 6 6 -7 2 -13 11 -13 19 0 17
-14 18 -41 4 -15 -8 -19 -7 -19 4 0 22 35 28 195 34 73 2 78 1 61 -13z m-713
-333 c-2 -10 10 -31 31 -51 20 -19 36 -41 36 -48 0 -9 8 -11 25 -7 20 5 24 3
19 -9 -7 -20 32 -33 51 -17 15 12 39 5 30 -10 -9 -14 -74 -21 -95 -10 -16 8
-20 8 -20 -3 0 -20 -74 -67 -105 -67 -14 0 -25 -5 -25 -11 0 -11 -16 -9 -52 6
-13 5 -19 0 -24 -19 -5 -21 -9 -24 -25 -15 -10 5 -19 16 -19 23 0 10 -7 12
-22 8 -22 -5 -22 -5 -5 12 9 10 17 20 17 24 0 4 5 14 10 22 8 13 11 12 24 -5
13 -19 15 -19 33 -3 16 15 22 16 39 4 29 -20 84 -26 84 -9 0 9 -9 14 -22 13
-45 -4 -56 0 -62 25 -4 15 -11 23 -17 19 -9 -5 -49 27 -49 41 0 6 62 45 73 45
4 0 7 -7 7 -15 0 -8 6 -15 13 -15 23 0 28 12 13 29 -8 9 -12 27 -9 42 4 21 9
25 28 22 15 -3 21 -10 18 -21z m130 -239 c42 -6 50 -23 12 -23 -30 0 -32 -11
-5 -28 16 -10 24 -10 40 0 16 10 24 9 48 -9 17 -12 53 -24 87 -28 46 -6 54
-10 40 -18 -27 -15 -112 -9 -153 10 -20 10 -53 18 -72 18 -24 0 -34 4 -32 13
2 9 -6 12 -20 10 -13 -2 -21 -7 -18 -13 3 -5 8 -9 12 -8 4 2 15 -8 23 -21 9
-13 30 -27 48 -32 l32 -8 -40 -4 c-36 -3 -43 0 -71 32 -17 20 -37 36 -45 37
-8 0 -3 5 11 10 24 10 24 11 7 24 -16 11 -17 16 -5 35 10 16 19 20 38 15 14
-3 42 -8 63 -12z m1151 -981 c2 -4 1 -14 -3 -21 -6 -8 2 -23 23 -42 50 -46
108 -89 120 -89 20 0 105 -45 106 -56 0 -18 31 -26 46 -13 11 9 14 7 14 -7 0
-11 14 -28 30 -39 32 -21 36 -35 19 -66 -8 -16 -13 -18 -24 -9 -20 17 -59 8
-63 -14 -3 -14 0 -17 12 -13 24 9 46 -2 46 -24 0 -10 6 -19 13 -20 6 0 1 -6
-12 -12 -19 -9 -25 -9 -29 1 -2 7 -21 12 -42 12 -21 0 -40 5 -42 11 -4 13 -64
35 -120 44 -42 7 -51 -1 -15 -14 20 -8 21 -10 3 -17 -13 -5 -21 -2 -28 9 -5
10 -17 17 -27 17 -9 0 -30 14 -46 30 -16 17 -35 30 -42 30 -21 0 -15 -16 12
-30 24 -13 60 -68 51 -78 -3 -2 -18 10 -35 27 -17 17 -35 31 -41 31 -5 0 -10
4 -10 10 0 5 -29 31 -65 57 -35 26 -65 54 -65 61 0 18 11 15 53 -14 21 -14 46
-24 55 -21 9 2 34 -5 54 -15 21 -10 45 -18 55 -18 27 1 -40 56 -105 88 -30 14
-56 32 -60 41 -3 9 -18 28 -34 42 -15 14 -28 29 -28 33 0 4 21 4 48 0 33 -4
53 -14 68 -32 13 -16 23 -21 27 -15 5 7 23 -4 49 -28 23 -21 51 -39 61 -39 10
0 25 -7 33 -15 9 -8 22 -15 30 -15 18 0 18 29 -1 36 -8 3 -17 14 -20 25 -4 10
-14 19 -23 19 -17 0 -23 9 -56 78 -8 17 -19 32 -23 32 -4 0 -17 7 -28 16 -17
13 -18 16 -5 24 18 12 57 13 64 2z m759 -306 c44 -24 65 -53 29 -42 -17 6 -21
0 -32 -45 l-12 -51 -72 3 c-39 2 -82 -2 -96 -8 -60 -25 -136 -53 -148 -53 -17
0 -15 8 8 37 17 22 18 28 6 45 -8 10 -12 28 -9 39 4 14 0 19 -15 19 -24 0 -34
31 -15 49 12 11 17 10 32 -3 25 -23 72 -21 78 3 11 44 167 48 246 7z m-968
-206 c3 -5 15 -10 26 -10 11 0 42 -11 68 -25 27 -13 62 -24 78 -24 85 0 88 -1
88 -31 0 -44 -22 -58 -95 -62 -54 -2 -65 0 -68 14 -2 12 5 19 22 24 50 12 26
26 -38 22 -59 -3 -63 -2 -50 13 13 14 12 19 -7 42 -11 15 -27 27 -35 27 -8 0
-14 5 -14 10 0 6 4 10 9 10 6 0 13 -4 16 -10z m-202 -269 c-5 -20 29 -41 35
-22 5 14 42 14 42 1 0 -13 49 -60 61 -60 5 0 9 -4 9 -10 0 -13 83 -96 93 -92
4 1 7 -1 8 -5 5 -75 5 -85 -7 -90 -7 -2 -18 -19 -25 -36 l-13 -32 -4 43 c-4
57 -26 50 -30 -9 -2 -25 -10 -47 -18 -52 -9 -5 -12 -16 -8 -33 9 -34 -14 -31
-27 4 -6 16 -7 33 -2 42 15 24 1 55 -49 111 -27 28 -48 55 -48 59 0 5 -15 20
-32 34 -18 14 -41 33 -51 41 -10 9 -25 14 -32 11 -8 -3 -12 2 -10 12 1 9 -6
28 -16 41 -23 29 -24 51 -4 51 8 0 15 -4 15 -10 0 -5 19 -21 43 -35 24 -14 56
-38 70 -55 30 -33 47 -38 47 -14 0 10 5 12 13 7 6 -4 21 -9 32 -10 16 -2 15 2
-10 22 -16 14 -31 20 -33 15 -6 -18 -25 -11 -59 22 -36 35 -41 48 -18 48 8 0
15 5 15 10 0 6 4 10 9 10 5 0 7 -8 4 -19z"/>
<path d="M5235 5980 c-3 -5 -3 -10 2 -10 4 0 -5 -8 -22 -18 -20 -12 -43 -17
-71 -14 -24 2 -45 -1 -48 -7 -4 -6 -18 -11 -32 -11 -14 0 -27 -7 -30 -15 -4
-8 -13 -15 -21 -15 -8 0 -27 -8 -41 -19 -15 -10 -36 -20 -47 -22 -11 -3 -21
-13 -23 -23 -5 -25 -42 -55 -59 -49 -7 3 -19 1 -26 -5 -6 -5 -30 -12 -51 -14
-25 -2 -49 -12 -65 -28 -14 -14 -39 -34 -55 -45 -45 -30 -77 -67 -74 -83 2 -8
13 -19 26 -23 18 -7 24 -5 31 13 7 21 8 21 33 -6 20 -22 38 -29 87 -35 34 -4
67 -13 73 -19 18 -18 36 -14 43 8 3 11 12 20 20 20 8 0 17 9 20 21 7 21 15 21
60 3 17 -7 18 -6 7 8 -16 20 1 28 41 21 26 -5 27 -3 27 36 0 32 4 41 18 41 20
1 62 33 62 49 0 13 -4 13 100 16 47 1 92 5 100 8 36 16 119 24 213 22 73 -2
115 2 149 13 38 13 49 14 62 3 9 -7 16 -19 16 -27 0 -7 9 -15 20 -18 11 -3 29
-9 40 -12 13 -3 20 -1 20 9 0 8 6 17 14 20 12 5 12 11 3 31 -16 34 -29 33 -21
0 l7 -27 -32 19 c-33 20 -38 29 -18 37 7 3 5 6 -6 6 -9 1 -26 6 -36 13 -15 9
-26 9 -45 0 -21 -9 -27 -9 -34 5 -8 13 -20 15 -60 10 -42 -5 -55 -2 -74 14
-16 13 -18 17 -5 13 9 -3 25 -3 35 1 26 12 53 11 99 -2 26 -7 45 -8 48 -2 4 5
-8 9 -24 9 -20 0 -31 5 -31 14 0 19 -46 29 -71 16 -17 -10 -20 -9 -17 7 2 14
-4 18 -32 19 -19 0 -55 6 -79 13 -24 7 -55 9 -70 5 -42 -11 -112 -7 -127 9
-10 10 -22 9 -29 -3z"/>
<path d="M5175 5609 c-16 -4 -24 -7 -17 -8 28 -2 -3 -50 -42 -64 -10 -4 -16
-13 -13 -21 3 -7 -7 -23 -24 -35 -16 -12 -29 -26 -29 -31 0 -16 27 -11 34 5 4
12 10 14 25 5 29 -15 41 -12 41 10 0 14 7 20 21 20 12 0 41 13 65 30 64 43 78
49 133 60 106 20 339 -50 431 -130 39 -34 70 -45 180 -65 72 -14 145 -11 155
5 3 4 -11 4 -30 0 -46 -10 -73 -3 -113 32 -18 15 -37 28 -43 28 -5 0 -44 15
-87 34 -42 19 -104 42 -137 51 -33 9 -85 26 -116 36 -30 10 -65 19 -78 19 -12
0 -32 5 -44 12 -24 12 -263 18 -312 7z"/>
<path d="M5264 5494 c-27 -14 -53 -32 -57 -40 -4 -8 -14 -14 -21 -14 -7 0 -22
-11 -34 -25 -13 -15 -28 -22 -37 -19 -9 4 -15 0 -15 -9 0 -8 6 -17 13 -20 20
-6 -12 -37 -39 -37 -13 0 -23 3 -23 8 3 18 -3 46 -8 35 -2 -7 -19 -13 -36 -13
-35 0 -86 -39 -89 -68 0 -9 -2 -26 -3 -37 -1 -11 -5 -27 -8 -35 -3 -8 -8 -33
-9 -55 -3 -39 -2 -40 30 -39 27 2 33 -2 38 -25 13 -58 15 -61 44 -61 19 0 33
-7 40 -20 14 -26 24 -25 56 7 26 26 28 26 56 10 16 -9 27 -13 24 -8 -3 5 2 15
11 22 15 13 16 11 9 -13 -5 -24 -3 -28 14 -28 27 0 52 42 48 81 -3 36 17 51
27 20 4 -15 15 -21 36 -21 30 0 38 13 16 27 -26 16 -46 95 -39 152 8 61 25 76
40 34 13 -39 58 -90 95 -109 21 -12 42 -14 76 -9 59 9 81 21 81 45 0 11 5 20
12 20 6 0 26 11 43 25 18 13 35 22 38 19 3 -3 17 2 32 12 20 13 29 14 38 5 6
-6 21 -11 33 -11 13 0 25 -8 28 -18 5 -15 18 -17 91 -16 47 0 88 4 92 7 3 4 0
7 -8 7 -19 0 -165 76 -206 107 -18 14 -33 20 -33 14 0 -17 -25 -13 -66 9 -19
11 -57 23 -82 27 -26 3 -51 9 -57 13 -17 13 -192 17 -250 6 l-40 -7 26 23 c14
13 35 28 45 35 40 25 -21 14 -72 -13z"/>
<path d="M3994 5311 c-51 -23 -53 -26 -54 -87 -1 -76 9 -110 42 -139 16 -15
36 -42 44 -60 16 -40 52 -55 70 -31 6 10 14 12 15 7 6 -17 43 -2 55 23 8 17 7
25 -3 35 -7 6 -18 9 -23 6 -6 -3 -7 1 -4 9 3 9 12 16 20 16 7 0 18 9 24 19 13
26 13 31 -5 31 -8 0 -15 4 -15 9 0 5 9 7 20 4 11 -3 20 0 20 6 0 6 -9 11 -20
11 -16 0 -20 7 -20 30 0 45 -30 100 -54 100 -12 0 -30 7 -40 15 -24 18 -22 19
-72 -4z"/>
<path d="M4336 5081 c-4 -5 -26 -19 -51 -31 -25 -12 -45 -26 -45 -31 0 -5 -6
-9 -12 -9 -15 0 -58 -63 -58 -85 0 -14 3 -14 25 1 22 14 25 14 25 1 0 -29 -13
-48 -36 -58 -27 -10 -31 -31 -9 -49 8 -7 15 -17 15 -22 0 -12 67 -96 95 -120
11 -9 33 -22 48 -29 16 -7 34 -26 41 -43 13 -31 13 -31 25 -8 10 19 8 27 -12
55 -14 17 -28 42 -32 55 -9 32 18 29 45 -5 24 -31 31 -26 52 42 17 55 17 237
0 243 -7 2 -19 19 -26 37 -8 19 -28 39 -47 49 -38 19 -36 19 -43 7z"/>
<path d="M8977 4693 c-4 -3 -7 -15 -7 -25 0 -10 -15 -42 -33 -71 -19 -29 -37
-64 -40 -78 -5 -19 -22 -34 -59 -53 -29 -14 -72 -43 -94 -64 -23 -20 -60 -53
-81 -72 -22 -19 -43 -45 -47 -57 -4 -13 -14 -23 -21 -23 -19 0 -29 -19 -17
-33 11 -13 13 -51 5 -105 -3 -27 -8 -33 -23 -29 -16 4 -18 1 -13 -24 3 -18 1
-29 -6 -29 -6 0 -11 8 -11 19 0 10 -7 24 -15 31 -8 7 -15 22 -15 34 0 35 -23
76 -44 76 -15 0 -17 6 -13 33 2 17 -4 64 -13 102 -10 39 -21 89 -25 112 -3 22
-13 49 -20 60 -13 17 -14 15 -15 -14 0 -23 -5 -33 -15 -33 -17 0 -20 -27 -5
-50 9 -13 11 -13 20 0 8 12 10 11 10 -8 0 -13 -4 -21 -9 -18 -16 11 -30 -20
-33 -75 -3 -47 -7 -54 -26 -57 -18 -3 -22 1 -22 22 0 17 -5 26 -16 26 -13 0
-15 -7 -11 -29 5 -21 1 -36 -13 -53 -11 -13 -19 -18 -20 -12 0 7 -8 14 -18 17
-22 5 -34 39 -21 58 8 12 10 12 18 0 5 -7 14 -10 20 -7 17 11 13 41 -9 69 -11
14 -20 32 -20 41 0 9 -4 16 -10 16 -10 0 -14 -13 -11 -37 1 -6 -3 -14 -8 -18
-6 -3 -8 -12 -4 -20 9 -25 -16 -46 -39 -34 -26 14 -32 6 -18 -21 7 -12 18 -19
26 -16 8 3 14 -1 14 -8 0 -8 -7 -17 -16 -20 -26 -10 -6 -21 32 -17 34 3 35 2
24 -19 -9 -17 -8 -25 5 -40 15 -17 14 -19 -17 -45 -18 -15 -28 -24 -21 -21 15
8 43 -3 43 -17 0 -6 -7 -18 -16 -28 -19 -22 -11 -39 19 -39 18 0 23 -6 25 -29
3 -37 -14 -49 -22 -16 -4 14 -11 25 -16 25 -14 0 -13 -43 1 -57 7 -7 9 -19 5
-29 -5 -14 -10 -12 -29 12 -12 16 -21 32 -19 37 1 5 -2 6 -8 2 -15 -9 -12 -46
6 -66 12 -14 13 -22 4 -38 -6 -12 -15 -21 -20 -21 -6 0 -10 -11 -10 -25 0 -18
-5 -25 -20 -25 -17 0 -19 4 -14 28 l7 27 -20 -25 c-18 -22 -19 -26 -5 -36 8
-6 12 -15 9 -20 -10 -16 43 -15 68 2 22 15 25 14 37 -5 7 -12 18 -21 25 -21 6
0 15 -9 18 -20 4 -12 11 -17 18 -13 7 3 4 -3 -5 -14 -10 -11 -18 -27 -18 -36
0 -20 -13 -22 -29 -3 -6 7 -8 27 -5 45 6 29 5 31 -25 31 -22 0 -31 -5 -31 -17
0 -13 3 -14 11 -6 9 9 15 8 24 0 10 -9 5 -19 -21 -45 -36 -36 -35 -45 3 -75
21 -17 22 -20 8 -40 -9 -12 -26 -22 -38 -22 -20 0 -22 -5 -22 -63 0 -34 -3
-62 -7 -62 -5 0 -8 -7 -8 -16 0 -12 3 -14 13 -6 8 7 17 7 30 -2 22 -17 22 -30
1 -22 -10 4 -22 -1 -29 -11 -11 -15 -13 -12 -20 25 -4 26 -12 42 -21 42 -8 0
-14 4 -14 10 0 5 6 7 14 4 8 -3 17 -1 20 4 3 6 -1 12 -9 16 -8 3 -15 12 -15
20 0 7 -9 16 -21 19 -11 3 -23 15 -26 27 -3 12 -12 20 -21 18 -21 -4 -27 -28
-7 -28 9 0 25 -9 37 -20 19 -17 20 -24 10 -57 -14 -46 -6 -87 15 -79 8 3 11 1
8 -5 -4 -5 -1 -16 5 -24 13 -16 5 -35 -14 -35 -8 0 -16 -9 -19 -20 -5 -21 -37
-28 -37 -8 0 6 -3 9 -6 6 -3 -4 0 -17 7 -30 7 -12 12 -26 11 -30 -1 -5 2 -8 7
-8 5 0 11 9 14 20 3 11 13 20 22 20 14 0 16 -6 10 -27 -3 -16 -6 -53 -5 -85 1
-53 -14 -84 -29 -60 -8 13 -43 19 -58 9 -20 -12 -15 1 7 23 24 24 40 26 40 5
0 -17 16 -20 25 -5 11 18 -4 45 -35 63 -17 10 -30 27 -30 38 0 10 -7 19 -15
19 -20 0 -19 -36 1 -44 13 -5 14 -9 4 -21 -22 -26 -42 -19 -36 13 12 54 16
107 7 94 -4 -8 -12 -13 -17 -12 -5 0 -12 -12 -15 -27 -3 -15 -14 -44 -25 -63
l-19 -35 -3 40 c-2 22 -10 44 -18 48 -8 4 -14 20 -14 34 0 21 -2 24 -15 13
-17 -14 -20 -51 -5 -66 6 -6 3 -16 -10 -27 -22 -18 -23 -17 -33 31 -3 12 -1
22 4 22 10 0 -1 33 -15 42 -6 4 -1 15 14 28 23 20 25 20 37 4 11 -15 13 -15
22 10 6 14 15 26 21 26 5 0 10 7 10 15 0 8 9 19 19 25 11 5 21 20 23 32 2 12
9 23 17 26 9 3 11 -1 7 -15 -4 -12 0 -25 9 -33 8 -7 15 -20 15 -30 0 -23 8
-29 30 -23 30 8 32 32 4 60 l-26 26 21 16 c24 18 19 31 -13 31 -34 1 -69 34
-68 66 0 29 -13 54 -29 54 -5 0 -9 -11 -9 -25 0 -14 5 -25 10 -25 6 0 10 -5
10 -11 0 -6 -8 -8 -19 -4 -23 7 -61 -21 -61 -45 1 -19 24 -50 38 -50 6 0 12
10 14 22 2 13 11 24 21 26 13 3 17 -3 17 -27 0 -21 -5 -31 -15 -31 -9 0 -15
-9 -15 -25 0 -17 -4 -23 -15 -19 -8 4 -17 -1 -21 -10 -12 -32 -64 -12 -64 26
0 10 -4 18 -9 18 -12 0 -21 -39 -10 -46 16 -9 10 -43 -11 -64 -11 -11 -20 -24
-20 -30 0 -14 -23 -13 -38 2 -17 17 -28 0 -14 -22 16 -27 15 -49 -3 -56 -8 -4
-15 -11 -15 -16 0 -6 6 -5 15 2 8 7 15 11 16 9 7 -33 6 -37 -7 -32 -15 5 -13
-7 6 -52 5 -11 16 -37 24 -57 8 -21 20 -38 25 -38 6 0 8 -7 5 -15 -8 -19 -24
-20 -24 -1 0 39 -71 110 -89 90 -3 -4 0 -9 7 -11 6 -3 12 -13 12 -22 0 -10 9
-26 20 -36 11 -10 20 -28 20 -39 -1 -20 -2 -20 -14 -3 -19 25 -32 21 -46 -13
-18 -43 -39 -59 -51 -37 -14 25 -26 21 -34 -10 -3 -15 -11 -31 -17 -34 -7 -4
-6 -14 2 -29 10 -18 9 -24 -7 -36 -10 -7 -24 -11 -31 -9 -8 3 -15 -7 -19 -25
-4 -20 -12 -30 -24 -30 -10 0 -20 -4 -23 -9 -3 -4 -16 -6 -29 -4 -21 4 -24 1
-25 -24 0 -15 -3 -54 -6 -85 -3 -33 -1 -60 5 -64 5 -3 7 -14 4 -24 -3 -10 1
-25 10 -33 8 -9 15 -33 15 -56 0 -22 5 -43 10 -46 6 -3 10 -11 10 -17 0 -5
-11 0 -25 13 -13 13 -25 34 -25 47 0 13 -6 22 -16 22 -10 0 -14 6 -11 14 4 10
1 13 -9 9 -14 -5 -18 -16 -14 -42 1 -8 -4 -17 -11 -22 -9 -5 -6 -17 15 -43 15
-20 32 -34 37 -30 6 3 6 10 1 17 -17 23 -22 46 -7 41 13 -5 25 -37 31 -81 2
-20 0 -22 -18 -12 -29 16 -50 -15 -42 -62 3 -21 1 -40 -5 -43 -11 -7 -25 12
-26 34 0 8 -7 15 -15 15 -8 0 -14 -5 -13 -12 6 -30 12 -96 7 -83 -2 9 -13 21
-24 28 -18 11 -20 10 -20 -11 0 -13 6 -32 14 -42 8 -11 12 -25 9 -31 -7 -20
-30 -5 -43 27 -7 16 -16 29 -20 29 -13 0 -36 -44 -32 -62 5 -25 22 -23 22 2 0
11 5 20 10 20 20 0 8 -40 -27 -89 -1 -2 -9 2 -18 9 -10 8 -15 9 -15 1 0 -6 4
-11 9 -11 5 0 7 -9 4 -20 -3 -11 -10 -20 -16 -20 -6 0 -7 3 -4 7 4 3 2 12 -5
20 -6 7 -8 16 -5 19 3 3 2 17 -3 30 -6 15 -6 24 0 24 6 0 10 8 10 18 0 10 9
25 20 35 12 10 18 21 15 26 -3 5 4 7 16 4 19 -5 20 -4 10 15 -15 28 -31 37
-31 18 0 -19 -21 -21 -39 -3 -10 10 -12 5 -9 -23 4 -42 -23 -50 -32 -10 -3 14
-14 26 -23 28 -19 4 -15 -20 8 -48 7 -8 15 -34 18 -57 4 -35 1 -46 -24 -75
-19 -23 -28 -28 -29 -17 0 9 7 22 15 29 18 15 20 40 4 40 -6 0 -9 8 -7 18 3
10 -1 27 -8 37 -8 10 -14 29 -14 42 0 13 -4 23 -9 23 -16 0 -23 -38 -12 -59 6
-11 11 -31 11 -45 0 -14 5 -26 10 -26 6 0 10 -5 10 -12 0 -9 -3 -9 -12 0 -16
16 -38 15 -38 -2 0 -8 -5 -18 -10 -21 -18 -11 -40 16 -40 50 0 19 -6 35 -14
38 -20 8 -25 -11 -16 -68 4 -28 6 -52 3 -55 -8 -9 -34 34 -32 55 3 49 -2 75
-15 75 -15 0 -29 -29 -24 -51 2 -7 -8 -18 -22 -26 -14 -7 -19 -13 -12 -13 19
0 72 -42 72 -57 0 -7 5 -13 12 -13 6 0 9 -2 7 -5 -7 -7 -69 18 -69 27 0 12
-38 10 -45 -2 -3 -6 4 -14 17 -19 22 -9 22 -9 4 -17 -13 -5 -21 -3 -24 4 -2 7
-9 12 -16 12 -18 0 -52 42 -67 84 -13 36 -29 48 -29 23 0 -8 -11 -19 -24 -27
-21 -11 -27 -10 -41 4 -21 20 -39 21 -31 0 3 -8 1 -24 -5 -35 -7 -15 -7 -24 1
-34 8 -10 8 -19 0 -34 -7 -14 -7 -21 0 -21 5 0 10 5 10 10 0 6 7 10 15 10 8 0
15 8 15 18 0 10 13 31 29 46 l29 28 13 -23 c7 -13 10 -26 8 -28 -2 -2 4 -5 15
-7 25 -4 34 -14 38 -44 2 -20 -1 -25 -19 -24 -13 0 -23 -3 -23 -8 0 -4 -5 -8
-11 -8 -7 0 -9 10 -5 25 4 14 2 25 -3 25 -11 0 -25 -75 -16 -90 8 -12 -16 -70
-29 -70 -5 0 -6 17 -2 38 5 33 3 38 -15 39 -16 2 -18 -1 -9 -12 8 -9 8 -20 2
-31 -5 -9 -7 -25 -5 -35 8 -31 -12 -21 -24 11 -7 19 -16 28 -25 25 -10 -4 -21
8 -34 35 -20 41 -51 57 -39 20 6 -18 3 -20 -21 -14 -41 10 -22 -12 30 -35 33
-14 45 -26 49 -47 3 -16 9 -42 13 -59 7 -27 6 -29 -9 -16 -10 7 -17 21 -17 30
0 19 -40 61 -57 61 -6 0 -14 -7 -17 -16 -4 -11 -1 -14 12 -10 14 5 21 -5 35
-54 10 -33 16 -64 13 -69 -3 -4 -17 -6 -31 -3 -18 3 -25 0 -25 -12 0 -9 -8
-16 -20 -16 -17 0 -19 5 -14 25 4 16 2 25 -5 25 -6 0 -16 12 -21 26 -6 14 -14
23 -19 20 -8 -5 10 -66 44 -149 4 -9 3 -17 -3 -17 -9 0 -30 20 -31 30 0 9 -12
45 -20 60 -5 8 -16 15 -25 15 -10 0 -22 8 -27 18 -13 22 -32 11 -24 -14 4 -11
2 -19 -5 -19 -7 0 -14 9 -17 21 -5 18 -11 20 -42 14 -37 -7 -66 -24 -56 -33 2
-3 11 0 18 6 11 9 18 5 36 -18 12 -17 19 -35 16 -40 -9 -15 -25 -12 -25 4 0
20 -19 31 -33 17 -7 -7 -7 -18 1 -36 7 -15 8 -25 2 -25 -6 0 -10 7 -10 15 0 8
-7 15 -15 15 -11 0 -14 7 -9 24 3 13 1 27 -5 30 -7 5 -11 -3 -11 -19 0 -20 -4
-26 -15 -21 -11 4 -15 -2 -15 -20 0 -36 -34 -28 -38 9 -2 15 -7 27 -11 27 -5
0 -11 9 -14 20 -7 27 -21 25 -35 -5 -16 -34 -15 -38 3 -31 17 6 19 -7 5 -35
-15 -26 -86 -28 -75 -1 3 9 9 31 12 47 l5 30 -30 -35 c-17 -19 -31 -43 -32
-52 0 -23 -19 -33 -33 -18 -9 9 -8 14 3 23 15 12 44 67 38 72 -2 1 -18 0 -36
-2 -38 -6 -51 -27 -34 -53 9 -15 7 -19 -9 -23 -12 -3 -19 -14 -19 -30 0 -28
-15 -44 -25 -27 -3 5 -14 10 -23 10 -9 0 -26 7 -37 16 -17 12 -17 16 -6 24 12
7 12 11 2 24 -11 13 -11 19 -1 31 7 8 9 23 5 32 -6 17 -7 17 -21 -1 -8 -11
-14 -30 -14 -43 0 -25 -25 -42 -41 -26 -11 11 16 72 40 90 12 9 13 15 5 23
-14 14 -60 -42 -66 -80 l-3 -25 -25 25 c-14 14 -37 31 -52 38 -16 6 -28 20
-28 29 0 10 -13 24 -30 31 -23 11 -30 20 -30 43 0 22 -5 29 -20 29 -11 0 -23
7 -27 16 -13 35 -109 -20 -209 -121 -51 -52 -71 -64 -121 -78 -78 -22 -171
-83 -253 -166 -83 -83 -137 -190 -178 -351 -35 -136 -39 -155 -57 -308 -10
-84 -23 -142 -48 -207 -39 -103 -60 -188 -82 -331 -8 -56 -18 -116 -21 -133
l-6 -31 2311 0 2311 0 0 930 0 930 -26 0 c-23 0 -25 -3 -20 -25 4 -17 2 -27
-8 -31 -8 -3 -16 -15 -19 -26 -4 -15 -11 -19 -26 -15 -12 3 -21 1 -21 -3 0 -5
-15 -14 -34 -20 -25 -8 -37 -20 -46 -43 -13 -40 -88 -117 -112 -117 -10 0 -18
-4 -18 -10 0 -5 -7 -7 -15 -4 -12 5 -12 8 0 20 7 8 18 14 24 14 6 0 11 7 11
15 0 7 6 18 13 22 7 4 28 28 46 53 50 66 149 157 203 188 l48 27 0 1398 c0
768 -4 1397 -8 1397 -5 0 -12 -3 -15 -7z m-712 -1953 c9 -14 -4 -52 -16 -45
-5 4 -9 0 -9 -8 0 -8 -7 -17 -15 -21 -23 -9 -18 -35 10 -48 23 -10 25 -16 21
-54 -5 -38 -3 -42 20 -47 33 -6 37 4 18 42 -9 18 -13 35 -10 38 3 3 -6 16 -19
29 -32 30 -31 38 5 64 28 20 31 20 37 4 4 -10 0 -22 -11 -30 -19 -13 -14 -34
8 -34 23 0 36 -21 23 -41 -16 -26 6 -69 35 -69 13 0 30 -5 38 -10 17 -11 9
-13 -32 -10 -16 1 -28 -2 -28 -7 0 -5 -16 -16 -36 -23 -31 -13 -33 -15 -15
-22 12 -4 21 -11 21 -16 0 -12 -49 -34 -61 -27 -5 4 -9 -3 -9 -14 0 -11 9 -22
20 -26 32 -10 40 -75 9 -75 -5 0 -14 11 -19 25 -5 14 -15 25 -21 25 -6 0 -9 7
-5 15 4 11 -1 15 -19 15 -23 0 -33 -18 -19 -33 4 -4 8 -20 9 -37 3 -28 0 -30
-32 -30 -24 0 -33 -4 -30 -12 2 -7 10 -12 16 -10 6 1 11 -7 11 -19 0 -16 -4
-19 -20 -14 -17 5 -20 2 -20 -20 0 -15 -9 -40 -21 -56 -17 -24 -24 -27 -35
-18 -11 9 -14 7 -16 -12 0 -13 0 -34 1 -46 2 -26 -20 -31 -41 -10 -7 8 -18 12
-25 10 -16 -6 -25 14 -18 37 5 16 10 18 26 10 15 -8 19 -7 19 5 0 8 -8 15 -18
15 -10 0 -23 5 -30 12 -9 9 -12 7 -12 -9 0 -12 -5 -25 -10 -28 -6 -3 -7 -17
-4 -30 4 -17 -1 -33 -15 -51 -12 -15 -21 -33 -21 -40 0 -8 -7 -14 -15 -14 -8
0 -15 4 -15 9 0 5 -7 17 -16 25 -14 15 -13 16 10 16 31 0 32 8 9 49 -15 24
-15 33 -5 43 10 10 14 8 19 -10 3 -13 11 -21 17 -19 10 3 14 27 17 96 0 13 7
31 15 38 8 8 14 24 14 36 0 12 4 28 9 35 6 10 10 8 16 -10 8 -23 8 -22 12 5 3
16 11 31 19 34 16 6 19 33 4 33 -5 0 -14 -8 -19 -17 -14 -25 -14 0 1 32 6 14
17 25 25 25 7 0 13 6 13 14 0 8 12 23 27 34 22 16 25 23 15 34 -6 8 -9 18 -5
22 4 3 -2 12 -11 19 -16 12 -17 16 -5 35 8 12 22 22 31 22 22 0 23 -8 3 -30
-14 -15 -13 -18 10 -30 15 -8 25 -22 25 -35 0 -31 11 -38 26 -17 19 24 17 43
-3 40 -12 -2 -19 4 -21 20 -2 12 1 22 6 22 6 0 8 18 5 43 -4 31 -14 50 -39 74
-33 31 -43 53 -25 53 5 0 16 3 25 6 12 5 16 0 16 -17 l0 -24 20 25 c15 20 22
22 31 13 10 -10 9 -16 -4 -31 -27 -29 -21 -64 13 -84 25 -14 30 -15 30 -3 0 8
-9 15 -20 15 -11 0 -20 5 -20 10 0 25 33 72 56 80 14 6 22 14 19 20 -7 12 2
30 15 30 5 0 12 -5 15 -10z m-1598 -1181 c15 -29 17 -75 3 -84 -13 -8 9 -55
27 -55 7 0 13 11 13 26 0 22 2 25 15 14 18 -15 20 -47 3 -53 -13 -4 -11 -13
17 -79 5 -13 2 -18 -9 -18 -9 0 -16 -7 -16 -16 0 -8 -5 -12 -10 -9 -6 4 -8 15
-5 26 4 13 2 19 -9 19 -9 0 -16 -9 -16 -20 0 -23 -10 -26 -29 -7 -10 10 -15 9
-25 -5 -7 -10 -16 -18 -20 -18 -12 0 -6 48 9 60 8 7 15 16 15 21 0 15 -72 58
-88 52 -12 -5 -14 0 -9 30 6 37 -2 47 -20 25 -11 -14 -9 -100 2 -118 4 -7 -2
-14 -14 -17 -12 -3 -21 -9 -21 -14 0 -5 -5 -9 -11 -9 -5 0 -7 5 -3 12 5 8 2 9
-9 5 -13 -5 -17 -1 -17 14 0 14 5 19 14 16 19 -8 28 17 13 36 -16 19 -45 28
-53 16 -8 -14 -29 -6 -29 12 0 7 -8 15 -17 17 -11 2 -18 -3 -18 -11 0 -8 -12
-17 -27 -20 -16 -3 -36 -9 -45 -12 -14 -6 -18 -2 -18 19 0 18 5 26 18 26 10 0
24 8 31 19 8 10 21 16 31 14 10 -3 21 0 24 6 10 16 24 13 30 -6 3 -10 4 -6 2
10 -2 15 0 27 5 27 4 0 14 3 22 6 9 3 16 -3 20 -15 6 -24 37 -19 37 5 0 8 3
13 8 13 22 -4 32 3 32 21 0 11 6 20 13 20 6 0 22 3 35 6 21 6 23 4 20 -22 -2
-20 2 -29 12 -30 31 -2 33 -5 15 -24 -10 -11 -26 -20 -37 -20 -28 0 -22 -34
10 -48 15 -7 39 -20 55 -30 24 -15 29 -15 37 -2 7 10 5 16 -4 18 -20 5 -37 47
-23 61 8 8 8 14 -1 23 -7 7 -12 22 -12 35 0 14 -6 23 -16 23 -8 0 -12 5 -9 10
3 6 1 10 -5 10 -6 0 -8 4 -5 10 11 17 50 4 62 -21z m1793 -329 c0 -16 -4 -30
-10 -30 -15 0 -39 -63 -29 -76 13 -17 -19 -73 -45 -80 -14 -3 -29 -20 -39 -43
-10 -21 -26 -46 -37 -56 -20 -18 -20 -17 -20 23 0 23 4 42 9 42 5 0 13 13 19
28 5 15 24 42 41 60 27 26 31 38 29 72 -2 47 27 84 55 68 13 -7 15 -5 11 7 -3
8 -1 15 5 15 6 0 11 -13 11 -30z"/>
<path d="M5140 4143 c0 -5 14 -17 30 -26 17 -10 30 -22 30 -27 0 -6 18 -21 40
-35 23 -14 44 -34 47 -43 4 -9 21 -33 40 -52 21 -22 33 -43 32 -60 -1 -14 2
-34 6 -44 7 -16 5 -18 -8 -13 -13 5 -17 1 -17 -19 0 -15 -5 -24 -12 -22 -6 2
-20 -4 -30 -14 -10 -10 -25 -18 -33 -18 -11 0 -14 -7 -9 -24 4 -19 0 -27 -16
-36 -20 -11 -25 -9 -45 16 -25 32 -78 42 -220 43 -155 1 -225 -27 -267 -106
-19 -35 -20 -45 -10 -67 12 -27 31 -31 150 -28 31 1 42 -3 42 -13 0 -8 7 -15
15 -15 19 0 19 -20 0 -47 -13 -19 -20 -21 -41 -13 -35 14 -34 14 -22 -21 7
-21 7 -37 0 -53 -14 -31 -3 -149 14 -159 19 -11 17 -24 -6 -49 -19 -21 -27
-48 -14 -48 4 0 15 9 25 21 25 29 55 21 52 -14 -1 -15 2 -27 8 -27 5 0 9 7 9
15 0 19 24 20 39 2 6 -8 10 -36 10 -64 -2 -58 5 -73 31 -73 42 0 35 104 -8
126 -19 9 -20 13 -8 30 8 10 14 31 14 45 l0 26 -35 -33 c-34 -33 -53 -36 -53
-9 0 8 7 18 16 23 16 9 27 53 28 115 1 36 2 38 28 35 35 -6 47 19 13 28 -14 3
-25 9 -25 13 1 16 33 46 49 47 16 1 18 -3 11 -27 -5 -17 -5 -29 1 -29 5 0 9 6
9 14 0 7 9 20 20 27 15 10 21 26 22 61 2 39 7 49 28 60 14 7 27 16 30 19 3 3
27 16 54 29 26 12 77 50 111 84 50 49 66 72 79 114 11 38 12 60 6 78 -6 14 -8
29 -5 34 11 18 -123 162 -190 205 -28 18 -65 28 -65 18z"/>
<path d="M5776 3031 c-3 -5 -15 -7 -25 -4 -10 3 -22 0 -25 -6 -4 -6 -33 -11
-64 -11 -31 0 -86 -5 -122 -12 -36 -6 -109 -11 -162 -12 -54 -1 -98 -4 -98 -8
0 -4 -13 -5 -29 -2 -20 4 -30 1 -34 -9 -4 -12 -16 -14 -46 -10 -34 5 -41 3
-41 -11 0 -9 -6 -16 -13 -16 -7 0 -19 -8 -28 -18 -8 -10 -41 -24 -73 -32 l-58
-14 6 -39 c4 -24 2 -45 -5 -53 -13 -16 -2 -73 14 -75 7 -1 19 -2 27 -3 10 -1
14 -10 13 -26 -3 -31 48 -97 66 -86 7 5 16 19 21 32 5 13 16 24 24 24 8 0 23
16 32 36 12 25 22 34 35 31 11 -3 19 2 22 14 3 13 14 19 31 19 15 0 36 9 48
20 12 11 29 20 39 20 9 0 19 7 23 15 3 8 18 15 34 15 15 0 33 5 40 12 8 8 15
8 28 -3 15 -12 19 -11 32 9 17 26 40 29 49 6 4 -12 11 -9 35 15 17 17 39 32
49 32 28 2 33 3 47 13 8 5 18 4 25 -3 6 -6 15 -7 21 -3 6 5 38 20 71 34 63 27
108 29 227 13 46 -7 51 -6 40 8 -14 16 -80 44 -184 76 -76 24 -85 25 -92 12z"/>
<path d="M5290 2495 c-7 -9 -20 -13 -29 -10 -21 6 -52 -14 -33 -22 28 -11 70
-54 76 -78 7 -28 27 -32 50 -10 22 22 45 18 56 -10 13 -34 47 -34 56 0 3 14
13 29 22 34 14 8 14 11 -1 34 -14 22 -22 25 -52 20 -21 -3 -35 -2 -35 5 0 13
-62 52 -82 52 -9 0 -21 -7 -28 -15z"/>
</g>
</svg>
